<svg xmlns="http://www.w3.org/2000/svg" width="16" height="16"><path fill="#000000" d="M3.51 13.925c.194.194.512.195.706.001l3.432-3.431c.194-.194.514-.194.708 0l3.432 3.431c.192.194.514.193.707-.001l1.405-1.417c.191-.195.189-.514-.002-.709l-3.397-3.4c-.192-.193-.192-.514-.002-.708l3.401-3.43c.189-.195.189-.515 0-.709l-1.407-1.418c-.195-.195-.513-.195-.707-.001l-3.43 3.431c-.195.194-.516.194-.708 0l-3.432-3.431c-.195-.195-.512-.194-.706.001l-1.407 1.417c-.194.195-.194.515 0 .71l3.403 3.429c.193.195.193.514-.001.708l-3.4 3.399c-.194.195-.195.516-.001.709l1.406 1.419z"/></svg>
