<svg xmlns="http://www.w3.org/2000/svg" width="16" height="16"><path fill="#000000" d="M8.184 7.928l-1.905 1.983-3.538-2.436 4.714-4.713 2.623 3.183-1.894 1.983zm-1.746-7.523c-.236-.416-.803-.649-1.346.083-.259.349-4.727 4.764-4.91 4.983-.182.218-.294.721.044.976.34.258 5.611 3.933 5.611 3.933l-.225.229c.7.729.816.854 1.046.863.75.016 2.035-1.457 2.578-.854.541.604 3.537 3.979 3.537 3.979.51.531 1.305.559 1.815.041.521-.521.541-1.311.025-1.848 0 0-2.742-2.635-3.904-3.619-.578-.479.869-2.051.854-2.839-.008-.238-.125-.361-.823-1.095l-.22.243c0 .003-3.846-4.659-4.082-5.075z"/></svg>
