<svg xmlns="http://www.w3.org/2000/svg" width="16" height="16"><path fill="#000000" d="M11.002 11v2.529c0 .275-.225.471-.5.471h-3c-.827 0-1.112-.754-.604-1.316l.81-.725c.509-.562.513-1.461-.097-2.01-.383-.344-1.027-.728-2.111-.728s-1.727.386-2.109.731c-.609.549-.606 1.45-.097 2.015l.808.717c.509.562.223 1.316-.602 1.316h-3c-.276 0-.5-.193-.5-.471v-9.029c0-.276.224-.5.5-.5h3c.825 0 1.111-.768.602-1.332l-.808-.73c-.51-.563-.513-1.465.097-2.014.382-.344 1.025-.731 2.109-.731s1.728.387 2.111.731c.608.548.606 1.45.097 2.014l-.81.73c-.509.564-.223 1.332.603 1.332h3c.274 0 .5.224.5.5v2.5c0 .825.642 1.111 1.233.602l.771-.808c.599-.51 1.547-.513 2.127.097.364.383.772 1.025.772 2.109s-.408 1.727-.771 2.109c-.58.604-1.529.604-2.127.097l-.77-.808c-.593-.509-1.234-.223-1.234.602z"/></svg>
