<?xml version="1.0" encoding="UTF-8"?>
<svg width="80" height="20" xmlns="http://www.w3.org/2000/svg">
 <g>
  <g id="svg_1">
   <path id="svg_2" d="m70.39463,2.259c-0.149605,-0.385 -0.395561,-0.385 -0.545135,0l-1.966644,5.049c-0.149582,0.385 -0.611374,0.699 -1.024971,0.699l-1.756836,0.169c-0.413605,0 -0.494911,0.219001 -0.180702,0.487l1.315094,0.981c0.31424,0.268 0.498962,0.816 0.408607,1.22l-1.477745,6.562c-0.090355,0.403 0.118454,0.546999 0.464806,0.319l3.862999,-2.539001c0.346359,-0.228001 0.910545,-0.228001 1.256889,0l3.863014,2.539001c0.346344,0.227999 0.555161,0.084 0.464806,-0.319l-1.051086,-4.707001c-0.090355,-0.403 0.094368,-0.952 0.408577,-1.22l3.531731,-3.006c0.314209,-0.268 0.232903,-0.487 -0.180702,-0.487l-4.398079,0c-0.413612,0 -0.875404,-0.314 -1.024986,-0.698999l-1.969635,-5.048z" fill="#FEF6A8"/>
   <polygon id="svg_3" points="62.545124552483685,5 65.1010474534105,7.546999931335449 67.6569842932513,5 69.07749901699208,6.414999961853027 66.52157611606526,8.961000442504883 69.07448821157232,11.505000114440918 67.65596675253073,12.918999671936035 65.10203711630311,10.375 62.54711781718288,12.918999671936035 61.12760669524869,11.505000114440918 63.682525994368916,8.960000038146973 61.12559949163551,6.414000034332275 " fill="#807640"/>
   <path id="svg_4" d="m64.930397,13.897s0.133507,-0.516001 0.653519,-0.349c0.518013,0.165999 0.303192,0.674 0.303192,0.674l-0.721832,3.204c-0.061234,0.272999 0.01609,0.427999 0.178696,0.427999c0.078323,0 0.174698,-0.035 0.28614,-0.107l3.863007,-2.539c0.174667,-0.115 0.401566,-0.172 0.62944,-0.172s0.45475,0.057 0.627426,0.172l3.863022,2.539c0.111427,0.072001 0.209808,0.107 0.28611,0.107c0.164627,0 0.240929,-0.153999 0.178696,-0.427999l-1.051094,-4.707001c-0.090347,-0.401999 0.094368,-0.951 0.409584,-1.219l3.531731,-3.007c0.315224,-0.269 0.232903,-0.487 -0.180702,-0.487l-4.400085,0c-0.413628,0 -0.874405,-0.314 -1.024986,-0.698999l-1.966637,-5.049c-0.075302,-0.192 -0.174683,-0.287 -0.273064,-0.287s-0.197769,0.096 -0.272064,0.288l-0.462784,1.158s-0.256004,0.409 -0.637497,0.219c-0.441711,-0.221 -0.227875,-0.66 -0.227875,-0.66l0.390511,-1.078c0.337311,-0.861 1.01194,-0.927 1.209709,-0.927s0.872391,0.066 1.20768,0.926l1.968658,5.049l0.109421,0.062l4.378006,-0.001c0.937645,0 1.234795,0.609 1.306076,0.796c0.06826,0.187 0.23893,0.844 -0.472839,1.451l-3.533722,3.007c-0.037148,0.041 -0.086334,0.186 -0.078308,0.25l1.049088,4.698999c0.133507,0.596001 -0.051216,0.984001 -0.229912,1.205002c-0.225868,0.278999 -0.563187,0.438999 -0.929596,0.438999c-0.280106,0 -0.563194,-0.092001 -0.839264,-0.273001l-3.863014,-2.539l0,0.002001l-0.074287,-0.008001l-0.088341,0.014l-3.85096,2.531c-0.274071,0.182001 -0.559174,0.273001 -0.839264,0.273001c-0.364418,0 -0.703735,-0.16 -0.927589,-0.438999c-0.178711,-0.221001 -0.362411,-0.609001 -0.230904,-1.205002l0.74691,-3.312999z" fill="#80722D"/>
  </g>
  <g id="svg_5">
   <path id="svg_6" d="m54.758999,18.355c-0.18,0 -0.368999,-0.063999 -0.560997,-0.191l-3.848003,-2.539c-0.083,-0.055 -0.215,-0.088 -0.350998,-0.088s-0.268002,0.033 -0.351002,0.088l-3.848,2.539c-0.190998,0.127001 -0.381001,0.191 -0.561001,0.191c-0.211998,0 -0.406998,-0.091999 -0.535,-0.251999c-0.108997,-0.136002 -0.219997,-0.383001 -0.130997,-0.784l1.046997,-4.708c0.049999,-0.222 -0.070999,-0.584 -0.243,-0.731l-3.516998,-3.006001c-0.451,-0.386 -0.378002,-0.756 -0.326,-0.896999c0.053001,-0.141 0.237,-0.47 0.831001,-0.47l4.380997,0c0.206001,0 0.480003,-0.188 0.556,-0.38l1.961002,-5.049c0.213001,-0.549 0.586998,-0.608 0.737,-0.608s0.523998,0.059 0.737,0.607l1.959,5.049c0.075001,0.191 0.350002,0.38 0.556,0.38l4.382999,0c0.594002,0 0.778,0.329 0.831001,0.47c0.052002,0.142 0.125,0.512 -0.326,0.897l-3.517998,3.006c-0.173,0.147 -0.294003,0.51 -0.244003,0.731l1.047001,4.708001c0.089001,0.400999 -0.021,0.646999 -0.131001,0.783998c-0.127998,0.162001 -0.322998,0.253 -0.535,0.253z" fill="#FEF6A8"/>
   <path id="svg_7" d="m50,1.97c0.098999,0 0.195999,0.096 0.271,0.289l1.959,5.049c0.149002,0.385 0.609001,0.699 1.021,0.699l4.382999,0c0.412003,0 0.493,0.219 0.18,0.487l-3.516998,3.006c-0.313,0.268 -0.497002,0.816 -0.407001,1.22l1.047001,4.707999c0.061001,0.273001 -0.014999,0.428001 -0.178001,0.428001c-0.077,0 -0.174,-0.035002 -0.285,-0.108002l-3.848,-2.539c-0.173,-0.113 -0.398998,-0.171 -0.625999,-0.171s-0.452999,0.058 -0.625999,0.171l-3.848,2.539c-0.111,0.073 -0.208,0.108002 -0.285,0.108002c-0.163002,0 -0.238003,-0.154001 -0.178001,-0.428001l1.047001,-4.707999c0.09,-0.403 -0.094002,-0.952001 -0.407001,-1.22l-3.517998,-3.006c-0.313,-0.268001 -0.232002,-0.487 0.18,-0.487l4.380997,0c0.412003,0 0.872002,-0.314 1.021,-0.699l1.961002,-5.049c0.076,-0.193 0.173,-0.289 0.271999,-0.289m0,-1c-0.198002,0 -0.869999,0.067 -1.203999,0.927l-1.961002,5.049l-0.108997,0.062l-4.360001,-0.001c-0.934002,0 -1.231003,0.61 -1.299999,0.797c-0.069,0.187 -0.239002,0.844 0.470997,1.451l3.518002,3.005c0.039001,0.043 0.085999,0.186 0.078999,0.25l-1.045998,4.701c-0.132,0.594999 0.051998,0.983 0.229,1.205c0.223999,0.278999 0.560997,0.438999 0.924999,0.438999c0.279999,0 0.562,-0.093 0.835999,-0.272999l3.848,-2.539001l0.000999,0.001001l0.074001,-0.007l0.089001,0.014l3.834,2.531c0.274002,0.181 0.556999,0.272999 0.835999,0.272999c0.364002,0 0.701,-0.16 0.925003,-0.438999c0.177998,-0.222 0.361,-0.610001 0.229,-1.206001l-1.046001,-4.706999c-0.006001,-0.058001 0.041,-0.2 0.085999,-0.248l3.512001,-3c0.709999,-0.607 0.540001,-1.264 0.471001,-1.451c-0.068001,-0.187 -0.366001,-0.797 -1.299999,-0.797l-4.382999,0l-0.098003,-0.08l-1.949997,-5.03c-0.336002,-0.86 -1.007999,-0.927 -1.206001,-0.927z" fill="#80722D"/>
  </g>
  <g id="svg_8">
   <path id="svg_9" d="m24.614159,14.96s0.134195,-0.516 0.656843,-0.349c0.520624,0.166 0.304714,0.674 0.304714,0.674l-0.481285,2.142c-0.06155,0.273001 0.016146,0.427999 0.179598,0.427999c0.078697,0 0.175564,-0.035 0.287556,-0.107l3.882521,-2.539c0.175562,-0.115 0.403591,-0.172 0.632626,-0.172s0.457062,0.057 0.630606,0.172l3.88253,2.539c0.111988,0.072001 0.210865,0.107 0.287552,0.107c0.165478,0 0.242153,-0.153999 0.179596,-0.427999l-1.056396,-4.707c-0.090809,-0.402 0.094849,-0.951 0.411667,-1.219l3.549557,-3.007c0.316818,-0.269 0.234085,-0.487 -0.181614,-0.487l-4.422318,0c-0.415699,0 -0.878819,-0.314 -1.030159,-0.699l-1.976582,-5.049c-0.075674,-0.193 -0.17556,-0.288 -0.274439,-0.288s-0.198767,0.096 -0.27343,0.288l-1.389357,3.538s-0.257284,0.409 -0.640696,0.219c-0.443943,-0.221 -0.229034,-0.66 -0.229034,-0.66l0.612446,-1.658l0.703257,-1.801c0.340021,-0.86 1.018047,-0.926 1.216814,-0.926s0.876799,0.066 1.213793,0.926l1.9786,5.049l0.10997,0.062l4.400127,-0.001c0.942379,0 1.241035,0.609 1.312668,0.796c0.068615,0.187 0.240135,0.844 -0.475224,1.451l-3.551575,3.007c-0.037338,0.041 -0.086777,0.186 -0.078701,0.25l1.054375,4.698999c0.134193,0.596001 -0.051464,0.984001 -0.231056,1.205002c-0.22702,0.278999 -0.566032,0.438999 -0.934299,0.438999c-0.281509,0 -0.566044,-0.092001 -0.843502,-0.273001l-3.882523,-2.539l0,0.002001l-0.074667,-0.008001l-0.088793,0.014l-3.870409,2.531c-0.275454,0.182001 -0.562002,0.273001 -0.843506,0.273001c-0.366257,0 -0.707291,-0.16 -0.932289,-0.438999c-0.179598,-0.221001 -0.364237,-0.609001 -0.232063,-1.205002l0.506502,-2.249999z" fill="#5A563B" opacity="0.7"/>
   <polygon id="svg_10" points="20.99598980255405,7.960000038146973 24.022905373148888,7.960000038146973 24.022905373148888,4.960000038146973 26.040840745155492,4.960000038146973 26.040840745155492,7.960000038146973 29.06775631575033,7.960000038146973 29.06775631575033,9.958999633789062 26.040840745155492,9.958999633789062 26.040840745155492,12.960000038146973 24.022905373148888,12.960000038146973 24.022905373148888,9.958999633789062 20.99598980255405,9.958999633789062 " fill="#807640"/>
  </g>
  <path id="svg_11" d="m10,1.97c0.098,0 0.197,0.096 0.271,0.289l1.959,5.049c0.149,0.385 0.609,0.699 1.021001,0.699l4.383,0c0.411999,0 0.493,0.219 0.179998,0.487l-3.516999,3.006c-0.313,0.268 -0.497,0.816 -0.407,1.22l1.047,4.707c0.061,0.273001 -0.015,0.427999 -0.178,0.427999c-0.077,0 -0.174,-0.035 -0.285,-0.108l-3.848,-2.539c-0.172,-0.114 -0.399,-0.171 -0.626,-0.171s-0.454,0.057 -0.626,0.171l-3.848,2.539c-0.111,0.073 -0.208,0.108 -0.285,0.108c-0.163,0 -0.239,-0.153999 -0.178,-0.427999l1.047,-4.707c0.09,-0.403 -0.094,-0.951 -0.407,-1.22l-3.518,-3.006c-0.313,-0.268001 -0.233,-0.487 0.18,-0.487l4.382,0c0.413,0 0.872,-0.314 1.021,-0.699l1.96,-5.049c0.075001,-0.193 0.173,-0.289 0.272,-0.289m0,-1c-0.198,0 -0.87,0.067 -1.204,0.927l-1.96,5.049l-0.109,0.062l-4.362,-0.001c-0.934,0 -1.231,0.61 -1.3,0.796c-0.069,0.187 -0.239,0.844 0.47,1.451l3.519,3.007c0.038,0.041 0.086,0.185 0.079,0.249001l-1.046,4.699999c-0.133,0.595001 0.051,0.983002 0.229,1.205002c0.224,0.278999 0.561,0.438999 0.925,0.438999c0.28,0 0.562,-0.093 0.836,-0.274l3.848,-2.538l0,0.000999l0.075,-0.007l0.088,0.014l3.834,2.531c0.274,0.181 0.557,0.273001 0.836,0.273001c0.363999,0 0.700999,-0.16 0.924999,-0.438999c0.178,-0.222 0.361001,-0.610001 0.229,-1.206001l-1.047,-4.705999c-0.006,-0.058001 0.041,-0.2 0.086,-0.248l3.511999,-3c0.710001,-0.607 0.540001,-1.264 0.471001,-1.451c-0.068001,-0.187 -0.365999,-0.797 -1.299999,-0.797l-4.383,0l-0.098001,-0.08l-1.95,-5.03c-0.333,-0.86 -1.005,-0.927 -1.203,-0.927z" fill="#5A563B" opacity="0.7"/>
 </g>
</svg>
