<svg xmlns="http://www.w3.org/2000/svg" width="80" height="20" viewBox="0 0 80 20"><g><path fill="#FEF6A8" d="M69.729 2.259c.149-.385.394-.385.543 0l1.959 5.049c.149.385.609.699 1.021.699l1.75.169c.412 0 .493.219.18.487l-1.31.981c-.313.268-.497.816-.407 1.22l1.472 6.562c.09.403-.118.547-.463.319l-3.848-2.539c-.345-.228-.907-.228-1.252 0l-3.848 2.539c-.345.228-.553.084-.463-.319l1.047-4.707c.09-.403-.094-.952-.407-1.22l-3.518-3.006c-.313-.268-.232-.487.18-.487h4.381c.412 0 .872-.314 1.021-.699l1.962-5.048z"/><polygon fill="#807640" points="77.548,5 75.002,7.547 72.456,5 71.041,6.415 73.587,8.961 71.044,11.505 72.457,12.919 75.001,10.375 77.546,12.919 78.96,11.505 76.415,8.96 78.962,6.414"/><path fill="#80722D" d="M75.172 13.897s-.133-.516-.651-.349c-.516.166-.302.674-.302.674l.719 3.204c.061.273-.016.428-.178.428-.078 0-.174-.035-.285-.107l-3.848-2.539c-.174-.115-.4-.172-.627-.172s-.453.057-.625.172l-3.848 2.539c-.111.072-.209.107-.285.107-.164 0-.24-.154-.178-.428l1.047-4.707c.09-.402-.094-.951-.408-1.219l-3.518-3.007c-.314-.269-.232-.487.18-.487h4.383c.412 0 .871-.314 1.021-.699l1.959-5.049c.075-.192.174-.287.272-.287s.197.096.271.288l.461 1.158s.255.409.635.219c.44-.221.227-.66.227-.66l-.389-1.078c-.336-.861-1.008-.927-1.205-.927s-.869.066-1.203.926l-1.961 5.049-.109.062-4.361-.001c-.934 0-1.23.609-1.301.796-.068.187-.238.844.471 1.451l3.52 3.007c.037.041.086.186.078.25l-1.045 4.699c-.133.596.051.984.229 1.205.225.279.561.439.926.439.279 0 .561-.092.836-.273l3.848-2.539v.002l.074-.008.088.014 3.836 2.531c.273.182.557.273.836.273.363 0 .701-.16.924-.439.178-.221.361-.609.23-1.205l-.744-3.313z"/></g><g><path fill="#FEF6A8" d="M54.759 18.355c-.18 0-.369-.064-.561-.191l-3.848-2.539c-.083-.055-.215-.088-.351-.088s-.268.033-.351.088l-3.848 2.539c-.191.127-.381.191-.561.191-.212 0-.407-.092-.535-.252-.109-.136-.22-.383-.131-.784l1.047-4.708c.05-.222-.071-.584-.243-.731l-3.517-3.006c-.451-.386-.378-.756-.326-.897.053-.141.237-.47.831-.47h4.381c.206 0 .48-.188.556-.38l1.961-5.049c.213-.549.587-.608.737-.608s.524.059.737.607l1.959 5.049c.075.191.35.38.556.38h4.383c.594 0 .778.329.831.47.052.142.125.512-.326.897l-3.518 3.006c-.173.147-.294.51-.244.731l1.047 4.708c.089.401-.021.647-.131.784-.128.162-.323.253-.535.253z"/><path fill="#80722D" d="M50 1.97c.099 0 .196.096.271.289l1.959 5.049c.149.385.609.699 1.021.699h4.383c.412 0 .493.219.18.487l-3.517 3.006c-.313.268-.497.816-.407 1.22l1.047 4.708c.061.273-.015.428-.178.428-.077 0-.174-.035-.285-.108l-3.848-2.539c-.173-.113-.399-.171-.626-.171s-.453.058-.626.171l-3.848 2.539c-.111.073-.208.108-.285.108-.163 0-.238-.154-.178-.428l1.047-4.708c.09-.403-.094-.952-.407-1.22l-3.518-3.006c-.313-.268-.232-.487.18-.487h4.381c.412 0 .872-.314 1.021-.699l1.961-5.049c.076-.193.173-.289.272-.289m0-1c-.198 0-.87.067-1.204.927l-1.961 5.049-.109.062-4.36-.001c-.934 0-1.231.61-1.3.797-.069.187-.239.844.471 1.451l3.518 3.005c.039.043.086.186.079.25l-1.046 4.701c-.132.595.052.983.229 1.205.224.279.561.439.925.439.28 0 .562-.093.836-.273l3.848-2.539.001.001.074-.007.089.014 3.834 2.531c.274.181.557.273.836.273.364 0 .701-.16.925-.439.178-.222.361-.61.229-1.206l-1.046-4.707c-.006-.058.041-.2.086-.248l3.512-3c.71-.607.54-1.264.471-1.451-.068-.187-.366-.797-1.3-.797h-4.383l-.098-.08-1.95-5.03c-.336-.86-1.008-.927-1.206-.927z"/></g><g><path opacity=".7" fill="#5A563B" d="M35.414 14.96s-.133-.516-.651-.349c-.516.166-.302.674-.302.674l.477 2.142c.061.273-.016.428-.178.428-.078 0-.174-.035-.285-.107l-3.848-2.539c-.174-.115-.4-.172-.627-.172s-.453.057-.625.172l-3.848 2.539c-.111.072-.209.107-.285.107-.164 0-.24-.154-.178-.428l1.047-4.707c.09-.402-.094-.951-.408-1.219l-3.518-3.007c-.314-.269-.232-.487.18-.487h4.383c.412 0 .871-.314 1.021-.699l1.959-5.049c.075-.193.174-.288.272-.288s.197.096.271.288l1.377 3.538s.255.409.635.219c.44-.221.227-.66.227-.66l-.607-1.658-.697-1.801c-.337-.86-1.009-.926-1.206-.926s-.869.066-1.203.926l-1.961 5.049-.109.062-4.361-.001c-.934 0-1.23.609-1.301.796-.068.187-.238.844.471 1.451l3.52 3.007c.037.041.086.186.078.25l-1.045 4.699c-.133.596.051.984.229 1.205.225.279.561.439.926.439.279 0 .561-.092.836-.273l3.848-2.539v.002l.074-.008.088.014 3.836 2.531c.273.182.557.273.836.273.363 0 .701-.16.924-.439.178-.221.361-.609.23-1.205l-.502-2.25z"/><polygon fill="#807640" points="39,7.96 36,7.96 36,4.96 34,4.96 34,7.96 31,7.96 31,9.959 34,9.959 34,12.96 36,12.96 36,9.959 39,9.959"/></g><path opacity=".7" fill="#5A563B" d="M10 1.97c.098 0 .197.096.271.289l1.959 5.049c.149.385.609.699 1.021.699h4.383c.412 0 .493.219.18.487l-3.517 3.006c-.313.268-.497.816-.407 1.22l1.047 4.707c.061.273-.015.428-.178.428-.077 0-.174-.035-.285-.108l-3.848-2.539c-.172-.114-.399-.171-.626-.171s-.454.057-.626.171l-3.848 2.539c-.111.073-.208.108-.285.108-.163 0-.239-.154-.178-.428l1.047-4.707c.09-.403-.094-.951-.407-1.22l-3.518-3.006c-.313-.268-.233-.487.18-.487h4.382c.413 0 .872-.314 1.021-.699l1.96-5.049c.075-.193.173-.289.272-.289m0-1c-.198 0-.87.067-1.204.927l-1.96 5.049-.109.062-4.362-.001c-.934 0-1.231.61-1.3.796-.069.187-.239.844.47 1.451l3.519 3.007c.038.041.086.185.079.249l-1.046 4.7c-.133.595.051.983.229 1.205.224.279.561.439.925.439.28 0 .562-.093.836-.274l3.848-2.538v.001l.075-.007.088.014 3.834 2.531c.274.181.557.273.836.273.364 0 .701-.16.925-.439.178-.222.361-.61.229-1.206l-1.047-4.706c-.006-.058.041-.2.086-.248l3.512-3c.71-.607.54-1.264.471-1.451-.068-.187-.366-.797-1.3-.797h-4.383l-.098-.08-1.95-5.03c-.333-.86-1.005-.927-1.203-.927z"/></svg>