<svg width="96" height="24" xmlns="http://www.w3.org/2000/svg">
  <style type="text/css" >
    <![CDATA[
    .svg-stroke, .svg-stroke--hover {stroke: #003CC5;}
    .svg-stroke--default {stroke: #55565B;}
    .svg-fill {fill: #003CC5;}

    @media (forced-colors: active) {
      .svg-stroke {stroke: LinkText;}
      .svg-stroke--hover {stroke: transparent; fill: LinkText;}
      .svg-stroke--default {stroke: LinkText;}
      .svg-fill {fill: LinkText;}
    }
    ]]>
  </style>
  <g fill="none" fill-rule="evenodd">
    <path class="svg-stroke" stroke-width="1.5" d="M84.402 18.655L84 18.4l-.402.255-5.89 3.743 1.576-7.116.094-.424-.32-.292-5.292-4.825 6.929-.62.457-.04.172-.426L84 2.008l2.676 6.647.172.426.457.04 6.93.62-5.292 4.825-.321.292.094.424 1.577 7.116z"/>
    <path class="svg-fill" d="M84.236 15.981L84 15.843l-.236.138L80.311 18l.924-3.839.055-.228-.188-.158L78 11.172l4.062-.334.268-.022.101-.23L84 7l1.57 3.586.1.23.268.022 4.062.334-3.102 2.603-.188.158.055.228.924 3.839zM60.402 18.655L60 18.4l-.402.255-5.89 3.743 1.576-7.116.094-.424-.32-.292-5.292-4.825 6.929-.62.457-.04.172-.426L60 2.008l2.676 6.647.172.426.457.04 6.93.62-5.292 4.825-.321.292.094.424 1.577 7.116z"/>
    <g stroke-width="1.5">
      <path class="svg-stroke--hover" d="M36.402 18.655L36 18.4l-.402.255-5.89 3.743 1.576-7.116.094-.424-.32-.292-5.292-4.825 6.929-.62.457-.04.172-.426L36 2.008l2.676 6.647.172.426.457.04 6.93.62-5.292 4.825-.321.292.094.424 1.577 7.116z"/>
      <path class="svg-stroke--default" d="M12.402 18.655L12 18.4l-.402.255-5.89 3.743 1.576-7.116.094-.424-.32-.292L1.765 9.74l6.929-.62.457-.04.172-.426L12 2.008l2.676 6.647.172.426.457.04 6.93.62-5.292 4.825-.321.292.094.424 1.577 7.116z"/>
    </g>
  </g>
</svg>
