<svg height="24" width="96" xmlns="http://www.w3.org/2000/svg"><g stroke="#8e929c"><path d="m94.46 9.667h-7.937l-2.523-8.007-2.523 8.007h-7.937l6.768 4.926-3.076 8.007 6.768-4.927 6.768 4.927-3.076-8.007zm-24 0h-7.937l-2.523-8.007-2.523 8.007h-7.937l6.768 4.926-3.076 8.007 6.768-4.927 6.768 4.927-3.076-8.007z" fill="#ffd23f"/><g fill="none"><path d="m38.42 9.327.11.35h7.934l-6.521 4.742-.31.225.138.358 2.922 7.599-6.397-4.653-.294-.214-.294.214-6.397 4.653 2.923-7.599.137-.358-.31-.225-6.521-4.742h7.934l.11-.35 2.418-7.665zm-24.002 0 .11.35h7.934l-6.521 4.742-.31.225.138.358 2.922 7.599-6.397-4.653-.294-.214-.294.214-6.397 4.653 2.923-7.599.137-.358-.31-.225-6.521-4.742h7.934l.11-.35 2.418-7.665z"/><path d="m29.5 1v7m-3.5-3.5h7m42 2.5 6-6m0 6-6-6" stroke-linecap="square" stroke-miterlimit="3"/></g></g></svg>