<svg xmlns="http://www.w3.org/2000/svg" width="44" height="34" viewBox="0 0 44 34">
  <path fill="#FFF" d="M29.98 7.018H7.17c-1.208 0-2.197-.748-2.197-2s.99-2 2.2-2h22.81c1.208 0 2.198.748 2.198 2s-.99 2-2.2 2zM37.61 7c-1.104 0-2-.895-2-2s.896-2 2-2 2 .895 2 2-.894 2-2 2zM0 0v10h44V0H0zM29.98 31.018H7.17c-1.208 0-2.197-.748-2.197-2s.99-2 2.2-2h22.81c1.208 0 2.198.748 2.198 2s-.99 2-2.2 2zM37.61 31c-1.104 0-2-.895-2-2s.896-2 2-2 2 .895 2 2-.894 2-2 2zM0 24v10h44V24H0zM29.98 19.018H7.17c-1.208 0-2.197-.748-2.197-2s.99-2 2.2-2h22.81c1.208 0 2.198.748 2.198 2s-.99 2-2.2 2zM37.61 19c-1.104 0-2-.895-2-2s.896-2 2-2 2 .895 2 2-.894 2-2 2zM0 12v10h44V12H0z"/>
</svg>
