<svg xmlns="http://www.w3.org/2000/svg" width="40" height="40" viewBox="0 0 40 40">
  <path fill="#F0A100" fill-rule="evenodd" d="M38,0 L2.002,0 C0.896716337,-1.37884559e-07 0.000552089742,0.895716475 0,2.001 L0,38.003 C0,39.105 0.899,40.003 2,40.003 L38,40.003 C39.103,40.003 40,39.103 40,38.003 L40,2.001 C40.000531,1.47031248 39.7900198,0.961193334 39.4148607,0.585846626 C39.0397016,0.210499918 38.5306877,-0.000265742306 38,0 Z M34.003,4 C35.105,4 36.003,4.899 36.003,6 C36.003,7.102 35.103,7.998 34.003,7.998 C32.9235903,7.96385326 32.0662376,7.07894966 32.0662376,5.999 C32.0662376,4.91905034 32.9235903,4.03414674 34.003,4 Z M26.003,4 C27.105,4 28.002,4.899 28.002,6 C28.002,7.102 27.102,7.998 26.002,7.998 C24.9225903,7.96385326 24.0652376,7.07894966 24.0652376,5.999 C24.0652376,4.91905034 24.9225903,4.03414674 26.002,4 L26.003,4 Z M18.002,4 C19.104,4 20.002,4.899 20.002,6 C20.002,7.102 19.102,7.998 18.002,7.998 C16.899,7.998 16.002,7.1 16.002,5.999 C16.0025521,4.89482104 16.8978209,3.99999986 18.002,4 Z M36.002,36.002 L4,36.002 L4,12.001 L36.002,12.001 L36.002,36.002 Z M8.805,32.002 L15.196,32.002 C15.4092125,32.0030667 15.6140295,31.9189775 15.764983,31.7683995 C15.9159365,31.6178215 16.0005357,31.4132145 16,31.2 L16,16.805 C16.0005341,16.5919596 15.916072,16.3875055 15.7653354,16.2369566 C15.6145988,16.0864077 15.4100395,16.0022004 15.197,16.003 L8.794,16.003 C8.581215,16.0027342 8.37706868,16.087145 8.22660684,16.2376068 C8.07614501,16.3880687 7.99173418,16.592215 7.992,16.805 L7.992,31.208 C7.99966319,31.6507223 8.36222028,32.0048063 8.805,32.002 Z M20.803,24.002 L31.206,24.002 C31.4190404,24.0025341 31.6234945,23.918072 31.7740434,23.7673354 C31.9245923,23.6165988 32.0087996,23.4120395 32.008,23.199 L32.008,16.797 C32.0085328,16.5841335 31.9242078,16.3798319 31.7736879,16.2293121 C31.6231681,16.0787922 31.4188665,15.9944672 31.206,15.995 L20.803,15.995 C20.5901335,15.9944672 20.3858319,16.0787922 20.2353121,16.2293121 C20.0847922,16.3798319 20.0004672,16.5841335 20.001,16.797 L20.001,23.199 C20.001,23.646 20.356,24.001 20.803,24.001 L20.803,24.002 Z M20.803,32.002 L31.206,32.002 C31.4188665,32.0025328 31.6231681,31.9182078 31.7736879,31.7676879 C31.9242078,31.6171681 32.0085328,31.4128665 32.008,31.2 L32.008,28.797 C32.0085328,28.5841335 31.9242078,28.3798319 31.7736879,28.2293121 C31.6231681,28.0787922 31.4188665,27.9944672 31.206,27.995 L20.803,27.995 C20.5901335,27.9944672 20.3858319,28.0787922 20.2353121,28.2293121 C20.0847922,28.3798319 20.0004672,28.5841335 20.001,28.797 L20.001,31.2 C20.001,31.647 20.356,32.002 20.803,32.002 Z"/>
</svg>
