<svg viewBox="0 0 24 24" xmlns="http://www.w3.org/2000/svg">
  <path fill="currentColor" d="M2.04075 11.8689C0.928882 11.5926 0.29649 10.428 0.649643 9.33809L1.03815 8.1391C1.38495 7.06881 2.54758 6.49302 3.60207 6.88526C6.46906 7.95171 8.62177 8.8925 10.056 9.711C9.74558 6.74781 9.53464 4.4103 9.42271 2.69849C9.34986 1.58418 10.2445 0.670502 11.3612 0.670502H12.5329C13.662 0.670502 14.5685 1.60439 14.4925 2.73093C14.3582 4.72214 14.1151 7.03801 13.7595 9.675C15.7523 8.6714 17.9727 7.72805 20.4268 6.84493C21.4712 6.46909 22.609 7.04742 22.9509 8.1034L23.3877 9.45211C23.7265 10.4983 23.158 11.6263 22.1012 11.9303C19.6815 12.6263 17.2999 13.1093 14.958 13.377C16.1733 14.4342 17.7995 16.1718 19.8382 18.5897C20.5852 19.4756 20.404 20.8085 19.4584 21.4784L18.4529 22.1909C17.5622 22.8219 16.329 22.6233 15.7171 21.7193C14.5769 20.035 13.2955 17.9684 11.874 15.519C10.5582 18.0261 9.35897 20.0984 8.27812 21.7312C7.67842 22.6371 6.44976 22.8207 5.56848 22.1853L4.58713 21.4778C3.65477 20.8056 3.47894 19.4861 4.212 18.6008C6.32731 16.0463 7.88831 14.305 8.895 13.377C6.5197 12.9182 4.23473 12.4141 2.04075 11.8689Z" />
</svg>
