<svg viewBox="0 0 24 24" xmlns="http://www.w3.org/2000/svg">
  <g fill="currentColor">
    <path d="M17.8977 11.9773C17.8977 13.2462 17.6572 14.3258 17.1761 15.2159C16.6989 16.1061 16.0473 16.786 15.2216 17.2557C14.3996 17.7216 13.4754 17.9545 12.4489 17.9545C11.4148 17.9545 10.4867 17.7197 9.66477 17.25C8.8428 16.7803 8.19318 16.1004 7.71591 15.2102C7.23864 14.3201 7 13.2424 7 11.9773C7 10.7083 7.23864 9.62879 7.71591 8.73864C8.19318 7.84848 8.8428 7.17045 9.66477 6.70455C10.4867 6.23485 11.4148 6 12.4489 6C13.4754 6 14.3996 6.23485 15.2216 6.70455C16.0473 7.17045 16.6989 7.84848 17.1761 8.73864C17.6572 9.62879 17.8977 10.7083 17.8977 11.9773ZM15.4034 11.9773C15.4034 11.1553 15.2803 10.4621 15.0341 9.89773C14.7917 9.33333 14.4489 8.9053 14.0057 8.61364C13.5625 8.32197 13.0436 8.17614 12.4489 8.17614C11.8542 8.17614 11.3352 8.32197 10.892 8.61364C10.4489 8.9053 10.1042 9.33333 9.85795 9.89773C9.61553 10.4621 9.49432 11.1553 9.49432 11.9773C9.49432 12.7992 9.61553 13.4924 9.85795 14.0568C10.1042 14.6212 10.4489 15.0492 10.892 15.3409C11.3352 15.6326 11.8542 15.7784 12.4489 15.7784C13.0436 15.7784 13.5625 15.6326 14.0057 15.3409C14.4489 15.0492 14.7917 14.6212 15.0341 14.0568C15.2803 13.4924 15.4034 12.7992 15.4034 11.9773Z" />
  </g>
</svg>
