<svg viewBox="0 0 24 24" xmlns="http://www.w3.org/2000/svg">
  <g fill="none" stroke="currentColor" stroke-width="2.25" stroke-linecap="round" stroke-linejoin="round">
    <path d="M12 13C14.2091 13 16 11.2091 16 9C16 6.79086 14.2091 5 12 5C9.79086 5 8 6.79086 8 9C8 11.2091 9.79086 13 12 13Z" />
    <path d="M5.25 20V19.3333C5.25 17 9.31375 16 12.25 16C15.1863 16 19.25 17 19.25 19.3333V20" />
    <path d="M23 12C23 18.0751 18.0751 23 12 23C5.92487 23 1 18.0751 1 12C1 5.92487 5.92487 1 12 1C18.0751 1 23 5.92487 23 12Z" />
  </g>
</svg>
