<svg xmlns="http://www.w3.org/2000/svg" width="20" height="20" viewBox="0 0 20 20">
  <path fill="#81C071" fill-rule="evenodd" d="M19,0 L1,0 C0.449,0 0,0.448 0,1 L0,19 C0,19.552 0.45,20 1,20 L19,20 C19.552,20 20,19.55 20,19 L20,1 C20,0.44771525 19.5522847,3.38176876e-17 19,0 Z M17.001,2 C17.553,2 18.001,2.45 18.001,3 C18.001,3.55 17.551,3.999 17.001,3.999 C16.451,3.999 16.001,3.549 16.001,2.999 C16.001,2.44671525 16.4487153,1.999 17.001,1.999 L17.001,2 Z M13.001,2 C13.552,2 14.001,2.45 14.001,3 C14.001,3.55 13.551,3.999 13.001,3.999 C12.4487153,3.999 12.001,3.55128475 12.001,2.999 C12.001,2.44671525 12.4487153,1.999 13.001,1.999 L13.001,2 Z M9.001,2 C9.552,2 10.001,2.45 10.001,3 C10.001,3.55 9.551,3.999 9.001,3.999 C8.44871525,3.999 8.001,3.55128475 8.001,2.999 C8.001,2.44671525 8.44871525,1.999 9.001,1.999 L9.001,2 Z M18.001,18 L2,18 L2,6 L18.001,6 L18.001,18 Z M4.402,16 L7.598,16 C7.70460623,16.0005334 7.80701477,15.9584887 7.88249152,15.8831997 C7.95796827,15.8079107 8.00026785,15.7056072 8,15.599 L8,8.402 C8.00026565,8.29574025 7.95824022,8.19374159 7.88319685,8.11851062 C7.80815349,8.04327965 7.70626008,8.00099967 7.6,8.001 L4.396,8.001 C4.28956674,8.00073358 4.18741595,8.04289612 4.11215603,8.11815603 C4.03689612,8.19341595 3.99473358,8.29556674 3.995,8.402 L3.995,15.603 C3.999,15.823 4.177,16 4.401,16 L4.402,16 Z M10.402,12 L15.603,12 C15.7094333,12.0002664 15.811584,11.9581039 15.886844,11.882844 C15.9621039,11.807584 16.0042664,11.7054333 16.004,11.599 L16.004,8.398 C16.0042664,8.29156674 15.9621039,8.18941595 15.886844,8.11415603 C15.811584,8.03889612 15.7094333,7.99673358 15.603,7.997 L10.402,7.997 C10.2957402,7.99673435 10.1937416,8.03875978 10.1185106,8.11380315 C10.0432796,8.18884651 10.0009997,8.29073992 10.001,8.397 L10.001,11.6 C10.001,11.824 10.178,12 10.401,12 L10.402,12 Z M10.402,16 L15.603,16 C15.7094333,16.0002664 15.811584,15.9581039 15.886844,15.882844 C15.9621039,15.807584 16.0042664,15.7054333 16.004,15.599 L16.004,14.398 C16.0042664,14.2915667 15.9621039,14.189416 15.886844,14.114156 C15.811584,14.0388961 15.7094333,13.9967336 15.603,13.997 L10.402,13.997 C10.2957402,13.9967343 10.1937416,14.0387598 10.1185106,14.1138031 C10.0432796,14.1888465 10.0009997,14.2907399 10.001,14.397 L10.001,15.6 C10.001,15.824 10.178,16 10.401,16 L10.402,16 Z"/>
</svg>
