<svg width="20" height="19" viewBox="0 0 20 19" fill="none" xmlns="http://www.w3.org/2000/svg">
<path d="M5.73047 16.7648C6.00143 17.4831 6.6872 18 7.50009 18C8.31299 18 8.99876 17.4865 9.26972 16.7682C8.71107 16.8118 8.12231 16.8387 7.50009 16.8387C6.87788 16.8353 6.28912 16.8085 5.73047 16.7648Z" fill="white"/>
<path d="M14.331 13.4118H14.0801L12.4074 11.3979L11.5143 6.69897H11.5042C11.2333 5.05433 9.97881 3.74869 8.36976 3.39627C8.3731 3.38955 8.37979 3.38284 8.37979 3.37613L8.624 2.63772C8.74108 2.28529 8.53702 2 8.16905 2H6.83095C6.46298 2 6.25892 2.28529 6.37266 2.63772L6.61686 3.37613C6.62021 3.38284 6.62355 3.38955 6.6269 3.39627C5.01784 3.74869 3.76673 5.05433 3.49242 6.69897H3.48238L2.59255 11.3979L0.919938 13.4118H0.669046C0.30107 13.4118 0 13.7139 0 14.0831C0 14.4523 0.280999 14.8618 0.625558 14.996C0.625558 14.996 3.48573 16.0969 7.5 16.0969C11.5143 16.0969 14.3744 14.996 14.3744 14.996C14.719 14.8618 15 14.4523 15 14.0831C15 13.7139 14.6989 13.4118 14.331 13.4118ZM4.58296 6.95742L3.70317 11.8611L1.75624 14.0831H1.23439L3.21811 11.6933L4.15477 6.82652C4.28189 6.0579 4.68332 5.3799 5.24532 4.8798L5.49955 5.19866C5.03122 5.60478 4.68666 6.32305 4.58296 6.95742Z" fill="white"/>
</svg>
