<svg viewBox="0 0 24 24" xmlns="http://www.w3.org/2000/svg">
<g>
  <path d="M12.6674 1.30025L12.6674 1.30026L12.6717 1.30269L21.2229 6.10124C21.2235 6.10158 21.2241 6.10192 21.2247 6.10226C21.4252 6.21633 21.5892 6.37857 21.7024 6.57084C21.8158 6.76352 21.8748 6.98049 21.875 7.20019V16.7998C21.8748 17.0195 21.8158 17.2365 21.7024 17.4292C21.5892 17.6214 21.4253 17.7836 21.2248 17.8977C21.2242 17.898 21.2236 17.8984 21.2229 17.8988L12.6717 22.6973L12.6674 22.6997C12.4657 22.8141 12.2355 22.875 12 22.875C11.7645 22.875 11.5343 22.8141 11.3326 22.6997L11.3283 22.6973L2.77708 17.8988C2.77646 17.8984 2.77584 17.8981 2.77521 17.8977C2.57478 17.7836 2.41079 17.6214 2.29763 17.4292C2.1843 17.2366 2.12531 17.0198 2.125 16.8003V7.19971C2.12531 6.98018 2.1843 6.76338 2.29763 6.57084C2.41079 6.37859 2.57479 6.21636 2.77523 6.10229C2.77585 6.10194 2.77647 6.10159 2.77708 6.10124L11.3283 1.30269L11.3283 1.3027L11.3326 1.30025C11.5343 1.18594 11.7645 1.125 12 1.125C12.2355 1.125 12.4657 1.18594 12.6674 1.30025Z" stroke="currentColor" stroke-width="2.25" stroke-linecap="round" stroke-linejoin="round" />
  <path d="M3 7L12 12L21 7" stroke="currentColor" stroke-width="2.25" stroke-linecap="round" stroke-linejoin="round" />
  <path d="M12 23V12" stroke="currentColor" stroke-width="2.25" stroke-linecap="round" stroke-linejoin="round" />
</g>
</svg>
