<svg viewBox="0 0 24 24" xmlns="http://www.w3.org/2000/svg">
  <g fill="none" stroke="currentColor" stroke-width="2.25" stroke-linecap="round" stroke-linejoin="round">
    <path d="M12.6427 1.54355L12.6427 1.54356L12.6471 1.54599L21.0201 6.24452C21.0207 6.24487 21.0213 6.24521 21.0219 6.24556C21.2146 6.35525 21.3722 6.51118 21.4809 6.69583C21.5898 6.88093 21.6465 7.08928 21.6467 7.30021V16.6998C21.6465 16.9107 21.5898 17.1191 21.4809 17.3042C21.3722 17.4888 21.2146 17.6448 21.0218 17.7545C21.0212 17.7548 21.0207 17.7551 21.0201 17.7555L12.6471 22.454L12.6427 22.4564C12.4489 22.5664 12.2274 22.625 12.0008 22.625C11.7743 22.625 11.5528 22.5664 11.359 22.4564L11.3546 22.454L2.98163 17.7555C2.98104 17.7551 2.98045 17.7548 2.97987 17.7545C2.78712 17.6448 2.62952 17.4888 2.52081 17.3042C2.41194 17.1192 2.35532 16.911 2.35501 16.7003V7.29973C2.35532 7.08897 2.41194 6.88079 2.52081 6.69583C2.62951 6.51117 2.78709 6.35524 2.97981 6.24555C2.98041 6.24521 2.98102 6.24486 2.98163 6.24452L11.3546 1.54599L11.3546 1.546L11.3589 1.54355C11.5528 1.43363 11.7743 1.375 12.0008 1.375C12.2274 1.375 12.4489 1.43363 12.6427 1.54355Z" />
    <path d="M3.18835 7.10417L12.0009 12L20.8134 7.10417" />
    <path d="M12.0009 22.7708V12" />
  </g>
  <path d="M12 12L21.5 7V17.5L12 23V12Z" fill="currentColor" fill-opacity=".15"/>
</svg>
