<svg viewBox="0 0 24 24" xmlns="http://www.w3.org/2000/svg">
<g fill="currentColor" stroke="currentColor" stroke-width="0.5" stroke-linecap="round" stroke-linejoin="round">
  <path d="M22.0054 4.84116L17.3974 0.23321C17.3118 0.147649 17.2102 0.0798082 17.0982 0.0335567C16.9864 -0.0126949 16.8665 -0.0364597 16.7455 -0.0363614H7.52955C7.04071 -0.0363614 6.57188 0.157836 6.22622 0.503494C5.88056 0.849152 5.68636 1.31798 5.68636 1.80682V3.65H3.84318C3.35435 3.65 2.88551 3.8442 2.53986 4.18986C2.1942 4.53552 2 5.00435 2 5.49318V22.0818C2 22.5706 2.1942 23.0395 2.53986 23.3852C2.88551 23.7309 3.35435 23.925 3.84318 23.925H16.7455C17.2343 23.925 17.7032 23.7309 18.0488 23.3852C18.3945 23.0395 18.5886 22.5706 18.5886 22.0818V20.2386H20.4318C20.9206 20.2386 21.3895 20.0445 21.7352 19.6988C22.0809 19.3532 22.275 18.8843 22.275 18.3955V5.49318C22.2751 5.37212 22.2513 5.25223 22.2051 5.14035C22.1589 5.02848 22.0911 4.92681 22.0054 4.84116ZM16.7455 22.0818H3.84318V5.49318H12.6778L16.7455 9.56084V19.2986C16.7455 19.3055 16.7455 19.3113 16.7455 19.317C16.7455 19.3228 16.7455 19.3286 16.7455 19.3355V22.0818ZM20.4318 18.3955H18.5886V9.17955C18.5888 9.05849 18.5649 8.9386 18.5187 8.82671C18.4725 8.71485 18.4047 8.61318 18.319 8.52752L13.7111 3.91957C13.6254 3.83401 13.5238 3.76617 13.4119 3.71992C13.3001 3.67367 13.1801 3.6499 13.0591 3.65H7.52955V1.80682H16.3642L20.4318 5.87449V18.3955ZM13.9807 14.7091C13.9807 14.9535 13.8836 15.188 13.7107 15.3607C13.5379 15.5336 13.3035 15.6307 13.0591 15.6307H7.52955C7.28513 15.6307 7.05071 15.5336 6.87788 15.3607C6.70505 15.188 6.60795 14.9535 6.60795 14.7091C6.60795 14.4647 6.70505 14.2302 6.87788 14.0575C7.05071 13.8846 7.28513 13.7875 7.52955 13.7875H13.0591C13.3035 13.7875 13.5379 13.8846 13.7107 14.0575C13.8836 14.2302 13.9807 14.4647 13.9807 14.7091ZM13.9807 18.3955C13.9807 18.6399 13.8836 18.8743 13.7107 19.0471C13.5379 19.22 13.3035 19.317 13.0591 19.317H7.52955C7.28513 19.317 7.05071 19.22 6.87788 19.0471C6.70505 18.8743 6.60795 18.6399 6.60795 18.3955C6.60795 18.1511 6.70505 17.9166 6.87788 17.7438C7.05071 17.5709 7.28513 17.4739 7.52955 17.4739H13.0591C13.3035 17.4739 13.5379 17.5709 13.7107 17.7438C13.8836 17.9166 13.9807 18.1511 13.9807 18.3955Z" />
</g>
</svg>
