<svg width="44" height="70" xmlns="http://www.w3.org/2000/svg"><g fill="none" fill-rule="evenodd"><path d="M0 0h44v70H0z"/><path d="M30.75 11.73C26.87 7.86 23.18 4.16 22.08 0 21 4.16 17.28 7.86 13.4 11.73 7.59 17.54 1 24.12 1 34a21.08 21.08 0 1 0 42.15 0c0-9.88-6.59-16.46-12.4-22.27zM11.84 35.92a14.13 14.13 0 0 0-1.65 2.62.54.54 0 0 1-.36.3h-.18c-.47 0-1-.92-1-.92-.14-.22-.27-.45-.4-.69l-.09-.19C6.94 34.25 8 30.28 8 30.28a17.42 17.42 0 0 1 2.52-5.41 31.53 31.53 0 0 1 2.28-3l1 1 4.72 4.82a.54.54 0 0 1 0 .72l-4.93 5.47-1.75 2.04zm10.48 13.81a7.29 7.29 0 0 1-5.4-12.14c1.54-1.83 3.42-3.63 5.46-6 2.42 2.58 4 4.35 5.55 6.29.121.15.229.31.32.48a7.15 7.15 0 0 1 1.3 4.12 7.23 7.23 0 0 1-7.23 7.25zM36 38.14a.84.84 0 0 1-.67.58h-.14a1.22 1.22 0 0 1-.68-.55 37.77 37.77 0 0 0-4.28-5.31l-1.93-2-6.41-6.65a54 54 0 0 1-3.84-3.94 1.3 1.3 0 0 0-.1-.15 3.84 3.84 0 0 1-.51-1v-.19a3.4 3.4 0 0 1 1-3c1.24-1.24 2.49-2.49 3.67-3.79 1.3 1.44 2.69 2.82 4.06 4.19a57.6 57.6 0 0 1 7.55 8.58A16 16 0 0 1 36.65 34a14.55 14.55 0 0 1-.65 4.14z" fill="#FFF" fill-rule="nonzero"/></g></svg>
