<svg aria-hidden="true" focusable="false" width="16" height="16" viewBox="0 0 16 16" fill="none" xmlns="http://www.w3.org/2000/svg">
  <path d="M11 0L14 3V16H2V0H11Z" fill="#fff"/>
  <path d="M11 0L14 3V16H2V0H11ZM3 15H13V4H10V1H3V15ZM11 3H12.5L11 1.5V3Z" fill="#7f7f7f"/>
  <path d="M4 2H9V3H4V2Z" fill="#dadada"/>
  <path d="M4 3H9V4H4V3Z" fill="#e0e0e0"/>
  <path d="M4 4H9V5H4V4Z" fill="#ebebeb"/>
  <path d="M4 5H12V6H4V5Z" fill="#eee"/>
  <path d="M4 6H12V7H4V6Z" fill="#f5f5f5"/>
  <path d="M4 7H12V8H4V7Z" fill="#f8f8f8"/>
  <path d="M4 8H12V9H4V8Z" fill="#fcfcfc"/>
  <path d="M4.74 13.73C5.45 13.04 8.06 8.79 7.89 7.30C7.71 5.81 6.73 6.11 7 7.50C7.27 8.89 10.26 12.00 11.06 12.39C11.85 12.79 12.74 12.19 11.5 11.5C10.26 10.81 5.54 12.05 4.56 12.84C3.59 13.63 4.03 14.43 4.74 13.73Z" stroke="#FF2116" stroke-width="0.8"/>
</svg>
