<svg width="96" height="96" viewBox="0 0 96 96" fill="none" xmlns="http://www.w3.org/2000/svg">
<g clip-path="url(#clip0_1_5)">
<path d="M93.8663 21V24.2553L82.1125 39.0451C84.7715 39.3972 87.289 40.5089 89.3935 42.2603C91.4979 44.0116 93.1095 46.3361 94.0545 48.9832C94.9995 51.6302 95.2419 54.4994 94.7557 57.2812C94.2695 60.063 93.0731 62.6519 91.2955 64.7687C89.5179 66.8856 87.2265 68.45 84.6686 69.2934C82.1106 70.1367 79.383 70.227 76.7801 69.5544C74.1771 68.8818 71.7974 67.4719 69.8977 65.4767C67.998 63.4816 66.6503 60.9768 66 58.2326L70.3927 57.071C71.0007 59.6131 72.4671 61.8333 74.5165 63.3148C76.5658 64.7962 79.057 65.4368 81.5222 65.1163C83.9874 64.7959 86.2569 63.5364 87.9045 61.5744C89.5521 59.6124 90.4643 57.0829 90.4699 54.4611C90.4704 52.6292 90.0277 50.8275 89.1836 49.2268C88.3395 47.6262 87.1221 46.2797 85.6468 45.3149C84.1715 44.3501 82.4872 43.7991 80.7536 43.7141C79.02 43.6291 77.2946 44.0129 75.7409 44.8291L75.2246 45.1207L73.6623 42.2358L86.7452 25.7802H67.8273V21H93.8663Z" fill="#003ECC" stroke="#003ECC" stroke-width="2"/>
<path d="M54.3333 34.0484C54.3333 31.5644 53.35 29.1821 51.5997 27.4257C49.8493 25.6692 47.4754 24.6824 45 24.6824C42.5246 24.6824 40.1507 25.6692 38.4003 27.4257C36.65 29.1821 35.6667 31.5644 35.6667 34.0484H31C31.0001 31.8003 31.5378 29.585 32.568 27.5887C33.5981 25.5924 35.0907 23.8733 36.9202 22.5758C38.7497 21.2784 40.8628 20.4405 43.082 20.1325C45.3011 19.8245 47.5616 20.0554 49.6733 20.8058C51.7851 21.5563 53.6866 22.8043 55.218 24.4451C56.7495 26.0859 57.8662 28.0716 58.4743 30.2353C59.0825 32.399 59.1643 34.6775 58.7129 36.8795C58.2615 39.0816 57.2901 41.1427 55.8803 42.8899L38.8003 63.3147L59 63.317V68H31V65.3611L52.1493 40.0684C53.563 38.3836 54.3367 36.2509 54.3333 34.0484Z" fill="#003ECC" stroke="#003ECC" stroke-width="2"/>
<path d="M17 21V68H12.3846V26.0531L2 28.818V24.0699L13.5385 21H17Z" fill="#003ECC" stroke="#003ECC" stroke-width="2"/>
</g>
<defs>
<clipPath id="clip0_1_5">
<rect width="96" height="96" fill="white"/>
</clipPath>
</defs>
</svg>
