<svg xmlns="http://www.w3.org/2000/svg" class="drupal-logo" width="142" height="180" viewBox="0 0 142 180">
  <path fill="#cccccc" d="M126.054 66.3c-.1-.2-.2-.3-.4-.5-9.8-11-23.7-26.6-33.7-37.7-3.1-3.3-6.2-6.6-9.1-10-.7-.8-1.3-1.6-2-2.4-.6-.6-.9-1-.9-1h.1c-3.4-4-6.1-8.5-8-13.3l-.5-1.1c0-.1-.1-.1-.2-.2-.1 0-.3-.1-.4-.1h-.1c-.2 0-.3.1-.4.1l-.2.2-.5 1.1c-2 4.8-4.7 9.3-8 13.3h.1s-.3.4-.9 1c-.7.8-1.3 1.6-2 2.4-3 3.4-6 6.7-9.1 10-10 11.1-24 26.7-33.8 37.7-.1.2-.2.3-.4.5-37 49.3 3.2 89.5 3.2 89.5h-.1c11.9 13.8 28.8 22.3 46.9 23.6 1.6.2 3.3.3 5.1.3h.1c1.7 0 3.4-.1 5.1-.3 18.2-1.3 35-9.8 46.9-23.6h-.1c.1 0 40.3-40.2 3.3-89.5Zm-86.1 34.7-.9 1.4-.1.1c-6.8 8.2-10.8 17-12.1 25.7-.2 1.1-1.2 1.8-2.2 1.6-.7-.1-1.2-.6-1.5-1.2-1.8-4.2-3-8.6-3.6-13.1-2.3-15.9 2.5-29.8 12.7-41.7l12.3-14.1c.7-.8 1.9-.9 2.7-.2l.2.2c3.3 3.8 7.6 8.7 12.4 14.3.6.7.6 1.8 0 2.6-6.6 7.9-13.6 16.3-19.9 24.3v.1Zm56.8 41.2c-3.8 10-11.3 16-21.9 17.7-15.1 2.3-29.2-8-31.5-23.1 0-.2 0-.3-.1-.5-1.2-8.5 1.4-16 6.9-22.4 6.4-7.5 20.5-24.9 20.7-25.2.3.3 15.3 19 20.9 25.6 7.1 8.3 8.8 17.8 5 27.9Zm22.3-15.7c-.1.3-.3.7-.4 1-.4 1-1.5 1.5-2.5 1.1-.6-.3-1.1-.8-1.2-1.5-1.4-8.4-5.4-16.8-11.9-24.7l-.1-.1-.6-.9-.4-.5c-5.2-6.6-32.7-38.8-44.7-52.9-.6-.7-.6-1.8 0-2.6 4-4.4 8-8.8 11.9-13.3.7-.8 1.9-.8 2.7-.1l.1.1c1.8 1.9 3.5 3.8 5.2 5.8 10.9 12.2 21.9 24.2 32.5 36.5 13.4 15.5 16.5 33.3 9.4 52.1Z"/>
</svg>
