<svg height="20" viewBox="0 0 20 20" width="20" xmlns="http://www.w3.org/2000/svg"><path d="m12 .999781c4.539454-.1723607 8.188006 4.7870352 6.687355 9.068641-1.176799 4.383903-6.993833 6.416563-10.637224 3.700244-.325764-.391006-.56541.275384-.84585.440896-1.246479 1.246479-2.492958 2.492959-3.739437 3.739438-.471354-.471354-.942709-.942709-1.414063-1.414063 1.44987-1.44987 2.89974-2.899739 4.34961-4.349609-2.810736-3.4678665-1.148506-9.2474209 3.063105-10.7098206.806281-.3139462 1.671445-.47608867 2.536504-.4757264zm0 2c-3.242467-.1231148-5.848576 3.4193109-4.776682 6.477601.841211 3.131959 4.993992 4.58038 7.599894 2.649077 2.744564-1.729245 2.900205-6.1242565.284838-8.0433125-.874799-.6978665-1.989152-1.0861495-3.10805-1.0833655z" fill="#868686"/></svg>