<svg xmlns="http://www.w3.org/2000/svg" width="16" height="16"><path fill="#ffffff" d="M1 15c-.275 0-.498-.225-.496-.5 0 0 .007-.746 1.071-1.512 1.138-.818 2.347-.969 3.308-1.498s.954-1.299.925-2.115c-.019-.543-.112-.657-.489-1.392-.556-1.084-.709-2.021-.791-2.823-.127-1.252.011-3.035.86-4.001.847-.964 2.114-1.104 2.114-1.104l.5-.055.498.055s1.266.14 2.113 1.104c.85.966.988 2.75.859 4.001-.08.802-.234 1.739-.791 2.823-.377.734-.476.849-.488 1.392-.029.816-.035 1.586.926 2.115s2.17.68 3.307 1.498c1.064.766 1.072 1.512 1.072 1.512.002.275-.221.5-.496.5h-14.002z"/></svg>
