<svg fill-rule="evenodd" height="16" viewBox="0 0 16 16" fill="windowText" width="16" xmlns="http://www.w3.org/2000/svg"><path d="m2.0106399 1.6964404-.0106399.0106426 12.072 12.07205-.6964.696467-2.077627-2.077613c-1.015347.38784-2.1292399.602013-3.297973.602013-3.6363601 0-6.7418187-2.073333-8-5 .64703865-1.5050798 1.7826266-2.7844797 3.2277199-3.6722797l-2.2277199-2.2277203.7071066-.707096zm2.98936 6.3035598c0-.54608.1459066-1.0580666.4008533-1.4991333l4.0982932 4.0982801c-.4410666.25496-.9530666.400853-1.4991464.400853-1.6568535 0-3-1.343146-3-3z"/><path d="m5.1510932 3.4439603 1.75984 1.75984c.3376-.1315867.7048933-.2038 1.0890666-.2038 1.6568533-.0000003 3.0000002 1.3431466 3.0000002 2.9999997 0 .3841735-.07221.7514668-.2038 1.0890668l2.344093 2.3440932c1.269973-.871746 2.26864-2.0582932 2.859707-3.43316-1.258134-2.9266664-4.36364-5-8-5-.9987733 0-1.9575066.1564134-2.8489066.44396z"/></svg>
