<svg xmlns="http://www.w3.org/2000/svg" viewBox="0 0 256 256">
  <path fill="none" d="M0 0h256v256H0z"/>
  <path fill="none" stroke="currentColor" stroke-linecap="round" stroke-linejoin="round" stroke-width="16" d="M160 80v120.67a8 8 0 0 0 3.56 6.65l11 7.33a8 8 0 0 0 12.2-4.72L200 160"/>
  <path fill="none" stroke="currentColor" stroke-linecap="round" stroke-linejoin="round" stroke-width="16" d="M40 200a8 8 0 0 0 13.15 6.12C105.55 162.16 160 160 160 160h40a40 40 0 0 0 0-80h-40s-54.45-2.16-106.85-46.11A8 8 0 0 0 40 40Z"/>
</svg>
