<svg width="24" height="24" viewBox="0 0 24 24" fill="none" xmlns="http://www.w3.org/2000/svg">
  <path d="M6.00002 9.84375V3.75C6.00002 3.55109 5.92101 3.36032 5.78035 3.21967C5.6397 3.07902 5.44894 3 5.25002 3C5.05111 3 4.86035 3.07902 4.71969 3.21967C4.57904 3.36032 4.50002 3.55109 4.50002 3.75V9.84375C3.85471 10.009 3.28274 10.3843 2.87429 10.9105C2.46584 11.4367 2.24414 12.0839 2.24414 12.75C2.24414 13.4161 2.46584 14.0633 2.87429 14.5895C3.28274 15.1157 3.85471 15.491 4.50002 15.6562V20.25C4.50002 20.4489 4.57904 20.6397 4.71969 20.7803C4.86035 20.921 5.05111 21 5.25002 21C5.44894 21 5.6397 20.921 5.78035 20.7803C5.92101 20.6397 6.00002 20.4489 6.00002 20.25V15.6562C6.64533 15.491 7.2173 15.1157 7.62575 14.5895C8.0342 14.0633 8.25591 13.4161 8.25591 12.75C8.25591 12.0839 8.0342 11.4367 7.62575 10.9105C7.2173 10.3843 6.64533 10.009 6.00002 9.84375ZM5.25002 14.25C4.95335 14.25 4.66334 14.162 4.41667 13.9972C4.16999 13.8324 3.97774 13.5981 3.8642 13.324C3.75067 13.0499 3.72097 12.7483 3.77885 12.4574C3.83672 12.1664 3.97958 11.8991 4.18936 11.6893C4.39914 11.4796 4.66642 11.3367 4.95739 11.2788C5.24836 11.2209 5.54996 11.2506 5.82405 11.3642C6.09814 11.4777 6.33241 11.67 6.49723 11.9166C6.66205 12.1633 6.75002 12.4533 6.75002 12.75C6.75002 13.1478 6.59199 13.5294 6.31068 13.8107C6.02938 14.092 5.64785 14.25 5.25002 14.25ZM12.75 5.34375V3.75C12.75 3.55109 12.671 3.36032 12.5304 3.21967C12.3897 3.07902 12.1989 3 12 3C11.8011 3 11.6103 3.07902 11.4697 3.21967C11.329 3.36032 11.25 3.55109 11.25 3.75V5.34375C10.6047 5.50898 10.0327 5.88428 9.62429 6.41048C9.21584 6.93669 8.99414 7.58387 8.99414 8.25C8.99414 8.91613 9.21584 9.56331 9.62429 10.0895C10.0327 10.6157 10.6047 10.991 11.25 11.1562V20.25C11.25 20.4489 11.329 20.6397 11.4697 20.7803C11.6103 20.921 11.8011 21 12 21C12.1989 21 12.3897 20.921 12.5304 20.7803C12.671 20.6397 12.75 20.4489 12.75 20.25V11.1562C13.3953 10.991 13.9673 10.6157 14.3758 10.0895C14.7842 9.56331 15.0059 8.91613 15.0059 8.25C15.0059 7.58387 14.7842 6.93669 14.3758 6.41048C13.9673 5.88428 13.3953 5.50898 12.75 5.34375ZM12 9.75C11.7034 9.75 11.4133 9.66203 11.1667 9.4972C10.92 9.33238 10.7277 9.09811 10.6142 8.82402C10.5007 8.54994 10.471 8.24834 10.5288 7.95736C10.5867 7.66639 10.7296 7.39912 10.9394 7.18934C11.1491 6.97956 11.4164 6.8367 11.7074 6.77882C11.9984 6.72094 12.3 6.75065 12.574 6.86418C12.8481 6.97771 13.0824 7.16997 13.2472 7.41664C13.412 7.66332 13.5 7.95333 13.5 8.25C13.5 8.64782 13.342 9.02936 13.0607 9.31066C12.7794 9.59196 12.3978 9.75 12 9.75ZM21.75 15.75C21.7494 15.0849 21.5282 14.4388 21.121 13.9129C20.7139 13.387 20.1438 13.011 19.5 12.8438V3.75C19.5 3.55109 19.421 3.36032 19.2804 3.21967C19.1397 3.07902 18.9489 3 18.75 3C18.5511 3 18.3603 3.07902 18.2197 3.21967C18.079 3.36032 18 3.55109 18 3.75V12.8438C17.3547 13.009 16.7827 13.3843 16.3743 13.9105C15.9658 14.4367 15.7441 15.0839 15.7441 15.75C15.7441 16.4161 15.9658 17.0633 16.3743 17.5895C16.7827 18.1157 17.3547 18.491 18 18.6562V20.25C18 20.4489 18.079 20.6397 18.2197 20.7803C18.3603 20.921 18.5511 21 18.75 21C18.9489 21 19.1397 20.921 19.2804 20.7803C19.421 20.6397 19.5 20.4489 19.5 20.25V18.6562C20.1438 18.489 20.7139 18.113 21.121 17.5871C21.5282 17.0612 21.7494 16.4151 21.75 15.75ZM18.75 17.25C18.4534 17.25 18.1633 17.162 17.9167 16.9972C17.67 16.8324 17.4777 16.5981 17.3642 16.324C17.2507 16.0499 17.221 15.7483 17.2788 15.4574C17.3367 15.1664 17.4796 14.8991 17.6894 14.6893C17.8991 14.4796 18.1664 14.3367 18.4574 14.2788C18.7484 14.2209 19.05 14.2506 19.324 14.3642C19.5981 14.4777 19.8324 14.67 19.9972 14.9166C20.162 15.1633 20.25 15.4533 20.25 15.75C20.25 16.1478 20.092 16.5294 19.8107 16.8107C19.5294 17.092 19.1478 17.25 18.75 17.25Z" fill="currentColor"/>
</svg>
