<svg xmlns="http://www.w3.org/2000/svg" viewBox="0 0 20 20">
  <path d="M17.7586 5.73214 14.268 2.24073c-.1161-.1161-.2539-.2082-.4056-.27104-.1517-.06284-.3142-.09518-.4784-.09518s-.3268.03234-.4784.09518c-.1517.06284-.2895.15494-.4056.27104L2.86641 11.8751c-.11658.1157-.209.2533-.2719.405-.06291.1517-.09503.3144-.0945.4786v3.4914c0 .3315.13169.6495.36611.8839.23442.2344.55237.3661.88389.3661h3.4914c.16422.0005.32689-.0316.47858-.0945s.28936-.1553.40502-.2719l9.63359-9.6336c.1161-.11607.2082-.25388.271-.40556.0629-.15168.0952-.31424.0952-.47842s-.0323-.32675-.0952-.47842c-.0628-.15168-.1549-.28949-.271-.40556Zm-13.75 6.76796 6.6164-6.6164 1.3039 1.3039-6.61639 6.6156-1.30391-1.3031Zm-.25859 1.5086 2.2414 2.2414h-2.2414v-2.2414Zm3.75 1.9828L6.1961 14.6876l6.6164-6.6164 1.3039 1.3039-6.61639 6.6164ZM15 8.49151 11.5086 5.0001l1.875-1.875 3.4914 3.49063L15 8.49151Z"/>
</svg>