<svg width="24" height="24" viewBox="0 0 24 24" fill="none" xmlns="http://www.w3.org/2000/svg">
  <path d="M12 2.25C10.0716 2.25 8.18657 2.82183 6.58319 3.89317C4.97982 4.96452 3.73013 6.48726 2.99218 8.26884C2.25422 10.0504 2.06114 12.0108 2.43735 13.9021C2.81355 15.7934 3.74215 17.5307 5.10571 18.8943C6.46928 20.2579 8.20656 21.1865 10.0979 21.5627C11.9892 21.9389 13.9496 21.7458 15.7312 21.0078C17.5127 20.2699 19.0355 19.0202 20.1068 17.4168C21.1782 15.8134 21.75 13.9284 21.75 12C21.7473 9.41498 20.7192 6.93661 18.8913 5.10872C17.0634 3.28084 14.585 2.25273 12 2.25ZM18.7378 7.24406L12.75 10.7006V3.78469C13.9389 3.89369 15.0901 4.25945 16.1239 4.85672C17.1577 5.45398 18.0495 6.26851 18.7378 7.24406ZM11.25 3.78469V11.5659L4.51032 15.4566C3.95704 14.2574 3.69975 12.9428 3.76008 11.6235C3.82041 10.3042 4.19659 9.01868 4.85701 7.87497C5.51742 6.73126 6.44276 5.76281 7.55523 5.05104C8.66771 4.33927 9.93481 3.90498 11.25 3.78469ZM12 20.25C10.6792 20.2495 9.37792 19.9318 8.20543 19.3238C7.03295 18.7158 6.02358 17.8351 5.26219 16.7559L19.4897 8.5425C20.0699 9.79946 20.3244 11.1822 20.2299 12.5634C20.1354 13.9445 19.6948 15.2797 18.9487 16.4459C18.2027 17.6121 17.1752 18.5717 15.9608 19.2365C14.7465 19.9013 13.3844 20.2499 12 20.25Z" fill="currentColor"/>
</svg>
