<svg width="16" height="16" viewBox="0 0 16 16" fill="none" xmlns="http://www.w3.org/2000/svg">
<rect width="16" height="16" fill="white" fill-opacity="0.01"/>
<path fill-rule="evenodd" clip-rule="evenodd" d="M12.6438 1.22289C12.4355 1.01461 12.0978 1.01461 11.8896 1.22289L3.96216 9.15026C3.8662 9.24622 3.78944 9.3596 3.73598 9.48433L2.17644 13.1232C2.09053 13.3237 2.13532 13.5563 2.28953 13.7105C2.44374 13.8647 2.67629 13.9095 2.87674 13.8236L6.51567 12.264C6.6404 12.2106 6.75378 12.1338 6.84974 12.0379L14.7771 4.11047C14.9854 3.90219 14.9854 3.5645 14.7771 3.35623L12.6438 1.22289ZM4.71641 9.90452L12.2666 2.35426L13.6457 3.73335L6.09549 11.2836L4.50049 11.9672L4.03283 11.4995L4.71641 9.90452Z" fill="white"/>
</svg>
