<svg xmlns="http://www.w3.org/2000/svg" width="16" height="16"><g><path fill="#787878" d="M6.722 11.291l.451-.17-.165-.32c-.536-1.039-.685-1.934-.761-2.672-.082-.808-.144-2.831 1.053-4.189.244-.278.493-.493.743-.675.012-.826-.135-1.766-.646-2.345-.618-.7-1.4-.787-1.4-.787l-.497-.055-.498.055s-.783.087-1.398.787c-.617.702-.717 1.948-.625 2.855.06.583.17 1.263.574 2.05.274.533.341.617.355 1.01.022.595.027 1.153-.671 1.538-.697.383-1.564.508-2.403 1.088-.596.41-.709 1.033-.78 1.459l-.051.41c-.029.273.173.498.448.498h5.012c.457-.24.89-.402 1.259-.537zM5.064 15.096c.07-.427.184-1.05.78-1.46.838-.581 1.708-.706 2.404-1.089.699-.385.693-.943.672-1.537-.014-.393-.08-.477-.354-1.01-.406-.787-.515-1.467-.576-2.049-.093-.909.008-2.155.625-2.856.615-.7 1.398-.787 1.398-.787l.492-.055h.002l.496.055s.781.087 1.396.787c.615.701.72 1.947.623 2.855-.062.583-.172 1.262-.571 2.049-.271.533-.341.617-.354 1.01-.021.595-.062 1.22.637 1.604.697.385 1.604.527 2.438 1.104.923.641.822 1.783.822 1.783-.022.275-.269.5-.542.5h-9.991c-.275 0-.477-.223-.448-.496l.051-.408z"/></g></svg>
