<svg height="53.531" viewBox="0 0 47.411 53.531" width="47.411" xmlns="http://www.w3.org/2000/svg"><g fill="#ccc"><circle cx="22.308" cy="41.593" r="8.449"/><path d="m32.813 31.532c2.503 2.614 4.044 6.156 4.044 10.06 0 4.945-2.47 9.31-6.24 11.94 6.97-2.15 12.733-7.388 15.314-13.73 3.57-8.776.247-15.38-5.33-21.37.17.776.264 1.58.264 2.406 0 5.078-3.405 9.36-8.05 10.694z"/><circle cx="29.735" cy="20.838" r="6.463"/><path d="m11.178 50.96c-2.134-2.53-3.42-5.798-3.42-9.368 0-7.448 5.598-13.584 12.814-14.442-1.238-1.794-1.965-3.968-1.965-6.312 0-6.145 4.982-11.128 11.13-11.128.507 0 1.006.037 1.495.103-3.642-3.143-7.275-6.33-10.142-9.813 1.463 15.257-13.898 9.713-19.576 23.773-3.81 9.433-.376 21.095 9.663 27.188z"/></g></svg>