<svg height="44.262" viewBox="0 0 38.847 44.262" width="38.847" xmlns="http://www.w3.org/2000/svg"><g fill="#ccc"><path d="m19.745 0c5.74.123 12.272.953 16.9 4.668 1.865 1.498 2.786 3.91 1.597 6.126-1.255 2.34-4.13 3.733-6.518 4.6-5.63 2.04-12.113 2.38-18.014 1.573-2.92-.4-5.91-1.103-8.58-2.374-2.19-1.04-4.74-2.805-5.093-5.403-.532-3.925 4.23-6.23 7.264-7.3 3.986-1.408 8.239-1.853 12.444-1.89 4.302.092-3.334.03 0 0z"/><path d="m6.76 17.5c3.702 1.427 7.65 1.972 11.6 2.09 4.058.12 8.107-.424 12.023-1.523 4.227-1.186 7.227-3.624 8.463-6.145v5.965c-.076.524-.197 1.028-.384 1.5-.718 1.81-2.594 2.974-4.235 3.848-4.293 2.286-9.5 3.04-14.31 3.083-4.803.043-9.902-.542-14.3-2.575-1.906-.88-3.9-2.02-4.988-3.887-.66-1.135-.626-2.21-.626-3.486v-4.38c1.232 2.64 3.94 4.422 6.757 5.51z"/><path d="m6.76 26.436c3.702 1.428 7.65 1.973 11.6 2.09 4.058.12 8.107-.423 12.023-1.522 4.227-1.186 7.227-3.624 8.463-6.145v5.964c-.076.524-.197 1.028-.384 1.5-.718 1.81-2.594 2.974-4.235 3.848-4.293 2.286-9.5 3.04-14.31 3.083-4.803.043-9.902-.542-14.3-2.575-1.906-.88-3.9-2.02-4.988-3.887-.66-1.135-.626-2.21-.626-3.486v-4.38c1.232 2.64 3.94 4.422 6.757 5.51z"/><path d="m6.76 35.374c3.702 1.428 7.65 1.973 11.6 2.09 4.058.12 8.107-.423 12.023-1.522 4.227-1.186 7.227-3.624 8.463-6.145v5.965c-.076.524-.197 1.028-.384 1.5-.718 1.81-2.594 2.974-4.235 3.848-4.293 2.286-9.5 3.04-14.31 3.083-4.803.043-9.902-.542-14.3-2.575-1.906-.88-3.9-2.02-4.988-3.887-.66-1.134-.626-2.21-.626-3.485v-4.38c1.232 2.64 3.94 4.422 6.757 5.51z"/></g></svg>