<svg viewBox="0 0 24 24" xmlns="http://www.w3.org/2000/svg">
<g fill="currentColor" stroke="currentColor" stroke-width="0.5" stroke-linecap="round" stroke-linejoin="round">
  <path d="M19.0403 0H5.88003C5.38142 0 4.90322 0.198081 4.55065 0.55065C4.19808 0.903219 4 1.38142 4 1.88003V22.5604C4.00009 22.7281 4.04506 22.8928 4.13026 23.0373C4.21546 23.1818 4.33778 23.3009 4.48454 23.3822C4.63128 23.4636 4.79711 23.5041 4.96481 23.4997C5.13251 23.4952 5.29597 23.446 5.43823 23.357L12.4602 18.9684L19.4832 23.357C19.6255 23.4457 19.7888 23.4947 19.9564 23.4989C20.1239 23.5032 20.2895 23.4626 20.436 23.3814C20.5827 23.3001 20.7049 23.1812 20.79 23.0368C20.8751 22.8924 20.9201 22.728 20.9203 22.5604V1.88003C20.9203 1.38142 20.7223 0.903219 20.3697 0.55065C20.0171 0.198081 19.5389 0 19.0403 0ZM19.0403 1.88003V15.2248L12.9572 11.4236C12.8078 11.3302 12.6351 11.2807 12.459 11.2807C12.2828 11.2807 12.1102 11.3302 11.9608 11.4236L5.88003 15.2235V1.88003H19.0403ZM12.9572 17.0637C12.8078 16.9703 12.6351 16.9208 12.459 16.9208C12.2828 16.9208 12.1102 16.9703 11.9608 17.0637L5.88003 20.8649V17.4408L12.4602 13.3283L19.0403 17.4408V20.8649L12.9572 17.0637Z" />
</g>
</svg>
