<svg viewBox="0 0 24 24" xmlns="http://www.w3.org/2000/svg">
  <g fill="none" stroke="currentColor" stroke-width="0.5" stroke-linecap="round" stroke-linejoin="round">
    <path d="M12 0.25C9.67603 0.25 7.40433 0.939127 5.47205 2.23023C3.53978 3.52134 2.03375 5.35643 1.14442 7.50346C0.255087 9.65046 0.022401 12.013 0.475782 14.2922C0.929151 16.5715 2.04823 18.6652 3.6915 20.3085C5.33477 21.9518 7.42842 23.0709 9.70773 23.5242C11.987 23.9776 14.3495 23.7449 16.4966 22.8555C18.6435 21.9662 20.4787 20.4602 21.7697 18.5279C23.0609 16.5956 23.75 14.3239 23.75 12C23.7467 8.8847 22.5078 5.89795 20.3049 3.69512C18.102 1.49229 15.1153 0.25329 12 0.25ZM12 21.9423C10.0336 21.9423 8.11137 21.3591 6.47636 20.2667C4.84135 19.1742 3.56702 17.6214 2.81451 15.8047C2.06201 13.988 1.86511 11.9889 2.24874 10.0603C2.63236 8.13172 3.57928 6.36017 4.96973 4.96972C6.36019 3.57927 8.13174 2.63235 10.0603 2.24873C11.989 1.8651 13.9881 2.06199 15.8047 2.8145C17.6214 3.56701 19.1742 4.84134 20.2667 6.47634C21.3593 8.11134 21.9423 10.0336 21.9423 12C21.9393 14.6359 20.8908 17.1631 19.027 19.0269C17.1631 20.8908 14.636 21.9393 12 21.9423ZM17.4231 12C17.4231 12.2397 17.3279 12.4696 17.1583 12.6391C16.9889 12.8086 16.7589 12.9038 16.5192 12.9038H12.9038V16.5192C12.9038 16.7589 12.8086 16.9888 12.6391 17.1583C12.4696 17.3278 12.2397 17.423 12 17.423C11.7603 17.423 11.5304 17.3278 11.3609 17.1583C11.1914 16.9888 11.0962 16.7589 11.0962 16.5192V12.9038H7.48077C7.24106 12.9038 7.01117 12.8086 6.84165 12.6391C6.67215 12.4696 6.57692 12.2397 6.57692 12C6.57692 11.7603 6.67215 11.5303 6.84165 11.3609C7.01117 11.1913 7.24106 11.0961 7.48077 11.0961H11.0962V7.48075C11.0962 7.24104 11.1914 7.01114 11.3609 6.84164C11.5304 6.67214 11.7603 6.57691 12 6.57691C12.2397 6.57691 12.4696 6.67214 12.6391 6.84164C12.8086 7.01114 12.9038 7.24104 12.9038 7.48075V11.0961H16.5192C16.7589 11.0961 16.9889 11.1913 17.1583 11.3609C17.3279 11.5303 17.4231 11.7603 17.4231 12Z" fill="currentColor" />
  </g>
</svg>
