<svg viewBox="0 0 24 24" xmlns="http://www.w3.org/2000/svg">
  <g fill="currentColor" stroke="currentColor" stroke-width="0.5" stroke-linecap="round" stroke-linejoin="round">
    <path d="M21.7917 0.25H6.125C5.60562 0.25 5.1075 0.45633 4.74025 0.823583C4.373 1.19084 4.16667 1.68896 4.16667 2.20833V4.16667H2.20833C1.68896 4.16667 1.19084 4.373 0.823583 4.74025C0.45633 5.1075 0.25 5.60562 0.25 6.125V21.7917C0.25 22.311 0.45633 22.8092 0.823583 23.1765C1.19084 23.5437 1.68896 23.75 2.20833 23.75H17.875C18.3944 23.75 18.8925 23.5437 19.2598 23.1765C19.6271 22.8092 19.8333 22.311 19.8333 21.7917V19.8333H21.7917C22.311 19.8333 22.8092 19.6271 23.1765 19.2598C23.5437 18.8925 23.75 18.3944 23.75 17.875V2.20833C23.75 1.68896 23.5437 1.19084 23.1765 0.823583C22.8092 0.45633 22.311 0.25 21.7917 0.25ZM6.125 2.20833H21.7917V10.7002L19.7477 8.65615C19.3804 8.28917 18.8825 8.08302 18.3634 8.08302C17.8442 8.08302 17.3462 8.28917 16.979 8.65615L7.76144 17.875H6.125V2.20833ZM17.875 21.7917H2.20833V6.125H4.16667V17.875C4.16667 18.3944 4.373 18.8925 4.74025 19.2598C5.1075 19.6271 5.60562 19.8333 6.125 19.8333H17.875V21.7917ZM21.7917 17.875H10.5313L18.3646 10.0417L21.7917 13.4688V17.875ZM11.0208 10.0417C11.6018 10.0417 12.1697 9.86933 12.6528 9.5466C13.1358 9.22383 13.5124 8.76506 13.7347 8.2283C13.957 7.69154 14.0153 7.1009 13.9019 6.53109C13.7886 5.96127 13.5088 5.43786 13.098 5.02704C12.6871 4.61622 12.1637 4.33645 11.594 4.22311C11.0241 4.10977 10.4335 4.16793 9.89675 4.39027C9.35994 4.61261 8.90117 4.98911 8.57839 5.47218C8.25562 5.95525 8.08333 6.52318 8.08333 7.10417C8.08333 7.88324 8.39282 8.6304 8.94371 9.18129C9.49464 9.73212 10.2418 10.0417 11.0208 10.0417ZM11.0208 6.125C11.2144 6.125 11.4038 6.18243 11.5649 6.29002C11.7258 6.39761 11.8513 6.55053 11.9255 6.72946C11.9996 6.90837 12.0189 7.10525 11.9812 7.2952C11.9435 7.48513 11.8501 7.6596 11.7132 7.79654C11.5762 7.93348 11.4018 8.02674 11.2118 8.06452C11.0219 8.1023 10.825 8.08292 10.6461 8.0088C10.4671 7.93468 10.3143 7.80918 10.2067 7.64817C10.0991 7.48714 10.0417 7.29783 10.0417 7.10417C10.0417 6.84448 10.1448 6.59542 10.3285 6.41179C10.5121 6.22816 10.7612 6.125 11.0208 6.125Z" />
  </g>
</svg>
