<svg viewBox="0 0 24 24" fill="none" xmlns="http://www.w3.org/2000/svg">
  <g transform="scale(1.1)" transform-origin="center center" fill="none" stroke="currentColor" stroke-width="0.5" stroke-linecap="round" stroke-linejoin="round">
    <path d="M10.9922 14.805C11.9974 14.1358 12.7606 13.1609 13.1688 12.0244C13.5771 10.8879 13.6088 9.65024 13.2592 8.49437C12.9096 7.3385 12.1974 6.32581 11.2278 5.60605C10.2581 4.88629 9.08262 4.49768 7.87505 4.49768C6.66747 4.49768 5.49196 4.88629 4.52233 5.60605C3.55271 6.32581 2.84045 7.3385 2.49088 8.49437C2.14132 9.65024 2.17301 10.8879 2.58126 12.0244C2.98952 13.1609 3.75267 14.1358 4.75786 14.805C2.93957 15.4751 1.38671 16.7152 0.330984 18.3403C0.275499 18.4227 0.236959 18.5154 0.217604 18.6129C0.198249 18.7104 0.198466 18.8108 0.218241 18.9082C0.238017 19.0056 0.276957 19.0981 0.332798 19.1803C0.388639 19.2625 0.460266 19.3328 0.543518 19.3871C0.626769 19.4414 0.719983 19.4786 0.817742 19.4966C0.9155 19.5146 1.01585 19.5129 1.11297 19.4917C1.21008 19.4706 1.30202 19.4303 1.38344 19.3733C1.46486 19.3163 1.53413 19.2437 1.58723 19.1597C2.26822 18.1123 3.20007 17.2516 4.29814 16.6558C5.39622 16.0599 6.62574 15.7479 7.87505 15.7479C9.12435 15.7479 10.3539 16.0599 11.4519 16.6558C12.55 17.2516 13.4819 18.1123 14.1629 19.1597C14.2729 19.3231 14.4428 19.4368 14.6359 19.476C14.829 19.5152 15.0298 19.4768 15.1949 19.3692C15.3599 19.2615 15.476 19.0932 15.5179 18.9007C15.5599 18.7082 15.5244 18.5068 15.4191 18.3403C14.3634 16.7152 12.8105 15.4751 10.9922 14.805ZM3.75005 10.125C3.75005 9.30912 3.99197 8.51159 4.44523 7.83324C4.8985 7.15488 5.54273 6.62617 6.29648 6.31396C7.05022 6.00175 7.87962 5.92006 8.67979 6.07922C9.47997 6.23839 10.215 6.63126 10.7919 7.20815C11.3688 7.78504 11.7616 8.52004 11.9208 9.32022C12.0799 10.1204 11.9983 10.9498 11.686 11.7035C11.3738 12.4573 10.8451 13.1015 10.1668 13.5548C9.48842 14.008 8.69089 14.25 7.87505 14.25C6.78141 14.2487 5.73292 13.8137 4.9596 13.0404C4.18628 12.2671 3.75129 11.2186 3.75005 10.125ZM23.4507 19.3781C23.2841 19.4867 23.0812 19.5247 22.8865 19.4838C22.6919 19.4428 22.5215 19.3262 22.4129 19.1597C21.7327 18.1116 20.801 17.2506 19.7027 16.655C18.6044 16.0594 17.3744 15.7483 16.125 15.75C15.9261 15.75 15.7354 15.6709 15.5947 15.5303C15.4541 15.3896 15.375 15.1989 15.375 15C15.375 14.8011 15.4541 14.6103 15.5947 14.4696C15.7354 14.329 15.9261 14.25 16.125 14.25C16.7325 14.2494 17.3324 14.1147 17.8817 13.8554C18.4311 13.5961 18.9164 13.2187 19.303 12.7501C19.6896 12.2815 19.9679 11.7334 20.1181 11.1448C20.2683 10.5561 20.2866 9.94162 20.1718 9.3451C20.0569 8.74859 19.8117 8.1848 19.4537 7.69402C19.0958 7.20325 18.6338 6.7976 18.1008 6.50606C17.5679 6.21452 16.9771 6.04429 16.3708 6.00752C15.7644 5.97076 15.1574 6.06838 14.5932 6.2934C14.5012 6.33317 14.4021 6.3541 14.3019 6.35495C14.2017 6.35579 14.1023 6.33654 14.0096 6.29833C13.917 6.26012 13.8329 6.20373 13.7624 6.13248C13.6919 6.06123 13.6364 5.97658 13.5992 5.88352C13.562 5.79046 13.5438 5.69088 13.5457 5.59067C13.5476 5.49046 13.5696 5.39165 13.6103 5.30007C13.6511 5.2085 13.7098 5.12602 13.7829 5.05752C13.8561 4.98901 13.9422 4.93586 14.0363 4.90121C15.3277 4.3862 16.764 4.36767 18.0682 4.84919C19.3725 5.33071 20.4522 6.27817 21.099 7.50879C21.7459 8.73941 21.9141 10.166 21.5713 11.5133C21.2284 12.8607 20.3987 14.0333 19.2422 14.805C21.0605 15.4751 22.6134 16.7152 23.6691 18.3403C23.7777 18.5069 23.8158 18.7098 23.7748 18.9044C23.7338 19.099 23.6172 19.2694 23.4507 19.3781Z" fill="currentColor"/>
  </g>
</svg>
