<svg xmlns="http://www.w3.org/2000/svg" width="66" height="33.447" viewBox="0 0 66 33.447">
  <g fill="#CCC">
    <path d="M49.5 12.255h-2.7l-1.473 7h2.4c1.59 0 2.773-.342 3.55-.94.78-.6 1.304-1.62 1.577-3.023.26-1.345.142-1.975-.357-2.528-.5-.553-1.498-.51-2.996-.51z"/>
    <path d="M33 0C14.775 0 0 7.488 0 16.724s14.775 16.724 33 16.724 33-7.488 33-16.724S51.225 0 33 0zm-9.328 19.982c-.787.737-1.662 1.376-2.625 1.69-.963.313-2.19.583-3.68.583H13.99l-.935 5H9.11l3.52-18h7.584c2.28 0 3.946.34 4.992 1.537 1.046 1.197 1.36 2.74.944 4.885-.172.884-.462 1.628-.87 2.36-.413.732-.947 1.338-1.608 1.945zm11.51 2.273l1.558-8.124c.177-.91.112-1.29-.196-1.62-.308-.33-.962-.255-1.963-.255h-3.126l-2.016 10h-3.913l3.52-18h3.912l-.935 5h3.486c2.193 0 3.706.124 4.54.888.832.765 1.08 1.99.748 3.703l-1.637 8.41h-3.977zm21.747-6.708c-.173.884-.463 1.692-.872 2.424-.41.734-.944 1.404-1.605 2.01-.787.738-1.662 1.377-2.625 1.69-.963.314-2.19.584-3.68.584h-3.377l-.934 5h-3.944l3.518-18h7.584c2.282 0 3.946.34 4.992 1.537 1.046 1.2 1.36 2.61.943 4.757z"/>
    <path d="M18.72 12.255h-2.703l-1.473 7h2.4c1.59 0 2.773-.342 3.552-.94.778-.6 1.303-1.62 1.576-3.023.26-1.345.142-1.975-.357-2.528-.5-.553-1.497-.51-2.996-.51z"/>
  </g>
</svg>
