<svg width="20" height="20" viewBox="0 0 20 20" xmlns="http://www.w3.org/2000/svg"><path fill-rule="evenodd" clip-rule="evenodd" d="M19.1873 4.86414L10.2509 6.86414V7.02335H10.2499V15.5091C9.70972 15.1961 9.01793 15.1048 8.34069 15.3136C7.12086 15.6896 6.41013 16.8967 6.75322 18.0096C7.09631 19.1226 8.3633 19.72 9.58313 19.344C10.6666 19.01 11.3484 18.0203 11.2469 17.0234H11.2499V9.80173L18.1803 8.25067V14.3868C17.6401 14.0739 16.9483 13.9825 16.2711 14.1913C15.0513 14.5674 14.3406 15.7744 14.6836 16.8875C15.0267 18.0004 16.2937 18.5978 17.5136 18.2218C18.597 17.8877 19.2788 16.8982 19.1773 15.9011H19.1803V8.02687L19.1873 8.0253V4.86414Z"/><path fill-rule="evenodd" clip-rule="evenodd" d="M13.5039 0.743652H0.386932V12.1603H13.5039V0.743652ZM12.3379 1.75842H1.55289V11.1454H1.65715L4.00622 8.86353L6.06254 10.861L9.24985 5.91309L11.3812 9.22179L11.7761 8.6676L12.3379 9.45621V1.75842ZM6.22048 4.50869C6.22048 5.58193 5.35045 6.45196 4.27722 6.45196C3.20398 6.45196 2.33395 5.58193 2.33395 4.50869C2.33395 3.43546 3.20398 2.56543 4.27722 2.56543C5.35045 2.56543 6.22048 3.43546 6.22048 4.50869Z"/></svg>
