<svg viewBox="0 0 24 24" xmlns="http://www.w3.org/2000/svg">
  <g fill="none" stroke="currentColor" stroke-width="2.25" stroke-linecap="round" stroke-linejoin="round">
    <path d="M23 12C23 18.0751 18.0751 23 12 23C5.92487 23 1 18.0751 1 12C1 5.92487 5.92487 1 12 1C18.0751 1 23 5.92487 23 12Z" />
    <path d="M9.09003 8.00002C9.32513 7.33169 9.78918 6.76813 10.4 6.40915C11.0108 6.05018 11.7289 5.91896 12.4272 6.03873C13.1255 6.15851 13.7588 6.52154 14.2151 7.06355C14.6714 7.60555 14.9211 8.29154 14.92 9.00002C14.92 11 11.92 12 11.92 12" />
    <path d="M12 17H12.01" />
  </g>
</svg>
