<svg xmlns="http://www.w3.org/2000/svg" width="16" height="16"><path fill="#bebebe" d="M15.176 9.041c.045-.327.076-.658.076-.998 0-.36-.035-.71-.086-1.056l-2.275-.293c-.115-.426-.283-.827-.498-1.201l1.396-1.808c-.416-.551-.906-1.039-1.459-1.452l-1.807 1.391c-.373-.215-.774-.383-1.2-.499l-.292-2.252c-.338-.048-.677-.081-1.029-.081s-.694.033-1.032.082l-.291 2.251c-.426.116-.826.284-1.2.499l-1.805-1.391c-.552.413-1.044.901-1.459 1.452l1.395 1.808c-.215.374-.383.774-.499 1.2l-2.276.294c-.05.346-.085.696-.085 1.056 0 .34.031.671.077.998l2.285.295c.115.426.284.826.499 1.2l-1.417 1.836c.411.55.896 1.038 1.443 1.452l1.842-1.42c.374.215.774.383 1.2.498l.298 2.311c.337.047.677.08 1.025.08s.688-.033 1.021-.08l.299-2.311c.426-.115.826-.283 1.201-.498l1.842 1.42c.547-.414 1.031-.902 1.443-1.452l-1.416-1.837c.215-.373.383-.773.498-1.199l2.286-.295zm-7.174 1.514c-1.406 0-2.543-1.137-2.543-2.541 0-1.402 1.137-2.541 2.543-2.541 1.402 0 2.541 1.138 2.541 2.541 0 1.404-1.139 2.541-2.541 2.541z"/></svg>
