<svg xmlns="http://www.w3.org/2000/svg" width="16" height="16"><path fill="#bebebe" d="M12.236 15c-.146 0-.283-.041-.406-.124l-3.828-2.583-3.83 2.583c-.123.083-.265.124-.406.124-.145 0-.289-.043-.413-.129-.246-.171-.362-.475-.292-.766l1.122-4.73-3.439-3.107c-.225-.2-.303-.519-.196-.8.106-.282.376-.468.678-.468h4.259l1.843-4.542c.109-.277.377-.458.674-.458.297 0 .564.181.674.458l1.84 4.542h4.262c.306 0 .57.186.683.468.104.281.024.601-.196.8l-3.439 3.107 1.121 4.73c.065.291-.047.595-.293.766-.129.086-.273.129-.418.129z"/></svg>
