<svg xmlns="http://www.w3.org/2000/svg" width="16" height="16"><path fill="#bebebe" d="M15.455 5.468c-.107-.282-.377-.468-.68-.468h-4.26l-1.841-4.542c-.108-.277-.375-.458-.672-.458s-.565.181-.674.458l-1.843 4.542h-4.259c-.301 0-.571.186-.678.468-.108.282-.029.6.196.8l3.438 3.107-1.122 4.73c-.07.291.046.595.292.766.124.086.269.129.413.129.142 0 .283-.041.406-.124l3.831-2.583 3.828 2.583c.123.083.264.124.406.124.145 0 .289-.043.412-.129.246-.171.356-.475.293-.766l-1.121-4.73 3.438-3.107c.224-.2.304-.519.197-.8zm-5.021 3.475l.982 4.146-3.414-2.304-3.416 2.304.982-4.146-2.98-2.693h3.739l1.675-4.128 1.672 4.128h3.74l-2.98 2.693z"/></svg>
