<svg viewBox="0 0 24 24" xmlns="http://www.w3.org/2000/svg">
  <path d="M12 4.92C12.6 5.616 13.272 6.264 13.92 6.912C16.32 9.312 18.48 11.472 18.48 14.688V14.736V14.784V15.096C18.384 18.624 15.48 21.48 11.952 21.48C11.904 21.48 11.856 21.48 11.832 21.48C10.104 21.432 8.44801 20.736 7.27201 19.488C6.09601 18.192 5.44801 16.536 5.49601 14.76V14.712C5.49601 11.496 7.75201 9.312 10.056 6.936C10.752 6.264 11.4 5.568 12 4.92ZM12 0C11.52 1.824 9.91201 3.432 8.20801 5.04C5.73601 7.56 2.88001 10.44 2.88001 14.688C2.76001 19.728 6.79201 23.904 11.784 24H12C16.92 24 21 20.04 21.12 15.096C21.12 14.976 21.12 14.832 21.12 14.712C21.12 10.416 18.24 7.584 15.768 5.064C14.088 3.432 12.48 1.824 12 0Z" />
</svg>
