<svg xmlns="http://www.w3.org/2000/svg" width="54" height="40"><title>Cake</title><path fill="#79BD8F" d="M51.814 21.368h-3.473c-.292-4.01-.292-12.136-.292-12.136A1.033 1.033 0 0 0 47.04 8.17s-7.676-1.164-18.554-1.26a4.337 4.337 0 0 0 1.245-1.757c.777-2.028-.028-4.22-1.792-4.899-1.765-.677-3.832.417-4.61 2.445-.603 1.577-.248 3.249.77 4.237C14.217 7.124 7.44 8.175 7.44 8.175a.817.817 0 0 0-.775.61.896.896 0 0 0-.07.35s0 7.779-.286 12.239H2.15c-1.184 0-2.143.96-2.143 2.143v15.297a1.1 1.1 0 0 0 1.1 1.1h51.311c.866 0 1.569-.702 1.569-1.568v-14.8a2.178 2.178 0 0 0-2.174-2.178zM25.942 3.698c.092-.253.249-.476.454-.648.195-.158.411-.232.538-.184.126.048.198.224.224.291a1.44 1.44 0 0 1-.046.988 1.521 1.521 0 0 1-.454.648c-.195.158-.41.232-.537.184-.203-.079-.43-.626-.179-1.28zm1.12 6.007a142.87 142.87 0 0 1 18.193 1.05c.01 1.804.03 7.649.124 10.531l-.013.015a.5.5 0 0 1-.189.07h-2.044c-.862-.461-.401-2.426-.477-3.567-.05-.753-.036-2.918-1.009-3.176-.917-.242-1.2 2.314-1.26 2.663-.26 1.525.504 4.078-1.345 4.082-1.654 0-1.184-1.579-1.29-3.025-.084-1.15.36-7.365-2.181-6.446-1.527.553-1.618 4.531-1.905 5.883-.187.886-.37 3.154-1.12 3.585h-2.007c-1.474-1.14-.212-10.84-3.524-10.067-2.074.484-1.345 6.282-1.569 7.71-.193 1.189-.312 2.017-1.369 2.353h-1.232c-.215-.15-.36-.408-.525-.747-.422-.877.243-5.728-1.385-5.45-.793.134-.874 2.508-.94 3.024-.154 1.232.225 3.099-.873 3.17h-.288c-1.916-.106-1.85-2.651-2.523-5.078-.353-1.27-1.055-2.562-1.868-2.637-1.215-.112-1.558 2.28-1.867 3.607-.285 1.233.176 3.413-.897 3.787-.918.32-1.86.32-2.34.32.056-3.058.079-9.192.087-10.643-.004.012 7.074-.949 17.642-1.014h-.005zM8.614 29.366c-.659-2.826-1.714-2.12-2.179.435-.25 1.376-.281 6.124-1.422 6.859-.405.255-.866.409-1.344.448h-.602a2.107 2.107 0 0 1-.238-.034s0-1.726-.02-4.01v-8.895H51.19v12.945s-1.161-.02-1.743-.312c-1.12-.56-2.859-3.02-3.446-4.917-.43-1.39-2.269-5.72-3.671-2.961-.667 1.312-1.002 10.002-3.236 7.645-.91-.961-.828-4.145-1.13-5.445-.27-1.165-.46-2.838-1.009-3.876-.66-1.238-2.016-1.965-2.871-.323-.896 1.714.326 9.4-1.67 10.19h-.337c-1.271-.585-.683-8.333-2.142-8.955-2.128-.91-.248 9.497-3.282 7.439-2.98-2.023-1.1-6.834-3.054-9.397-2.327-3.056-3.3 4.513-3.575 6.087-.234 1.344-.575 4.718-2.087 3.753-1.129-.72-1.764-4.908-2.066-6.187-.306-1.299-.544-4.93-2.504-4.399-1.331.359-1.405 1.643-1.496 2.866-.178 2.373-.2 4.981-.699 7.299-.419 1.948-1.58 1.391-1.85-.066l-.71-6.189z"/></svg>
