<svg xmlns="http://www.w3.org/2000/svg" width="55" height="43"><path d="M46.6 13.2c-2.3-4.3-8-8.1-15.2-9.5-1.3-.3-2.6-.4-3.9-.5C25.3 1.8 22.8.9 20.2.4 10.6-1.4 1.7 3.3.3 10.9c-1 5.4 2 10.7 7.2 14.1v15.5c0 1.3 1.1 2.4 2.4 2.4h30.9c1.3 0 2.4-1.1 2.4-2.4V29.3v.4c5.5.6 10.1-1.1 11.3-4.6 1.5-3.9-2-8.9-7.9-11.9zm-6.1 27.1H10.2V25.6h30.4v14.7zm11.6-16.1c-.6 1.8-3.2 2.9-6.7 2.9-.7 0-1.4 0-2.1-.1v-1.7c0-1.3-1.1-2.4-2.4-2.4h-3.6c.1-.9.3-1.7.6-2.6l-2.1-.7c-.4 1.1-.9 2.2-1.5 3.2h-5c-.5-1-.9-2.1-1.2-3.2l-1.2.4c0 .9-.1 1.8-.2 2.8h-5.5c-.2-1.1-.4-2.2-.4-3.4h-1.4c-.3 1.7-.6 2.6-1 3.4h-1.8c-.9-.6-1.7-1.4-2.4-2.2 0 0-3.1-2.8-4.1-9.9 0-.2-1 0-1 0-.1.3-.2.7-.2 1-.8 4 .7 8 3.7 11.1H9.9c-.2 0-.4 0-.6.1-1.4-.8-2.7-1.9-3.8-3.1-2.2-2.6-3.2-5.6-2.6-8.4.5-2.4 2-4.5 4.3-6.1 2.4-1.6 5.6-2.5 8.9-2.5 1.2 0 2.4.1 3.6.3 4 .8 7.6 2.7 10 5.5 1.5 1.7 2.4 3.7 2.7 5.6h2.7c-.3-2.8-1.6-5.4-3.6-7.7 4.2.9 7.9 2.7 10.5 5.1 1.3 1.3 3.5 3.8 3 6.6.8.5 1.6 1.1 2.4 1.5.3-.9.4-1.8.4-2.7 1.1.7 2 1.6 2.9 2.6 1.3 1.7 1.8 3.4 1.4 4.6z" fill="#e84265"/></svg>
