<svg id="Layer_1" data-name="Layer 1" xmlns="http://www.w3.org/2000/svg" viewBox="0 0 600 600">
  <defs>
    <style>
      .cls-1{fill:#008068;}
    </style>
  </defs>
  <path class="cls-1" d="M299.29 118.57c-120.29 0-217.86 97.61-217.86 217.86a215.64 215.64 0 0 0 48.81 137.22 13.8 13.8 0 0 0 19.76 2.12c5.66-5 7.07-14.15 2.12-19.81a187.92 187.92 0 0 1-20.51-31.83l45.27-18.39a14.12 14.12 0 1 0-10.61-26.17l-46 18.39c-5-14.15-8.49-29-9.2-44.56h48.1a14.15 14.15 0 0 0 0-28.29h-48.74a165.28 165.28 0 0 1 8.49-46l43.85 18.39c2.12.71 3.54 1.41 5.66 1.41a14 14 0 0 0 12.73-8.49 14.36 14.36 0 0 0-7.78-18.39l-43.85-18.39A204.84 204.84 0 0 1 155 214.77l32.54 32.54a13.68 13.68 0 0 0 19.81 0 13.68 13.68 0 0 0 0-19.81l-33.24-33.24A211.56 211.56 0 0 1 213 167.38l17.68 42.44c2.12 5.66 7.78 8.49 13.44 8.49 2.12 0 3.54 0 5.66-1.41a15.46 15.46 0 0 0 3.54-2.12c-1.41 12-2.83 30.42-2.83 58 0 33.24.71 74.27 3.54 86.29a49.32 49.32 0 0 0 48.1 38.2 54.6 54.6 0 0 0 10.61-1.41c26.88-5.66 43.85-31.83 38.2-58-2.12-12-18.39-49.51-31.83-79.22-12.73-28.29-21.22-45.27-27.59-55.17 2.12 2.12 5.66 2.83 8.49 2.83a14.19 14.19 0 0 0 14.15-14.15v-44.58a202.27 202.27 0 0 1 46.68 9.2l-17.68 42.44a14.36 14.36 0 0 0 7.78 18.39c2.12.71 3.54 1.41 5.66 1.41a14 14 0 0 0 12.73-8.49L387 168.08a182.4 182.4 0 0 1 38.2 26.17L392 227.5a13.68 13.68 0 0 0 0 19.81 13.68 13.68 0 0 0 19.81 0l32.54-32.54c9.9 12 19.1 25.46 25.46 39.61l-43.85 18.39a14.36 14.36 0 0 0-7.78 18.39c2.12 5.66 7.78 8.49 13.44 8.49 2.12 0 3.54 0 5.66-1.41l43.85-17.68a233 233 0 0 1 8.49 45.27h-48.1a14.15 14.15 0 0 0 0 28.29h48.1a199.17 199.17 0 0 1-9.9 45.27l-45.27-19.1a14.12 14.12 0 0 0-10.61 26.17l44.56 18.39a207.78 207.78 0 0 1-21.93 33.24 13.8 13.8 0 0 0 2.12 19.81c2.83 2.12 5.66 3.54 9.2 3.54a12.73 12.73 0 0 0 10.61-5 217.33 217.33 0 0 0 50.22-139.34c-.76-120.92-99.08-218.53-219.33-218.53zm24 226.35a20.66 20.66 0 0 1-16.27 24c-11.32 2.12-22.63-5-24.76-15.56-2.12-12-3.54-71.44-2.12-110.34 16.32 35.41 40.37 90.58 43.2 101.9zM271.71 188.6h-2.83c-5 .71-8.49 2.83-11.32 9.9l-17.68-42.44a196.33 196.33 0 0 1 46-9.2v46c0 1.41 0 2.83.71 3.54-7.1-7.8-10.59-7.8-14.88-7.8z"/>
  <circle class="cls-1" cx="300.24" cy="339.59" r="9.2" transform="rotate(-11.9 300.247 339.58)"/>
</svg>
