<svg xmlns="http://www.w3.org/2000/svg" width="58" height="46"><path fill="#FF6138" d="M57.289 17.156a2.877 2.877 0 0 0-2.774-2.782l-.398-.005c-.926 0-3.497.09-6.677.71-.57-4.31-1.722-7.37-1.818-7.615A2.87 2.87 0 0 0 44.05 5.85a2.856 2.856 0 0 0-2.25.024c-.21.094-2.524 1.14-5.41 3.178-2.53-4.828-5.457-7.94-5.671-8.166a2.861 2.861 0 0 0-4.14 0c-.215.225-3.145 3.341-5.676 8.175-2.88-2.033-5.196-3.095-5.405-3.188a2.856 2.856 0 0 0-2.25-.024 2.87 2.87 0 0 0-1.574 1.613c-.094.244-1.247 3.304-1.815 7.616-3.181-.622-5.752-.71-6.679-.71l-.399.005a2.878 2.878 0 0 0-2.774 2.782c-.017.538-.322 13.286 7.581 21.216 7.22 7.244 18.55 7.61 20.748 7.61l.294-.003c.006 0 .012.004.017.004.006 0 .012-.004.018-.004l.294.004c2.198 0 13.528-.367 20.748-7.61 7.904-7.93 7.6-20.678 7.583-21.217zm-14.336-8.65s1.148 3.015 1.672 7.247a30.146 30.146 0 0 0-5.096 1.93 31.547 31.547 0 0 0-1.894-5.977c2.926-2.126 5.318-3.2 5.318-3.2zm-28.61 0s2.391 1.068 5.32 3.195a31.58 31.58 0 0 0-1.9 5.999 30.24 30.24 0 0 0-5.094-1.942c.524-4.233 1.673-7.253 1.673-7.253zM9.612 36.34C2.496 29.199 2.87 17.247 2.87 17.247s.108-.003.308-.003c1.502 0 8.192.24 14.12 3.444a25.421 25.421 0 0 0-.108 2.303c0 8.847 4.785 16.32 7.527 19.88-4.107-.49-10.571-1.986-15.103-6.531zm19.098 6.7c-.057-.018-.11-.035-.181-.06-1.008-1.103-8.477-9.628-8.477-19.989 0-11.11 8.594-20.118 8.594-20.118s8.595 9.007 8.595 20.118c0 10.661-7.892 19.362-8.532 20.05zm18.971-6.7c-4.53 4.545-10.995 6.04-15.103 6.53 2.741-3.559 7.527-11.032 7.527-19.879 0-.785-.04-1.557-.11-2.317 5.928-3.202 12.621-3.43 14.121-3.43.2 0 .309.002.309.002s.373 11.953-6.744 19.094z"/></svg>
