<svg xmlns="http://www.w3.org/2000/svg" width="42" height="46"><g fill="#00A388"><path d="M15.175 36.263l4.786 2.394a1.45 1.45 0 0 0 1.297 0l4.786-2.394a1.45 1.45 0 0 0 .802-1.298v-7.181c0-.801-.65-1.45-1.45-1.45h-9.573c-.8 0-1.45.649-1.45 1.45v7.181c0 .55.31 1.052.802 1.298zm2.099-7.029h6.671v4.835l-3.335 1.668-3.336-1.668v-4.835z"/><path d="M39.753 19.151h-8.166V8.632a1.451 1.451 0 0 0-1.45-1.451h-2.1C27.9 3.198 24.622 0 20.61 0c-4.014 0-7.292 3.199-7.427 7.18h-2.1c-.801.001-1.45.65-1.45 1.452V19.15H1.464a1.45 1.45 0 0 0 0 2.902h3.261L3.722 42.149a3.63 3.63 0 0 0 .997 2.71 3.627 3.627 0 0 0 2.656 1.132h26.468a3.628 3.628 0 0 0 2.656-1.132 3.63 3.63 0 0 0 .997-2.71l-1.004-20.097h3.261a1.45 1.45 0 0 0 0-2.902v.001zM20.61 2.901a4.539 4.539 0 0 1 4.524 4.28h-9.049a4.538 4.538 0 0 1 4.525-4.28zm-8.077 7.182h16.153v9.067H12.533v-9.067zM34.6 42.294a.755.755 0 0 1-.202.565.755.755 0 0 1-.554.23H7.375a.753.753 0 0 1-.554-.23.756.756 0 0 1-.202-.565L7.63 22.053h25.958L34.6 42.294z"/></g></svg>
