<svg id="Layer_1" data-name="Layer 1" xmlns="http://www.w3.org/2000/svg" viewBox="0 0 600 600"><defs><style>.cls-1{fill:#008068;}</style></defs><path class="cls-1" d="M307.75 141c-85.1 0-154.84 73.58-154.84 163.8S222 468.6 307.75 468.6c85.1 0 154.2-73.58 154.2-163.8 0-90.86-69.11-163.8-154.2-163.8zm0 301.36c-71 0-129.25-62.06-129.25-138.2S236.09 166 307.75 166c71 0 128.61 62.06 128.61 138.2s-57.59 138.16-128.61 138.16z"/><path class="cls-1" d="M307.75 187.71c-60.14 0-109.41 52.47-109.41 116.45s49.26 116.45 109.41 116.45 109.41-52.47 109.41-116.45-49.27-116.45-109.41-116.45zm0 207.31c-46.07 0-83.82-40.95-83.82-90.86s37.75-90.86 83.82-90.86 83.82 40.95 83.82 90.86c0 50.55-37.76 90.84-83.82 90.84zM549 297.76l.64-160a13.36 13.36 0 0 0-5.12-10.24q-4.8-3.84-11.52-1.92c-1.92.64-46.07 14.08-46.07 92.78 0 37.11 2.56 64.62 6.4 79.34a23.65 23.65 0 0 0-3.84 13.44v139.52c0 13.44 10.88 24.31 23.67 24.31h14.72c13.44 0 23.67-10.88 23.67-24.31V310.56c1.25-4.48-.03-8.96-2.55-12.8zM524 166l-.64 119.65h-5.76c-1.92-8.32-4.48-28.15-4.48-67.82.01-25 5.13-41.64 10.88-51.83zm3.2 283.45h-10.87V311.84h10.88zm-400.53-323.8a12.83 12.83 0 0 0-12.8 12.8v46.71h-7v-46.72a12.8 12.8 0 0 0-25.59 0v46.71h-7.71v-46.71a12.8 12.8 0 0 0-25.59 0v59.5a3.85 3.85 0 0 0 .64 2.56v.64c0 .64.64 1.28.64 1.92v.64l20.47 34.55a25.13 25.13 0 0 0-7 17.92v194.51c0 13.44 10.88 24.31 23.67 24.31h14.72c13.44 0 23.67-10.88 23.67-24.31V255.53a25.66 25.66 0 0 0-7.68-17.92l19.83-33.27v-.64a2.35 2.35 0 0 0 .64-1.92v-.64c0-.64.64-1.92.64-2.56v-60.14c1.25-7.04-4.51-12.79-11.55-12.79zm-23 85.1L93.4 228l-10.23-17.26zM88.28 449.4v-190c1.92.64 3.2 1.28 5.12 1.28a18.68 18.68 0 0 0 5.76-1.28v190z"/></svg>
