<svg id="Layer_1" data-name="Layer 1" xmlns="http://www.w3.org/2000/svg" viewBox="0 0 600 600"><defs><style>.cls-1{fill:#008068;}</style></defs><path class="cls-1" d="M530.54 77.22A45.8 45.8 0 0 0 498 63.52a35 35 0 0 0-7 .62l-3.4.72L319 233.5c-41.06 41.06-57.95 51.2-63.48 53.67-1.29.1-2.57.21-3.84.35-48.87 5.25-110.46 39.85-139.5 68.89-44.95 44.95-50.31 112.73-11.94 151.09 16.57 16.57 39.53 25.7 64.64 25.7 31 0 62.52-13.72 86.44-37.64 29-29 63.64-90.64 68.89-139.51.14-1.27.25-2.55.35-3.84 2.47-5.53 12.61-22.42 53.68-63.48l169.1-169.1.44-4.11c.13-.92 2.29-22.78-13.24-38.3zM353.53 268c-32.89 32.89-53 57.19-59.71 72.24l-2.09 4.68-.38 5.11c-.07 1-.16 2-.27 2.92-4.42 41.15-34.84 96.25-60.47 121.88-18.46 18.46-42.41 29.05-65.71 29.05-17.28 0-32.88-6.08-43.91-17.11-12.39-12.39-18.34-30.16-16.77-50 1.71-21.62 11.91-42.78 28.72-59.59 25.63-25.63 80.73-56 121.9-60.47 1-.1 1.93-.19 2.91-.27l5.1-.38 4.67-2.09c15-6.73 39.36-26.82 72.25-59.71L500.89 93.1a16.81 16.81 0 0 1 8.92 4.9 17.56 17.56 0 0 1 4.41 9.37z"/><path class="cls-1" d="M162.92 473.79c.82-3.72 1.74-7.41 2.52-11.13-6.23-.26-11.2-2.18-14.77-5.75-4.37-4.37-6.38-11.27-5.66-19.43.89-10 5.54-20.12 13.17-28.75-2.78-2.58-5.56-5.16-8.06-8-1.88-2.13-3.63-4.55-5.55-6.77-11.26 12.13-18.15 26.85-19.47 41.75-1.26 14.16 2.8 26.71 11.44 35.35 7.79 7.79 17.26 10.61 25.12 11.4a84.11 84.11 0 0 1 1.26-8.67z"/></svg>
