<svg id="Layer_1" data-name="Layer 1" xmlns="http://www.w3.org/2000/svg" viewBox="0 0 600 600"><defs><style>.cls-1{fill:none;}.cls-2{fill:#ff6138;}</style></defs><path class="cls-1" d="M299.32 388.92c-1.35 2.7-2 4.73-2.7 6.08-3.38 7.43-5.4 12.83-7.43 16.88h20.94c-2-3.38-4.05-8.1-6.75-14.18-1.38-3.38-2.7-6.08-4.06-8.78zM196.67 276.81a13.51 13.51 0 0 1 27 0v32.42h33.09v-32.42a13.51 13.51 0 1 1 27 0v32.42h32.42v-32.42a13.51 13.51 0 1 1 27 0v32.42h32.42v-32.42a13.51 13.51 0 0 1 27 0v32.42h33.09C424.26 212.66 352 118.11 299.32 118.11c-51.33 0-124.26 95.9-136.42 191.12h33.77z"/><path class="cls-1" d="M388.47 336.24H160.88c.68 110.75 71.59 150.6 138.44 150.6s137.77-39.17 137.09-150.6zm-47.95 93.2c-4.73 9.45-12.83 9.45-39.17 9.45h-8.1c-20.26 0-30.39 0-34.44-10.13-2.7-6.75-2-10.13 13.51-44.57 13.51-30.39 16.88-36.47 27-36.47s13.51 6.08 29.71 38.49c13.52 29.05 14.87 35.79 11.49 43.23z"/><path class="cls-2" d="M299.32 91.1c-75.64 0-164.78 132.37-164.78 243.8 0 108.73 64.83 179 165.46 179s165.46-70.23 165.46-179C464.78 220.76 377 91.1 299.32 91.1zm0 27c52.68 0 124.94 94.55 136.42 191.12h-33.09v-32.41a13.51 13.51 0 0 0-27 0v32.42h-32.43v-32.42a13.51 13.51 0 1 0-27 0v32.42h-32.43v-32.42a13.51 13.51 0 1 0-27 0v32.42h-33.1v-32.42a13.51 13.51 0 0 0-27 0v32.42h-33.78C175.06 214 248 118.11 299.32 118.11zm0 368.73c-66.86 0-137.77-39.84-138.44-150.6h275.54c.67 111.44-70.24 150.61-137.1 150.61z"/><path class="cls-2" d="M299.32 347.72c-10.13 0-13.51 6.08-27 36.47-15.54 34.44-16.22 37.81-13.52 44.57 4.05 10.13 14.18 10.13 34.44 10.13h8.1c26.34 0 34.44 0 39.17-9.45 3.38-7.43 2-14.18-11.48-43.22-16.2-32.42-19.58-38.5-29.71-38.5zm1.35 64.16h-11.48c2-4.05 4.05-9.45 7.43-16.88.68-1.35 1.35-3.38 2.7-6.08 1.35 2.7 2.7 5.4 4.05 8.78 2.7 6.08 4.73 10.81 6.75 14.18z"/></svg>
