<svg id="Layer_1" data-name="Layer 1" xmlns="http://www.w3.org/2000/svg" viewBox="0 0 600 600">
  <defs>
    <style>
      .cls-1{fill:none;}.cls-2{fill:#ff6138;}
    </style>
  </defs>
  <path class="cls-1" d="M138.46 352.44c36.32-36.32 132-110.9 193-141.23-19.77 1.83-47.76 9.25-84.91 25.65-60.13 26.54-115.82 64.1-137.69 86a107.32 107.32 0 0 0-24 114.92c7.14-26.62 25.88-57.62 53.6-85.34zm92.35 92.35c-27.72 27.72-58.72 46.43-85.32 53.57a107.32 107.32 0 0 0 114.92-24c21.87-21.87 59.44-77.57 86-137.69 16.39-37.14 23.82-65.13 25.65-84.91-30.35 61.02-104.93 156.71-141.25 193.03z"/>
  <path class="cls-1" d="M307.73 312.67C324.9 288 339 265.42 348.49 247.35a196.46 196.46 0 0 0 10.65-23.24 196.62 196.62 0 0 0-23.24 10.65c-18.06 9.49-40.65 23.59-65.32 40.76-49 34.16-95.41 72.73-115.86 93.17-45.55 45.55-57.77 93.79-45.86 105.7 5.61 5.61 19.45 5.66 36.11.13 22.44-7.45 47.81-24.21 69.59-46 20.44-20.43 59.01-66.8 93.17-115.85zm65.064-120.5L482 82.963l18.286 18.285L391.08 210.454z"/>
  <path class="cls-2" d="M513.16 81.6l-10.39-10.38a29.38 29.38 0 0 0-41.55 0L344.59 187.86c-74.44-2.51-210 76.7-252 118.72a130.16 130.16 0 0 0 184.08 184.07c42-42 121.23-177.55 118.72-252L513.16 120.9a27.78 27.78 0 0 0 0-39.3zm-404.3 392.79c-11.91-11.91.3-60.14 45.86-105.7 20.45-20.45 66.81-59 115.86-93.17 24.67-17.18 47.26-31.27 65.32-40.76a196.62 196.62 0 0 1 23.24-10.65 196.46 196.46 0 0 1-10.65 23.24C339 265.42 324.9 288 307.73 312.67c-34.16 49-72.73 95.41-93.17 115.86-21.78 21.78-47.14 38.54-69.59 46-16.67 5.52-30.5 5.47-36.11-.14zm0-151.55c21.87-21.87 77.56-59.44 137.69-86 37.14-16.39 65.13-23.82 84.91-25.65-61 30.33-156.68 104.91-193 141.23-27.72 27.74-46.46 58.74-53.57 85.34a107.32 107.32 0 0 1 23.97-114.92zm151.55 151.55a107.32 107.32 0 0 1-114.92 24c26.6-7.15 57.6-25.85 85.32-53.57 36.32-36.32 110.9-132 141.23-193-1.83 19.77-9.25 47.76-25.65 84.91-26.54 60.1-64.1 115.79-85.98 137.66zm130.67-263.93l-18.29-18.29L482 83l18.29 18.29z"/>
</svg>
