<?xml version="1.0" encoding="UTF-8" standalone="no"?>
<svg width="205px" height="60px" viewBox="0 0 711 206" version="1.1" xmlns="http://www.w3.org/2000/svg" xmlns:xlink="http://www.w3.org/1999/xlink">
    <title>Umami logo</title>
    <defs></defs>
    <g id="Styleguide" stroke="none" stroke-width="1" fill="none" fill-rule="evenodd">
        <g id="Design-Styleguide:-v1" transform="translate(-88.000000, -8204.000000)" fill="#FF6138">
            <g id="umami-logo" transform="translate(88.000000, 8204.000000)">
                <path d="M143.424795,85.9083818 C129.642125,110.825795 109.76532,124.600688 92.9001511,124.600688 C78.7277405,124.600688 66.6103295,115.261166 61.5082617,95.2479041 C55.6267114,120.489856 40.8519734,129 28.8408554,129 C13.7826692,129 0,103.036849 0,81.7614897 C0,67.3375171 6.37758474,55.2934999 22.9593051,55.2934999 C25.5284674,55.3253524 28.0896912,55.5908482 30.6124068,56.0868184 C29.8290884,62.0649952 29.4031324,68.0860615 29.3368898,74.1167842 C29.3368898,95.3921438 33.4114578,115.405406 43.1195591,115.405406 C49.4971438,115.405406 56.9022283,99.3226763 58.6737796,74.6576832 L58.6737796,71.05169 C58.6737796,59.3682722 71.9249835,53.0217242 81.8811019,53.0217242 C84.9450064,52.8527293 87.983069,53.6730528 90.5617033,55.3656198 C89.7792503,61.3438869 89.3532981,67.3648997 89.2861864,73.3955856 C89.2861864,94.6709452 95.9117883,111.294574 107.639458,111.294574 C115.540577,111.294574 125.99273,103.758048 138.251865,85.3314229 C141.492128,80.0722839 144.39182,74.603601 146.932466,68.960214 L151.786517,70.2583715 C149.554362,75.0904023 146.649018,80.4633321 143.424795,85.9083818 Z" id="Shape" fill-rule="nonzero"></path>
                <path d="M205.435445,131 C195.417404,131 188.251474,104.798958 186.968024,81.9496309 C180.550773,99.3208858 173.883963,122.963092 169.498842,128.801563 C167.044875,129.781581 164.43629,130.306542 161.798141,130.351281 C145.362849,130.351281 133.811798,89.6261398 133.811798,76.2913591 C133.811798,62.9565784 141.512499,48 159.73036,48 C163.64755,48.0215167 167.54004,48.6287564 171.281411,49.8019974 C167.067214,67.3000205 164.913195,85.240158 164.864161,103.24924 C164.864161,106.636995 164.864161,119.070777 166.64673,119.070777 C166.89629,119.070777 167.14585,118.566218 167.680621,117.773339 C174.810899,104.294399 180.515122,82.4902301 186.932373,68.4706904 C187.716703,56.0008684 191.567054,49.0091185 197.984304,49.0091185 C202.333774,49.0091185 208.002346,52.1085541 214.918716,59.1363439 C212.850935,67.4255319 211.353577,94.9600521 211.353577,107.934433 C211.353577,112.331307 211.353577,114.926183 211.852696,114.926183 L214.419596,107.718194 C224.687197,78.6699957 225.721088,54.2709509 254.990881,54.2709509 C259.039821,54.2460584 263.052547,55.0426442 266.791492,56.6135475 C266.791492,59.4607034 266.541932,62.0555797 266.541932,64.6504559 C266.541932,96.2935302 275.276523,111.502388 287.576254,111.502388 C297.059524,111.502388 308.361016,102.672601 319.912067,85.5536257 C323.173185,80.2978145 326.090937,74.8321151 328.646658,69.1914894 L333.530899,70.4889275 C331.103505,75.9726419 328.266978,81.2617467 325.045867,86.3104646 C309.894026,109.664351 289.394475,124.981329 271.889641,124.981329 C254.384807,124.981329 239.268617,109.159792 236.452157,69.6960486 C226.434116,83.7155884 219.268186,117.953539 213.100495,126.026487 C210.319686,129.342162 207.752786,131 205.435445,131 Z" id="Shape" fill-rule="nonzero"></path>
                <path d="M375.677768,106.555325 C371.333029,98.7816097 369.03108,90.0635618 368.980918,81.1927062 C368.980918,68.0182346 374.925716,57.098218 388.820786,57.098218 C397.344051,57.098218 401.462435,63.1922918 401.462435,71.5408206 C400.714315,82.5219254 396.480446,92.9949527 389.357967,101.482801 C392.187117,109.091587 396.305502,114.657273 402.751668,114.657273 C413.495279,114.657273 427.820094,103.737257 441.679352,82.9539992 C444.95446,77.8165049 447.885334,72.4743134 450.453302,66.9614588 L455.359551,68.2295897 C452.921095,73.589375 450.071792,78.7589978 446.836286,83.6937422 C430.864117,107.78823 412.528354,122.442188 398.633284,122.442188 C390.889853,121.991804 383.774419,118.103488 379.294784,111.87443 C368.583414,120.944997 354.930757,125.954396 340.796844,126 C318.378509,126 308.566011,113.31869 308.566011,97.8193121 C308.566011,72.949855 333.634437,41 372.526309,41 C383.26992,41 389.537027,45.2975549 389.537027,49.1019478 C389.537027,51.8847907 386.170695,54.4210526 378.793416,55.1960215 C376.465633,47.5872358 370.556647,46.5656859 364.468601,46.5656859 C348.747117,46.5656859 339.185303,69.3920431 339.185303,88.4140075 C339.185303,101.870286 344.091552,113.283465 354.906787,113.283465 C362.404685,113.415351 369.72666,111.043616 375.677768,106.555325 L375.677768,106.555325 Z M387.280868,93.8740157 C392.375255,86.4125119 395.320564,77.7333841 395.804133,68.7579776 C395.804133,63.4388728 394.264216,59.8810609 390.6472,59.8810609 C387.030184,59.8810609 385.740951,67.7364277 385.740951,77.4939909 C385.757175,82.9915083 386.29671,88.4754541 387.352492,93.8740157 L387.280868,93.8740157 Z" id="Shape" fill-rule="nonzero"></path>
                <path d="M511.00567,131 C500.987629,131 493.821699,104.798958 492.538249,81.9496309 C486.120998,99.3208858 479.454188,122.963092 475.069066,128.801563 C472.615099,129.781581 470.006515,130.306542 467.368366,130.351281 C450.933074,130.351281 439.382022,89.6261398 439.382022,76.2913591 C439.382022,62.9565784 447.082723,48 465.300585,48 C469.217775,48.0215167 473.110265,48.6287564 476.851636,49.8019974 C472.637439,67.3000205 470.48342,85.240158 470.434385,103.24924 C470.434385,106.636995 470.434385,119.070777 472.216955,119.070777 C472.466515,119.070777 472.716075,118.566218 473.250845,117.773339 C480.381124,104.294399 486.085347,82.4902301 492.502597,68.4706904 C493.286928,56.0008684 497.137278,49.0091185 503.554529,49.0091185 C507.903999,49.0091185 513.57257,52.1085541 520.488941,59.1363439 C518.42116,67.4255319 516.923801,94.9600521 516.923801,107.934433 C516.923801,112.331307 516.923801,114.926183 517.422921,114.926183 L519.989821,107.718194 C530.257422,78.6699957 531.291312,54.2709509 560.561106,54.2709509 C564.610046,54.2460584 568.622772,55.0426442 572.361717,56.6135475 C572.361717,59.4607034 572.112157,62.0555797 572.112157,64.6504559 C572.112157,96.2935302 580.846748,111.502388 593.146479,111.502388 C602.629749,111.502388 613.93124,102.672601 625.482292,85.5536257 C628.74341,80.2978145 631.661162,74.8321151 634.216883,69.1914894 L639.101124,70.4889275 C636.67373,75.9726419 633.837203,81.2617467 630.616092,86.3104646 C615.46425,109.664351 594.9647,124.981329 577.459866,124.981329 C559.955032,124.981329 544.838842,109.159792 542.022382,69.6960486 C532.00434,83.7155884 524.83841,117.953539 518.67072,126.026487 C515.889911,129.342162 513.323011,131 511.00567,131 Z" id="Shape" fill-rule="nonzero"></path>
                <path d="M702.476315,85.6203886 C688.150794,111.168122 666.877395,126 649.364445,126 C631.851495,126 617.132022,110.67136 617.132022,75.6496761 C617.132022,64.1531963 630.526385,57.9081949 640.590063,57.9081949 C643.687069,57.7419039 646.757953,58.549102 649.364445,60.2145874 C648.572664,66.0971117 648.142106,72.0218393 648.075148,77.9560687 C648.075148,98.1458744 654.02024,112.197128 664.836008,112.197128 C673.073183,112.197128 683.924765,104.284427 697.319127,84.8752464 C700.594397,79.7002551 703.525415,74.3190727 706.093509,68.7659814 L711,70.0433681 C708.672103,74.9754999 705.592116,80.2624613 702.476315,85.6203886 Z M633.104979,25.0509716 C626.407797,25.0509716 620.21201,21.5026753 620.21201,13.8028724 C620.21201,4.86116587 628.449184,0 636.184966,0 C642.882147,0 649.077935,3.54829625 649.077935,11.2480991 C649.113749,20.2252887 640.84076,25.0864545 633.104979,25.0864545 L633.104979,25.0509716 Z" id="Shape" fill-rule="nonzero"></path>
                <path d="M289.937809,205.25139 C289.559731,204.855571 289.370695,204.330688 289.370695,203.676727 L289.370695,171.254158 C289.370695,170.634615 289.568324,170.135547 289.963587,169.756938 C290.35885,169.378328 290.882995,169.189026 291.536038,169.189026 L310.302343,169.189026 C310.921016,169.189026 311.402198,169.34391 311.745905,169.653681 C312.089612,169.963452 312.261463,170.410893 312.261463,170.996017 C312.261463,171.546721 312.089612,171.976953 311.745905,172.286724 C311.402198,172.596495 310.921016,172.751379 310.302343,172.751379 L293.546714,172.751379 L293.546714,185.297054 L309.271227,185.297054 C309.8899,185.297054 310.371082,185.451937 310.714789,185.761709 C311.058496,186.07148 311.230347,186.518921 311.230347,187.104044 C311.230347,187.654749 311.058496,188.08498 310.714789,188.394752 C310.371082,188.704523 309.8899,188.859406 309.271227,188.859406 L293.546714,188.859406 L293.546714,203.676727 C293.546714,204.330688 293.36627,204.855571 293.005378,205.25139 C292.644486,205.647209 292.137526,205.845115 291.484482,205.845115 C290.831439,205.845115 290.315887,205.647209 289.937809,205.25139 Z M324.505961,203.728355 C322.014086,202.213918 320.097948,200.06276 318.757491,197.274818 C317.417034,194.486876 316.746816,191.199908 316.746816,187.413814 C316.746816,183.593301 317.408442,180.280519 318.731713,177.475368 C320.054985,174.670216 321.96253,172.519059 324.454405,171.021831 C326.946281,169.524603 329.893523,168.776 333.296222,168.776 C336.698921,168.776 339.646163,169.524603 342.138039,171.021831 C344.629914,172.519059 346.537459,174.670216 347.860731,177.475368 C349.184002,180.280519 349.845628,183.576092 349.845628,187.362186 C349.845628,191.14828 349.17541,194.443853 347.834953,197.249004 C346.494496,200.054155 344.578358,202.213918 342.086483,203.728355 C339.594608,205.242793 336.66455,206 333.296222,206 C329.927894,206 326.997836,205.242793 324.505961,203.728355 Z M342.292706,198.488083 C344.440874,195.889446 345.514942,192.180851 345.514942,187.362186 C345.514942,182.543521 344.449467,178.84353 342.318484,176.262103 C340.187501,173.680675 337.18011,172.389981 333.296222,172.389981 C329.446704,172.389981 326.447906,173.68928 324.299738,176.287917 C322.15157,178.886554 321.077502,182.57794 321.077502,187.362186 C321.077502,192.146432 322.15157,195.846422 324.299738,198.462269 C326.447906,201.078116 329.446704,202.386019 333.296222,202.386019 C337.14574,202.386019 340.144538,201.08672 342.292706,198.488083 Z M363.894579,203.728355 C361.402704,202.213918 359.486566,200.06276 358.146109,197.274818 C356.805652,194.486876 356.135434,191.199908 356.135434,187.413814 C356.135434,183.593301 356.79706,180.280519 358.120331,177.475368 C359.443603,174.670216 361.351148,172.519059 363.843023,171.021831 C366.334898,169.524603 369.282141,168.776 372.68484,168.776 C376.087538,168.776 379.034781,169.524603 381.526656,171.021831 C384.018532,172.519059 385.926077,174.670216 387.249348,177.475368 C388.57262,180.280519 389.234246,183.576092 389.234246,187.362186 C389.234246,191.14828 388.564027,194.443853 387.22357,197.249004 C385.883113,200.054155 383.966976,202.213918 381.475101,203.728355 C378.983225,205.242793 376.053168,206 372.68484,206 C369.316512,206 366.386454,205.242793 363.894579,203.728355 Z M381.681324,198.488083 C383.829492,195.889446 384.90356,192.180851 384.90356,187.362186 C384.90356,182.543521 383.838085,178.84353 381.707102,176.262103 C379.576119,173.680675 376.568728,172.389981 372.68484,172.389981 C368.835322,172.389981 365.836524,173.68928 363.688356,176.287917 C361.540187,178.886554 360.466119,182.57794 360.466119,187.362186 C360.466119,192.146432 361.540187,195.846422 363.688356,198.462269 C365.836524,201.078116 368.835322,202.386019 372.68484,202.386019 C376.534357,202.386019 379.533155,201.08672 381.681324,198.488083 Z M397.457393,205.019062 C397.06213,204.640453 396.864502,204.141385 396.864502,203.521842 L396.864502,171.254158 C396.864502,170.634615 397.06213,170.135547 397.457393,169.756938 C397.852656,169.378328 398.376801,169.189026 399.029845,169.189026 L409.083222,169.189026 C414.891869,169.189026 419.38577,170.763674 422.565059,173.913015 C425.744348,177.062357 427.333969,181.545369 427.333969,187.362186 C427.333969,193.179003 425.735756,197.670619 422.539281,200.837171 C419.342807,204.003722 414.857499,205.586974 409.083222,205.586974 L399.029845,205.586974 C398.376801,205.586974 397.852656,205.397672 397.457393,205.019062 Z M408.825443,201.972993 C418.243013,201.972993 422.951728,197.102773 422.951728,187.362186 C422.951728,177.656018 418.243013,172.803007 408.825443,172.803007 L401.092076,172.803007 L401.092076,201.972993 L408.825443,201.972993 Z M482.060432,169.52461 C482.421324,169.920429 482.601768,170.445312 482.601768,171.099273 L482.601768,203.779983 C482.601768,204.399526 482.429917,204.898595 482.08621,205.277204 C481.742503,205.655813 481.261321,205.845115 480.642648,205.845115 C480.023976,205.845115 479.559978,205.655813 479.250642,205.277204 C478.941306,204.898595 478.78664,204.399526 478.78664,203.779983 L478.78664,177.397925 L467.599035,198.875295 C467.117845,199.873447 466.413257,200.372516 465.485248,200.372516 C464.59161,200.372516 463.887021,199.873447 463.371461,198.875295 L452.1323,177.656067 L452.1323,203.779983 C452.1323,204.399526 451.969042,204.898595 451.64252,205.277204 C451.315999,205.655813 450.843409,205.845115 450.224736,205.845115 C449.606064,205.845115 449.124881,205.655813 448.781175,205.277204 C448.437468,204.898595 448.265617,204.399526 448.265617,203.779983 L448.265617,171.099273 C448.265617,170.445312 448.454653,169.920429 448.83273,169.52461 C449.210808,169.128791 449.726361,168.930885 450.379404,168.930885 C451.238671,168.930885 451.926075,169.429953 452.441635,170.428105 L465.536804,195.571085 L478.477305,170.428105 C478.752271,169.877401 479.05301,169.490193 479.379531,169.266469 C479.706053,169.042745 480.092717,168.930885 480.539537,168.930885 C481.19258,168.930885 481.69954,169.128791 482.060432,169.52461 Z M523.124613,204.038125 C523.124613,204.55441 522.926984,204.984642 522.531721,205.328832 C522.136458,205.673023 521.663868,205.845115 521.113937,205.845115 C520.25467,205.845115 519.653192,205.432093 519.309485,204.606036 L515.649024,196.242252 L496.212494,196.242252 L492.500478,204.606036 C492.156771,205.432093 491.555293,205.845115 490.696026,205.845115 C490.146095,205.845115 489.664912,205.664418 489.252464,205.303018 C488.840015,204.941618 488.633794,204.502782 488.633794,203.986497 C488.633794,203.711144 488.702535,203.435796 488.840017,203.160444 L503.584971,170.324849 C503.791195,169.842982 504.100527,169.481588 504.512975,169.240655 C504.925424,168.999721 505.372236,168.879257 505.853426,168.879257 C506.368986,168.879257 506.832983,169.008326 507.245432,169.266469 C507.65788,169.524612 507.967212,169.877401 508.173436,170.324849 L522.91839,203.160444 C523.055872,203.435796 523.124613,203.728354 523.124613,204.038125 Z M497.759168,192.731528 L514.102351,192.731528 L505.904981,174.196971 L497.759168,192.731528 Z M557.38343,187.104044 C557.709952,187.413816 557.87321,187.844047 557.87321,188.394752 L557.87321,201.250197 C557.87321,202.076254 557.744322,202.695787 557.486542,203.108816 C557.228762,203.521844 556.756172,203.84882 556.068758,204.089753 C554.69393,204.674877 553.026976,205.139527 551.067847,205.483717 C549.108717,205.827907 547.149617,206 545.190488,206 C541.581565,206 538.471064,205.260002 535.858891,203.779983 C533.246718,202.299965 531.244655,200.166017 529.852642,197.378075 C528.460629,194.590133 527.764633,191.251537 527.764633,187.362186 C527.764633,183.541673 528.452037,180.237495 529.826864,177.449553 C531.201692,174.661612 533.177977,172.519059 535.755779,171.021831 C538.333581,169.524603 541.358157,168.776 544.829597,168.776 C547.235546,168.776 549.469607,169.145999 551.531849,169.886008 C553.59409,170.626018 555.329784,171.684387 556.738983,173.061148 C557.323285,173.646272 557.615431,174.248596 557.615431,174.868139 C557.615431,175.350005 557.47795,175.771632 557.202985,176.133032 C556.928019,176.494432 556.584318,176.675129 556.171869,176.675129 C555.759421,176.675129 555.278238,176.468618 554.728307,176.055589 C552.941031,174.678828 551.325633,173.723714 549.882064,173.190219 C548.438495,172.656724 546.771541,172.389981 544.881153,172.389981 C540.79104,172.389981 537.654762,173.680675 535.472223,176.262103 C533.289684,178.84353 532.19843,182.543521 532.19843,187.362186 C532.19843,192.284108 533.306869,196.027122 535.523778,198.59134 C537.740688,201.155558 540.997263,202.437648 545.293599,202.437648 C548.490074,202.437648 551.394354,201.955788 554.006526,200.992055 L554.006526,189.943601 L546.479382,189.943601 C545.89508,189.943601 545.431083,189.788717 545.087376,189.478946 C544.743669,189.169175 544.571818,188.773362 544.571818,188.291495 C544.571818,187.77521 544.743669,187.370792 545.087376,187.07823 C545.431083,186.785668 545.89508,186.63939 546.479382,186.63939 L556.120313,186.63939 C556.635874,186.63939 557.056909,186.794273 557.38343,187.104044 Z M597.932053,204.038125 C597.932053,204.55441 597.734424,204.984642 597.339162,205.328832 C596.943899,205.673023 596.471309,205.845115 595.921377,205.845115 C595.06211,205.845115 594.460632,205.432093 594.116925,204.606036 L590.456465,196.242252 L571.019935,196.242252 L567.307918,204.606036 C566.964211,205.432093 566.362733,205.845115 565.503466,205.845115 C564.953535,205.845115 564.472352,205.664418 564.059904,205.303018 C563.647456,204.941618 563.441235,204.502782 563.441235,203.986497 C563.441235,203.711144 563.509975,203.435796 563.647458,203.160444 L578.392411,170.324849 C578.598636,169.842982 578.907967,169.481588 579.320416,169.240655 C579.732864,168.999721 580.179676,168.879257 580.660866,168.879257 C581.176426,168.879257 581.640424,169.008326 582.052872,169.266469 C582.46532,169.524612 582.774652,169.877401 582.980876,170.324849 L597.72583,203.160444 C597.863313,203.435796 597.932053,203.728354 597.932053,204.038125 Z M572.566608,192.731528 L588.909791,192.731528 L580.712422,174.196971 L572.566608,192.731528 Z M627.834407,202.489276 C628.178114,202.799047 628.349965,203.229279 628.349965,203.779983 C628.349965,204.365107 628.178114,204.812548 627.834407,205.122319 C627.4907,205.43209 627.009517,205.586974 626.390845,205.586974 L603.34541,205.586974 C602.726738,205.586974 602.236963,205.414881 601.87607,205.070691 C601.515178,204.7265 601.334735,204.296269 601.334735,203.779983 C601.334735,203.263698 601.523771,202.730211 601.901848,202.179506 L622.524161,172.751379 L603.34541,172.751379 C602.726738,172.751379 602.245555,172.596495 601.901848,172.286724 C601.558141,171.976953 601.38629,171.546721 601.38629,170.996017 C601.38629,170.410893 601.558141,169.963452 601.901848,169.653681 C602.245555,169.34391 602.726738,169.189026 603.34541,169.189026 L625.823731,169.189026 C626.442404,169.189026 626.932179,169.361119 627.293071,169.705309 C627.653963,170.0495 627.834407,170.479731 627.834407,170.996017 C627.834407,171.477883 627.645371,171.994161 627.267293,172.544865 L606.593424,202.024621 L626.390845,202.024621 C627.009517,202.024621 627.4907,202.179505 627.834407,202.489276 Z M634.897549,205.25139 C634.519471,204.855571 634.330435,204.330688 634.330435,203.676727 L634.330435,171.099273 C634.330435,170.445312 634.519471,169.920429 634.897549,169.52461 C635.275627,169.128791 635.791179,168.930885 636.444222,168.930885 C637.097266,168.930885 637.612818,169.128791 637.990896,169.52461 C638.368974,169.920429 638.55801,170.445312 638.55801,171.099273 L638.55801,203.676727 C638.55801,204.330688 638.368974,204.855571 637.990896,205.25139 C637.612818,205.647209 637.097266,205.845115 636.444222,205.845115 C635.791179,205.845115 635.275627,205.647209 634.897549,205.25139 Z M676.142175,169.52461 C676.485882,169.920429 676.657733,170.445312 676.657733,171.099273 L676.657733,203.676727 C676.657733,204.330688 676.477289,204.855571 676.116397,205.25139 C675.755505,205.647209 675.248545,205.845115 674.595501,205.845115 C673.942458,205.845115 673.37535,205.552558 672.894161,204.967434 L651.498511,176.313731 L651.498511,203.676727 C651.498511,204.330688 651.318067,204.855571 650.957175,205.25139 C650.596283,205.647209 650.106508,205.845115 649.487835,205.845115 C648.869163,205.845115 648.38798,205.647209 648.044273,205.25139 C647.700567,204.855571 647.528716,204.330688 647.528716,203.676727 L647.528716,171.099273 C647.528716,170.445312 647.709159,169.920429 648.070051,169.52461 C648.430944,169.128791 648.937904,168.930885 649.590947,168.930885 C650.278361,168.930885 650.862654,169.223442 651.343844,169.808566 L672.687937,198.462269 L672.687937,171.099273 C672.687937,170.445312 672.868381,169.920429 673.229273,169.52461 C673.590165,169.128791 674.07994,168.930885 674.698613,168.930885 C675.317285,168.930885 675.798468,169.128791 676.142175,169.52461 Z M686.22133,205.019062 C685.826067,204.640453 685.628439,204.141385 685.628439,203.521842 L685.628439,171.254158 C685.628439,170.634615 685.826067,170.135547 686.22133,169.756938 C686.616593,169.378328 687.140739,169.189026 687.793782,169.189026 L707.075644,169.189026 C707.694317,169.189026 708.175499,169.34391 708.519206,169.653681 C708.862913,169.963452 709.034764,170.393684 709.034764,170.944388 C709.034764,171.495093 708.862913,171.925324 708.519206,172.235096 C708.175499,172.544867 707.694317,172.69975 707.075644,172.69975 L689.804457,172.69975 L689.804457,185.348682 L706.044529,185.348682 C706.663201,185.348682 707.144384,185.503566 707.488091,185.813337 C707.831798,186.123108 708.003648,186.55334 708.003648,187.104044 C708.003648,187.654749 707.831798,188.08498 707.488091,188.394752 C707.144384,188.704523 706.663201,188.859406 706.044529,188.859406 L689.804457,188.859406 L689.804457,202.07625 L707.075644,202.07625 C707.694317,202.07625 708.175499,202.222528 708.519206,202.51509 C708.862913,202.807652 709.034764,203.246488 709.034764,203.831612 C709.034764,204.382316 708.862913,204.812548 708.519206,205.122319 C708.175499,205.43209 707.694317,205.586974 707.075644,205.586974 L687.793782,205.586974 C687.140739,205.586974 686.616593,205.397672 686.22133,205.019062 Z" id="FOOD-MAGAZINE-Copy" fill-rule="evenodd"></path>
            </g>
        </g>
    </g>
</svg>
