<svg xmlns="http://www.w3.org/2000/svg" viewBox="0 0 16 16">
  <path d="M14.2501 7.99994c0 .19892-.079.38968-.2197.53033-.1406.14066-.3314.21967-.5303.21967H4.3126l3.22 3.21936c.1409.1409.22005.332.22005.5313 0 .1992-.07915.3903-.22005.5312-.14089.1409-.33199.2201-.53125.2201-.19925 0-.39035-.0792-.53125-.2201l-4.5-4.49998c-.06992-.06968-.12539-.15247-.16325-.24364-.03785-.09116-.05734-.1889-.05734-.28761 0-.09871.01949-.19645.05734-.28762.03786-.09116.09333-.17395.16325-.24363l4.5-4.5c.06977-.06977.15259-.12511.24374-.16286.09115-.03776.18885-.05719.28751-.05719.09867 0 .19636.01943.28751.05719.09116.03775.17398.09309.24374.16286.06977.06976.12511.15259.16286.24374.03776.09115.05719.18885.05719.28751s-.01943.19636-.05719.28751c-.03775.09115-.09309.17397-.16286.24374l-3.22 3.21812h9.1875c.1989 0 .3897.07902.5303.21967.1407.14066.2197.33142.2197.53033Z"/>
</svg>