<svg viewBox="0 0 8 8" xmlns="http://www.w3.org/2000/svg">
  <path d="M5.7653 4.2653L3.2653 6.7653C3.19485 6.83575 3.0993 6.87532 2.99967 6.87532C2.90005 6.87532 2.8045 6.83575 2.73405 6.7653C2.6636 6.69485 2.62402 6.5993 2.62402 6.49967C2.62402 6.40005 2.6636 6.3045 2.73405 6.23405L4.96874 3.99999L2.73467 1.7653C2.69979 1.73042 2.67212 1.68901 2.65324 1.64343C2.63436 1.59785 2.62465 1.54901 2.62465 1.49967C2.62465 1.45034 2.63436 1.40149 2.65324 1.35592C2.67212 1.31034 2.69979 1.26893 2.73467 1.23405C2.76956 1.19917 2.81097 1.1715 2.85654 1.15262C2.90212 1.13374 2.95097 1.12402 3.0003 1.12402C3.04963 1.12402 3.09848 1.13374 3.14405 1.15262C3.18963 1.1715 3.23104 1.19917 3.26592 1.23405L5.76592 3.73405C5.80084 3.76893 5.82853 3.81036 5.84741 3.85596C5.86628 3.90157 5.87597 3.95045 5.87591 3.9998C5.87585 4.04916 5.86605 4.09802 5.84707 4.14358C5.82809 4.18914 5.8003 4.2305 5.7653 4.2653Z"/>
</svg>
