<svg role="img" xmlns="http://www.w3.org/2000/svg" fill="none"
  viewbox="0 0 20 20">
  <path fill="#55565B"
    d="M16.2883 14.9617c.1761.1762.275.415.275.6641 0 .2491-.0989.4879-.275.6641-.1761.1761-.415.275-.6641.275-.2491 0-.4879-.0989-.664-.275L10 11.3281l-4.96172 4.9602c-.17612.1761-.41499.2751-.66406.2751-.24908 0-.48795-.099-.66407-.2751-.17612-.1761-.27506-.415-.27506-.6641 0-.249.09894-.4879.27506-.664L8.67187 10 3.71172 5.0383c-.17613-.17612-.27507-.41499-.27507-.66407 0-.24907.09894-.48794.27507-.66406.17612-.17612.41499-.27506.66406-.27506.24907 0 .48794.09894.66406.27506L10 8.67189l4.9617-4.9625c.1761-.17612.415-.27506.6641-.27506.249 0 .4879.09894.664.27506.1762.17612.2751.41499.2751.66406 0 .24907-.0989.48794-.2751.66407L11.3281 10l4.9602 4.9617Z">
  </path>
</svg>