<svg xmlns="http://www.w3.org/2000/svg" fill="none" viewBox="0 0 20 20">
  <path fill="#55565B" d="M19.3211 9.74688c-.0274-.06172-.6891-1.52969-2.1602-3.00079C15.2008 4.78594 12.725 3.75 9.99999 3.75c-2.725 0-5.20078 1.03594-7.16094 2.99609C1.36796 8.21719.703118 9.6875.678899 9.74688.643362 9.82681.625 9.91331.625 10.0008c0 .0875.018362.174.053899.2539.027344.0617.689061 1.5289 2.160151 3C4.79921 15.2141 7.27499 16.25 9.99999 16.25c2.72501 0 5.20081-1.0359 7.16091-2.9953 1.4711-1.4711 2.1328-2.9383 2.1602-3 .0355-.0799.0539-.1664.0539-.2539 0-.08749-.0184-.17399-.0539-.25392ZM9.99999 15c-2.40469 0-4.50547-.8742-6.24453-2.5977C3.0419 11.6927 2.43483 10.8836 1.95312 10c.48158-.88364 1.08867-1.69283 1.80234-2.40234C5.49452 5.87422 7.5953 5 9.99999 5c2.40471 0 4.50551.87422 6.24451 2.59766.715.70934 1.3234 1.51853 1.8063 2.40234-.5633 1.0516-3.0172 5-8.05081 5Zm0-8.75c-.74168 0-1.4667.21993-2.08339.63199-.61668.41205-1.09733.99772-1.38116 1.68295-.28382.68522-.35809 1.43926-.21339 2.16666.14469.7274.50184 1.3956 1.02629 1.9201.52445.5244 1.19263.8816 1.92006 1.0262.72743.1447 1.4814.0705 2.1667-.2134.6852-.2838 1.2708-.7644 1.6829-1.3811.4121-.6167.632-1.3417.632-2.0834-.001-.99424-.3965-1.94747-1.0995-2.65051-.703-.70304-1.6563-1.09846-2.65051-1.09949Zm0 6.25c-.49445 0-.9778-.1466-1.38892-.4213-.41113-.2747-.73156-.6652-.92078-1.122-.18922-.4568-.23872-.95947-.14226-1.44443.09646-.48495.33456-.93041.68419-1.28004.34964-.34963.79509-.58773 1.28005-.68419.48495-.09647.98763-.04696 1.44443.14226.4568.18922.8473.50965 1.122.92077.2747.41113.4213.89448.4213 1.38893 0 .663-.2634 1.2989-.7322 1.7678-.4689.4688-1.1048.7322-1.76781.7322Z"/>
</svg>