<svg width="24" height="24" viewBox="0 0 24 24" fill="none" xmlns="http://www.w3.org/2000/svg">
  <path d="M20.0306 6.21938L16.2806 2.46938C16.2109 2.39975 16.1282 2.34454 16.0371 2.3069C15.9461 2.26926 15.8485 2.24992 15.75 2.25H8.25C7.85218 2.25 7.47064 2.40804 7.18934 2.68934C6.90804 2.97064 6.75 3.35218 6.75 3.75V5.25H5.25C4.85218 5.25 4.47064 5.40804 4.18934 5.68934C3.90804 5.97064 3.75 6.35218 3.75 6.75V20.25C3.75 20.6478 3.90804 21.0294 4.18934 21.3107C4.47064 21.592 4.85218 21.75 5.25 21.75H15.75C16.1478 21.75 16.5294 21.592 16.8107 21.3107C17.092 21.0294 17.25 20.6478 17.25 20.25V18.75H18.75C19.1478 18.75 19.5294 18.592 19.8107 18.3107C20.092 18.0294 20.25 17.6478 20.25 17.25V6.75C20.2501 6.65148 20.2307 6.55391 20.1931 6.46286C20.1555 6.37182 20.1003 6.28908 20.0306 6.21938ZM15.75 20.25H5.25V6.75H12.4397L15.75 10.0603V17.985C15.75 17.9906 15.75 17.9953 15.75 18C15.75 18.0047 15.75 18.0094 15.75 18.015V20.25ZM18.75 17.25H17.25V9.75C17.2501 9.65148 17.2307 9.55391 17.1931 9.46286C17.1555 9.37182 17.1003 9.28908 17.0306 9.21937L13.2806 5.46938C13.2109 5.39975 13.1282 5.34454 13.0371 5.3069C12.9461 5.26926 12.8485 5.24992 12.75 5.25H8.25V3.75H15.4397L18.75 7.06031V17.25ZM13.5 14.25C13.5 14.4489 13.421 14.6397 13.2803 14.7803C13.1397 14.921 12.9489 15 12.75 15H8.25C8.05109 15 7.86032 14.921 7.71967 14.7803C7.57902 14.6397 7.5 14.4489 7.5 14.25C7.5 14.0511 7.57902 13.8603 7.71967 13.7197C7.86032 13.579 8.05109 13.5 8.25 13.5H12.75C12.9489 13.5 13.1397 13.579 13.2803 13.7197C13.421 13.8603 13.5 14.0511 13.5 14.25ZM13.5 17.25C13.5 17.4489 13.421 17.6397 13.2803 17.7803C13.1397 17.921 12.9489 18 12.75 18H8.25C8.05109 18 7.86032 17.921 7.71967 17.7803C7.57902 17.6397 7.5 17.4489 7.5 17.25C7.5 17.0511 7.57902 16.8603 7.71967 16.7197C7.86032 16.579 8.05109 16.5 8.25 16.5H12.75C12.9489 16.5 13.1397 16.579 13.2803 16.7197C13.421 16.8603 13.5 17.0511 13.5 17.25Z" fill="currentColor"/>
</svg>
