<svg width="22" height="21" viewBox="0 0 22 21" fill="none" xmlns="http://www.w3.org/2000/svg">
<path d="M21.4251 8.121C21.3342 7.84104 21.1631 7.594 20.9328 7.41063C20.7026 7.22726 20.4236 7.11566 20.1304 7.08975L14.5626 6.60974L12.3801 1.41974C12.2664 1.14742 12.0748 0.914795 11.8292 0.751174C11.5836 0.587552 11.2952 0.500244 11.0001 0.500244C10.705 0.500244 10.4165 0.587552 10.1709 0.751174C9.92537 0.914795 9.7337 1.14742 9.62007 1.41974L7.44413 6.60974L1.86976 7.09256C1.57542 7.11729 1.29493 7.22838 1.06347 7.41188C0.832008 7.59539 0.65988 7.84315 0.568668 8.1241C0.477457 8.40504 0.471222 8.70666 0.550747 8.99113C0.630272 9.2756 0.792015 9.53027 1.01569 9.72318L5.24476 13.4188L3.97726 18.9069C3.91023 19.1941 3.92936 19.4947 4.03224 19.7711C4.13512 20.0475 4.31719 20.2874 4.55569 20.4609C4.79419 20.6344 5.07853 20.7337 5.37317 20.7464C5.66781 20.7592 5.95967 20.6848 6.21226 20.5326L10.9935 17.6263L15.7851 20.5326C16.0377 20.6848 16.3295 20.7592 16.6242 20.7464C16.9188 20.7337 17.2031 20.6344 17.4416 20.4609C17.6801 20.2874 17.8622 20.0475 17.9651 19.7711C18.068 19.4947 18.0871 19.1941 18.0201 18.9069L16.7535 13.4132L20.9816 9.72318C21.2053 9.5296 21.3667 9.27421 21.4456 8.98914C21.5245 8.70406 21.5174 8.40202 21.4251 8.121ZM19.9982 8.58975L15.7701 12.2797C15.5643 12.4587 15.4112 12.6905 15.3273 12.95C15.2434 13.2095 15.2318 13.487 15.2938 13.7526L16.5641 19.2501L11.7763 16.3438C11.5427 16.2016 11.2745 16.1263 11.001 16.1263C10.7275 16.1263 10.4593 16.2016 10.2257 16.3438L5.44444 19.2501L6.70632 13.7563C6.76834 13.4907 6.75676 13.2132 6.67285 12.9537C6.58893 12.6942 6.43585 12.4625 6.23007 12.2835L2.00007 8.59537C1.99973 8.59257 1.99973 8.58973 2.00007 8.58693L7.57257 8.10506C7.84463 8.08108 8.10499 7.98327 8.32555 7.82219C8.54611 7.6611 8.7185 7.44286 8.82413 7.191L11.0001 2.00756L13.1751 7.191C13.2807 7.44286 13.4531 7.6611 13.6737 7.82219C13.8942 7.98327 14.1546 8.08108 14.4266 8.10506L20.0001 8.58693C20.0001 8.58693 20.0001 8.59256 20.0001 8.59349L19.9982 8.58975Z" fill="currentColor"/>
</svg>
