<svg width="24" height="24" viewBox="0 0 24 24" fill="none" xmlns="http://www.w3.org/2000/svg">
  <path d="M15.75 10.5H20.25C20.6478 10.5 21.0294 10.342 21.3107 10.0607C21.592 9.77936 21.75 9.39782 21.75 9V4.5C21.75 4.10218 21.592 3.72064 21.3107 3.43934C21.0294 3.15804 20.6478 3 20.25 3H15.75C15.3522 3 14.9706 3.15804 14.6893 3.43934C14.408 3.72064 14.25 4.10218 14.25 4.5V6H13.5C12.7044 6 11.9413 6.31607 11.3787 6.87868C10.8161 7.44129 10.5 8.20435 10.5 9V11.25H7.5V10.5C7.5 10.1022 7.34196 9.72064 7.06066 9.43934C6.77936 9.15804 6.39782 9 6 9H3C2.60218 9 2.22064 9.15804 1.93934 9.43934C1.65804 9.72064 1.5 10.1022 1.5 10.5V13.5C1.5 13.8978 1.65804 14.2794 1.93934 14.5607C2.22064 14.842 2.60218 15 3 15H6C6.39782 15 6.77936 14.842 7.06066 14.5607C7.34196 14.2794 7.5 13.8978 7.5 13.5V12.75H10.5V15C10.5 15.7956 10.8161 16.5587 11.3787 17.1213C11.9413 17.6839 12.7044 18 13.5 18H14.25V19.5C14.25 19.8978 14.408 20.2794 14.6893 20.5607C14.9706 20.842 15.3522 21 15.75 21H20.25C20.6478 21 21.0294 20.842 21.3107 20.5607C21.592 20.2794 21.75 19.8978 21.75 19.5V15C21.75 14.6022 21.592 14.2206 21.3107 13.9393C21.0294 13.658 20.6478 13.5 20.25 13.5H15.75C15.3522 13.5 14.9706 13.658 14.6893 13.9393C14.408 14.2206 14.25 14.6022 14.25 15V16.5H13.5C13.1022 16.5 12.7206 16.342 12.4393 16.0607C12.158 15.7794 12 15.3978 12 15V9C12 8.60218 12.158 8.22064 12.4393 7.93934C12.7206 7.65804 13.1022 7.5 13.5 7.5H14.25V9C14.25 9.39782 14.408 9.77936 14.6893 10.0607C14.9706 10.342 15.3522 10.5 15.75 10.5ZM6 13.5H3V10.5H6V13.5ZM15.75 15H20.25V19.5H15.75V15ZM15.75 4.5H20.25V9H15.75V4.5Z" fill="currentColor"/>
</svg>
