<svg class="sidebar-toggle__icon sidebar-toggle__icon--right" width="24" height="24" viewBox="0 0 24 24" fill="none" xmlns="http://www.w3.org/2000/svg">
  <path fill-rule="evenodd" clip-rule="evenodd" d="M3.75 3.75H20.25C20.6478 3.75 21.0294 3.90804 21.3107 4.18934C21.592 4.47064 21.75 4.85218 21.75 5.25V18.75C21.75 19.1478 21.592 19.5294 21.3107 19.8107C21.0294 20.092 20.6478 20.25 20.25 20.25H3.75C3.35218 20.25 2.97064 20.092 2.68934 19.8107C2.40804 19.5294 2.25 19.1478 2.25 18.75V5.25C2.25 4.85218 2.40804 4.47064 2.68934 4.18934C2.97064 3.90804 3.35218 3.75 3.75 3.75ZM7.5 5.25H3.75V18.75H7.5V5.25ZM9 18.75H20.25V5.25H9V18.75ZM11.25 12.0004C11.25 11.8015 11.329 11.6107 11.4697 11.4701C11.6103 11.3294 11.8011 11.2504 12 11.2504H15.6897L13.9694 9.53104C13.8286 9.39031 13.7496 9.19944 13.7496 9.00042C13.7496 8.80139 13.8286 8.61052 13.9694 8.46979C14.1101 8.32906 14.301 8.25 14.5 8.25C14.699 8.25 14.8899 8.32906 15.0306 8.46979L18.0306 11.4698C18.1004 11.5394 18.1557 11.6222 18.1934 11.7132C18.2312 11.8043 18.2506 11.9019 18.2506 12.0004C18.2506 12.099 18.2312 12.1966 18.1934 12.2876C18.1557 12.3787 18.1004 12.4614 18.0306 12.531L15.0306 15.531C14.8899 15.6718 14.699 15.7508 14.5 15.7508C14.301 15.7508 14.1101 15.6718 13.9694 15.531C13.8286 15.3903 13.7496 15.1994 13.7496 15.0004C13.7496 14.8014 13.8286 14.6105 13.9694 14.4698L15.6897 12.7504H12C11.8011 12.7504 11.6103 12.6714 11.4697 12.5307C11.329 12.3901 11.25 12.1993 11.25 12.0004Z" fill="currentColor"/>
</svg>
