<svg class="sidebar-toggle__icon sidebar-toggle__icon--left" width="24" height="24" viewBox="0 0 24 24" fill="none" xmlns="http://www.w3.org/2000/svg">
  <path fill-rule="evenodd" clip-rule="evenodd" d="M3.75 3.75H20.25C20.6478 3.75 21.0294 3.90804 21.3107 4.18934C21.592 4.47064 21.75 4.85218 21.75 5.25V18.75C21.75 19.1478 21.592 19.5294 21.3107 19.8107C21.0294 20.092 20.6478 20.25 20.25 20.25H3.75C3.35218 20.25 2.97064 20.092 2.68934 19.8107C2.40804 19.5294 2.25 19.1478 2.25 18.75V5.25C2.25 4.85218 2.40804 4.47064 2.68934 4.18934C2.97064 3.90804 3.35218 3.75 3.75 3.75ZM7.5 5.25H3.75V18.75H7.5V5.25ZM9 18.75H20.25V5.25H9V18.75ZM18.2505 12.0006C18.2505 12.1995 18.1715 12.3902 18.0308 12.5309C17.8902 12.6715 17.6994 12.7506 17.5005 12.7506H13.8108L15.5311 14.4699C15.6718 14.6107 15.7509 14.8015 15.7509 15.0006C15.7509 15.1996 15.6718 15.3905 15.5311 15.5312C15.3904 15.6719 15.1995 15.751 15.0005 15.751C14.8015 15.751 14.6106 15.6719 14.4699 15.5312L11.4699 12.5312C11.4001 12.4615 11.3448 12.3788 11.3071 12.2878C11.2693 12.1967 11.2499 12.0991 11.2499 12.0006C11.2499 11.902 11.2693 11.8044 11.3071 11.7134C11.3448 11.6223 11.4001 11.5396 11.4699 11.4699L14.4699 8.46993C14.6106 8.3292 14.8015 8.25014 15.0005 8.25014C15.1995 8.25014 15.3904 8.3292 15.5311 8.46993C15.6718 8.61066 15.7509 8.80154 15.7509 9.00056C15.7509 9.19958 15.6718 9.39045 15.5311 9.53119L13.8108 11.2506H17.5005C17.6994 11.2506 17.8902 11.3296 18.0308 11.4702C18.1715 11.6109 18.2505 11.8016 18.2505 12.0006Z" fill="currentColor"/>
</svg>
