<svg viewBox="0 0 18 19" xmlns="http://www.w3.org/2000/svg">
  <path d="M16.5 6.25H1.5C1.10218 6.25 0.720644 6.40804 0.43934 6.68934C0.158035 6.97064 0 7.35218 0 7.75V16.75C0 17.1478 0.158035 17.5294 0.43934 17.8107C0.720644 18.092 1.10218 18.25 1.5 18.25H16.5C16.8978 18.25 17.2794 18.092 17.5607 17.8107C17.842 17.5294 18 17.1478 18 16.75V7.75C18 7.35218 17.842 6.97064 17.5607 6.68934C17.2794 6.40804 16.8978 6.25 16.5 6.25ZM16.5 16.75H1.5V7.75H16.5V16.75ZM1.5 4C1.5 3.80109 1.57902 3.61032 1.71967 3.46967C1.86032 3.32902 2.05109 3.25 2.25 3.25H15.75C15.9489 3.25 16.1397 3.32902 16.2803 3.46967C16.421 3.61032 16.5 3.80109 16.5 4C16.5 4.19891 16.421 4.38968 16.2803 4.53033C16.1397 4.67098 15.9489 4.75 15.75 4.75H2.25C2.05109 4.75 1.86032 4.67098 1.71967 4.53033C1.57902 4.38968 1.5 4.19891 1.5 4ZM3 1C3 0.801088 3.07902 0.610322 3.21967 0.46967C3.36032 0.329018 3.55109 0.25 3.75 0.25H14.25C14.4489 0.25 14.6397 0.329018 14.7803 0.46967C14.921 0.610322 15 0.801088 15 1C15 1.19891 14.921 1.38968 14.7803 1.53033C14.6397 1.67098 14.4489 1.75 14.25 1.75H3.75C3.55109 1.75 3.36032 1.67098 3.21967 1.53033C3.07902 1.38968 3 1.19891 3 1Z"/>
</svg>
