<svg height="36" viewBox="0 0 36 36" width="36" xmlns="http://www.w3.org/2000/svg"><path d="m11.02 6.064c-2.287.164-4.788 1.165-6.58 2.634-1.741 1.427-3.084 3.366-3.786 5.466-.852 2.547-.853 5.12-.006 7.656 1.506 4.503 5.535 7.679 10.302 8.119.884.082 13.216.082 14.1 0 5.287-.488 9.574-4.301 10.683-9.502.649-3.043.026-6.328-1.707-8.989a11.927 11.927 0 0 0 -9.157-5.386c-.977-.071-12.861-.069-13.849.002m14.422 2.542c4.167.683 7.319 3.848 7.953 7.984.165 1.079.088 2.688-.182 3.75-.944 3.727-4.045 6.501-7.923 7.088-.789.12-13.787.12-14.58.001-3.514-.53-6.376-2.828-7.627-6.126-.631-1.664-.746-3.857-.295-5.645.918-3.647 3.936-6.404 7.712-7.047.692-.118 14.227-.122 14.942-.005m-2.702 2.548c-2.256.498-3.999 2.206-4.569 4.476-.156.618-.219 2.389-.115 3.18.4 3.027 2.917 5.25 5.944 5.25a5.87 5.87 0 0 0 4.37-1.894 6.1 6.1 0 0 0 1.576-3.415c.1-.847.038-2.503-.117-3.121-.446-1.782-1.586-3.196-3.219-3.994-.879-.43-1.377-.546-2.46-.573-.72-.017-1.002.001-1.41.091" fill="#55565b"/></svg>