<svg height="36" viewBox="0 0 36 36" width="36" xmlns="http://www.w3.org/2000/svg"><path d="m21.0909 34-4.3273-5.4634h-8.03633c-.40988 0-.80297-.1645-1.0928-.4572-.28983-.2928-.45265-.6898-.45265-1.1038v-17.00994c0-.414.16282-.81104.45265-1.10378s.68292-.4572 1.0928-.4572h24.72723c.4099 0 .803.16446 1.0928.4572.2899.29274.4527.68978.4527 1.10378v17.00994c0 .414-.1628.811-.4527 1.1038-.2898.2927-.6829.4572-1.0928.4572h-8.0363zm2.8421-8.5854h7.9761v-13.888h-21.6364v13.888h7.9761l2.8421 3.5872zm-21.38755-23.4146h26.27275v3.12195h-24.72729v17.17075h-3.09091v-18.73172c0-.414.16282-.81104.45265-1.10378s.68292-.4572 1.0928-.4572z" fill="#55565b"/></svg>