<svg width="23" height="21" fill="none" xmlns="http://www.w3.org/2000/svg">
  <path d="M19 14.857h-2V12h-1v4h3v-1.143Z" fill="#55565B"/>
  <path d="M17.125 1.75h-4.004V0h-1.75v1.75H6.123V0h-1.75v1.75H.876A.875.875 0 0 0 0 2.623v14.501c0 .483.392.875.875.875h11.248a5.603 5.603 0 0 1-.954-2H2V6.123h14v2.911a5.69 5.69 0 0 1 2 .135V2.624a.875.875 0 0 0-.875-.875Z" fill="#55565B"/>
  <path fill-rule="evenodd" clip-rule="evenodd" d="M16.626 18.503a3.877 3.877 0 1 0 0-7.753 3.877 3.877 0 0 0 0 7.753Zm0 1.75a5.627 5.627 0 1 0 0-11.253 5.627 5.627 0 0 0 0 11.253Z" fill="#55565B"/>
</svg>
