<svg height="33" viewBox="0 0 36 33" width="36" xmlns="http://www.w3.org/2000/svg"><path d="m7.08 1.44v1.44h-5.976l-.318.158a1.326 1.326 0 0 0 -.726.941c-.048.224-.061 3.678-.048 12.311l.018 12 .131.246c.073.135.228.329.345.432.448.393-.104.373 9.978.372l9.14-.002.288.346c.479.574 1.348 1.362 1.936 1.755a9.006 9.006 0 0 0 8.182.98c4.629-1.704 7.072-6.881 5.452-11.555-.939-2.711-3.044-4.81-5.725-5.709l-.627-.211-.03-5.537-.03-5.537-.133-.249c-.162-.303-.513-.603-.797-.682-.125-.035-1.57-.058-3.555-.059h-3.345v-2.88h-2.82v2.88h-8.52v-2.88h-2.82zm18.84 10.912v2.391l-.342.041c-.542.063-1.317.269-1.969.521-2.825 1.095-4.943 3.609-5.613 6.664-.235 1.07-.219 2.683.039 3.936l.04.195h-14.835v-16.14h22.68zm1.185 2.332a2.601 2.601 0 0 1 -.45 0c-.124-.013-.022-.024.225-.024s.349.011.225.024m1.332 3.012c.586.148 1.445.539 1.976.899a6.322 6.322 0 0 1 2.746 5.525c-.079 1.624-.71 3.058-1.845 4.194a5.756 5.756 0 0 1 -1.756 1.24c-.918.435-1.576.581-2.618.583-.585.001-1.008-.03-1.292-.094-2.621-.594-4.532-2.609-4.95-5.219-.107-.664-.045-1.976.121-2.594.636-2.361 2.568-4.177 4.912-4.62.665-.125 2.042-.081 2.706.086m-2.563 5.119.016 3.255 2.415.016 2.415.015v-1.859l-1.605-.016-1.605-.016-.016-2.325-.015-2.325h-1.62z" fill="#55565b"/></svg>