<svg height="36" viewBox="0 0 36 36" width="36" xmlns="http://www.w3.org/2000/svg"><path d="m18.905 3.0034c-4.8818-.0181-9.89368 2.11996-12.75421 6.14588-2.97685 4.12852-3.72724 9.57882-2.74182 14.50242.69215 3.2862 2.61415 6.3919 5.55652 8.109 3.35621 2.0297 7.44861 2.3335 11.27361 1.8957 1.9198-.2327 3.8097-.7456 5.5656-1.549 0-1.2133 0-2.4267 0-3.64-3.9461 1.6362-8.4574 2.4333-12.6514 1.2587-2.9465-.8305-5.34152-3.3703-5.98961-6.3624-.77366-3.0458-.58571-6.3211.39477-9.2927 1.05002-2.9697 3.32674-5.53882 6.31624-6.61934 2.9829-1.16767 6.4097-1.27462 9.4541-.26651 2.7133.99524 4.9245 3.33755 5.6015 6.14525.7038 2.5698.6228 5.4088-.3714 7.8826-.4383 1.0424-1.4289 2.1055-2.6643 1.867-.6836-.1102-1.2174-.6898-1.2841-1.374-.3646-1.7236.0832-3.4856.0543-5.2278.0939-1.7622.1876-3.5244.2846-5.2865-2.7816-.8329-5.7863-1.36856-8.6563-.6962-2.9057.7966-5.1346 3.4114-5.6209 6.3736-.4246 2.2055-.2402 4.5877.7799 6.5936.9431 1.7193 2.7689 2.9433 4.7485 3.0192 2.1842.205 4.5109-.7068 5.752-2.5513.808 1.8442 2.9703 2.8932 4.9355 2.5197 2.3445-.3217 4.2363-2.1564 5.0624-4.3086 1.3658-3.1906 1.3042-6.8642.3573-10.1616-1.129-3.63941-3.9388-6.75356-7.5656-8.02092-1.8577-.69892-3.8521-.9948-5.8372-.95578zm-.2305 10.5789c.7719-.0025 1.547.0602 2.296.2236-.2194 2.5144.0496 5.147-.9169 7.5287-.4626 1.006-1.4737 1.788-2.6009 1.773-1.18.1157-2.4907-.5777-2.7663-1.7944-.5272-1.6144-.3716-3.4013.1106-5.0038.5405-1.4722 1.9158-2.6924 3.5363-2.7087.1134-.0098.2273-.016.3412-.0184z" fill="#55565b"/></svg>