<svg width="17" height="17" fill="none" xmlns="http://www.w3.org/2000/svg">
  <path d="M8.954.748C6.498.738 3.977 1.815 2.538 3.84 1.041 5.917.663 8.658 1.158 11.135c.35 1.653 1.316 3.216 2.796 4.08 1.688 1.02 3.747 1.173 5.671.953a9.483 9.483 0 0 0 2.8-.78v-1.83c-1.985.823-4.254 1.224-6.364.633-1.482-.418-2.687-1.696-3.013-3.2-.39-1.533-.295-3.18.198-4.675.528-1.494 1.674-2.787 3.178-3.33a7.097 7.097 0 0 1 4.756-.134c1.364.5 2.477 1.679 2.817 3.091.354 1.293.314 2.721-.186 3.965-.22.525-.72 1.06-1.34.94a.783.783 0 0 1-.647-.692c-.183-.867.042-1.753.028-2.63.047-.886.094-1.772.143-2.659-1.4-.419-2.911-.688-4.355-.35-1.462.4-2.583 1.716-2.827 3.206-.214 1.11-.121 2.308.392 3.317.474.865 1.393 1.48 2.389 1.519 1.098.103 2.269-.356 2.893-1.284.407.928 1.495 1.456 2.483 1.268 1.18-.162 2.131-1.085 2.547-2.167.687-1.605.656-3.453.18-5.112-.568-1.831-1.982-3.398-3.806-4.035A7.905 7.905 0 0 0 8.954.748ZM8.838 6.07c.389-.001.778.03 1.155.112-.11 1.265.025 2.59-.461 3.788-.233.506-.741.899-1.308.891-.594.059-1.253-.29-1.392-.902-.265-.812-.187-1.711.056-2.517.271-.74.963-1.355 1.779-1.363a2.63 2.63 0 0 1 .171-.01Z" fill="#55565B"/>
</svg>
