<svg height="36" viewBox="0 0 36 36" width="36" xmlns="http://www.w3.org/2000/svg"><path d="m21 9.48v1.5h15v-3h-15zm-20.236 1.425c-.388 1.576-.705 2.913-.704 2.972 0 .097.062.105.698.09l.699-.017.459-.99c.567-1.222.894-1.777 1.322-2.241.813-.88 1.883-1.239 3.696-1.239h.579l-.04.165c-.449 1.841-4.58 17.152-4.673 17.32a1.696 1.696 0 0 1 -.362.42l-.231.185-1.104-.017-1.103-.016v1.443h10.5v-.716c0-.696-.004-.716-.135-.738-.074-.012-.676-.01-1.337.005-1.038.022-1.228.012-1.395-.074-.191-.099-.193-.105-.193-.542 0-.641.125-1.135 2.45-9.695l2.095-7.71.892.006c1.115.008 1.444.091 1.871.474.782.703 1.239 1.865 1.362 3.465l.041.525h1.849v-5.94h-16.532zm15.736 7.605v1.47h19.5v-2.94h-19.5zm-3 9v1.47h22.5v-2.94h-22.5z" fill="#55565b"/></svg>