<svg width="20" height="20" fill="none" xmlns="http://www.w3.org/2000/svg">
  <g clip-path="url(#a)" fill-rule="evenodd" clip-rule="evenodd" fill="#55565B">
    <path d="m19.187 4.864-8.936 2v.16h-.001v8.485a2.401 2.401 0 0 0-1.91-.195c-1.22.376-1.93 1.583-1.587 2.696.343 1.113 1.61 1.71 2.83 1.334 1.084-.334 1.765-1.324 1.664-2.32h.003V9.801l6.93-1.551v6.136a2.401 2.401 0 0 0-1.909-.196c-1.22.376-1.93 1.583-1.587 2.696.343 1.113 1.61 1.71 2.83 1.335 1.083-.334 1.765-1.324 1.663-2.32h.003V8.026l.007-.002v-3.16Z"/>
    <path d="M13.504.744H.387V12.16h13.117V.744Zm-1.166 1.014H1.553v9.387h.104l2.35-2.281 2.056 1.997L9.25 5.913l2.131 3.309.395-.554.562.788V1.758ZM6.22 4.508a1.943 1.943 0 1 1-3.886 0 1.943 1.943 0 0 1 3.886 0Z"/>
  </g>
  <defs>
    <clipPath id="a">
      <path fill="#fff" d="M0 0h20v20H0z"/>
    </clipPath>
  </defs>
</svg>
