<svg height="36" viewBox="0 0 36 36" width="36" xmlns="http://www.w3.org/2000/svg"><path d="m15.497 8.045c-1.353.129-2.556.713-3.559 1.727-1.08 1.092-1.675 2.516-1.677 4.013l-.001.555h2.683l.032-.585c.064-1.137.567-1.998 1.515-2.591.955-.598 2.344-.579 3.304.046 1.046.68 1.594 1.871 1.419 3.085-.134.93-.07.844-4.719 6.377l-4.231 5.038-.002.825-.001.825h11.7v-2.699l-3.627-.016-3.628-.015 2.974-3.54c1.635-1.947 3.08-3.689 3.212-3.87.322-.446.668-1.176.866-1.83.148-.487.164-.634.168-1.5.003-.82-.016-1.035-.133-1.47-.174-.647-.634-1.595-1.02-2.104-1.223-1.611-3.215-2.469-5.275-2.271m-12.872 1.184-2.625.635v1.338c0 .736.01 1.338.023 1.338.012 0 .91-.213 1.995-.473 1.085-.261 2.06-.492 2.167-.515l.195-.042v15.85h2.94v-18.78l-1.035.007-1.035.007zm21.495.701v1.35h3.3c1.815 0 3.3.013 3.3.028 0 .023-4.162 5.318-4.411 5.612-.064.075-.004.224.366.9.243.445.45.832.46.859.01.028.233-.06.496-.195 1.06-.541 1.997-.569 3.012-.087.814.387 1.449 1.12 1.781 2.06.161.457.181.589.181 1.203.001.492-.03.793-.108 1.05-.534 1.778-2.246 2.891-3.886 2.527-1.343-.299-2.334-1.279-2.686-2.655-.082-.322-.129-.41-.211-.403-.058.005-.602.14-1.209.3-.864.228-1.105.312-1.105.389 0 .214.317 1.188.538 1.654.833 1.753 2.35 2.971 4.166 3.345.74.153 1.734.13 2.465-.055a5.578 5.578 0 0 0 2.596-1.435c3.055-2.897 2.51-8.072-1.077-10.218a6 6 0 0 0 -.9-.424c-.257-.091-.467-.179-.467-.195s.905-1.175 2.01-2.574l2.009-2.544v-1.842h-10.62z" fill="#55565b"/></svg>