<svg width="24" height="14" fill="none" xmlns="http://www.w3.org/2000/svg">
  <path fill-rule="evenodd" clip-rule="evenodd" d="M8.654 4.697H6.848v-.292C6.848 2.303 8.6.6 10.76.6c2.16 0 3.913 1.703 3.913 3.805 0 .907-.327 1.74-.872 2.394l-.003.004-3.992 4.625h4.867v1.757H6.848v-1.06l5.527-6.404c.307-.356.493-.815.493-1.316 0-1.132-.944-2.049-2.107-2.049-1.164 0-2.107.917-2.107 2.049v.292ZM23.216.976v1.2l-2.703 3.332C22.23 5.962 23.5 7.572 23.5 9.49c0 2.27-1.78 4.11-3.975 4.11-1.863 0-3.426-1.325-3.857-3.113l-.068-.284 1.652-.428.07.285c.245 1.022 1.14 1.778 2.203 1.778 1.254 0 2.271-1.051 2.271-2.348S20.78 7.14 19.525 7.14a2.2 2.2 0 0 0-1.008.244l-.37.204-.626-1.135 3.016-3.717h-4.419V.976h7.098Z" fill="#55565B"/>
  <path d="M4.891.976v12.209H2.935V2.88L0 3.566V1.802L3.544.976h1.347Z" fill="#55565B"/>
</svg>
