<svg xmlns="http://www.w3.org/2000/svg" width="20" height="20" fill="none">
  <path d="M4.548 7.943a14.422 14.422 0 0 0 7.55 7.397c.552-.4.863-1.095 1.235-1.66.278-.275.834-.81 1.39-.55 1.381.65 2.04.877 3.61 1.1.155.021.579.164.834.19.383.037.833.36.833 1.136v3.07c0 .55-.451 1.282-1.033 1.323-.486.034-.882.051-1.19.051C7.918 20 0 11.862 0 2.198c0-.303.017-.696.052-1.176C.092.446.833 0 1.389 0h3.104c.785 0 1.11.445 1.149.824.025.252.17.672.191.825.225 1.552.455 2.205 1.111 3.572.265.55-.277 1.099-.555 1.374-.6.387-1.476.733-1.84 1.348Z" fill="#55565B"/>
</svg>
