<svg height="36" viewBox="0 0 36 36" width="36" xmlns="http://www.w3.org/2000/svg"><path d="m9.82246 14.9148c2.20964 4.9719 6.27314 8.9558 11.32454 11.0949.8278-.5984 1.2952-1.6427 1.853-2.4896.4167-.4122 1.25-1.2162 2.0833-.8243 2.0728.9746 3.0622 1.3152 5.4167 1.6486.2314.0328.8678.2463 1.25.2844.5749.0574 1.25.54 1.25 1.7046v4.6058c0 .8243-.6765 1.9233-1.5492 1.9844-.7289.0509-1.3237.0764-1.7841.0764-14.7917 0-26.6667-12.2065-26.6667-26.70265 0-.45554.02574-1.0438.07726-1.7649.0617-.86328 1.17274-1.53245 2.00607-1.53245h4.65592c1.17745 0 1.66525.66786 1.72325 1.23651.0386.37783.2543 1.00757.2875 1.23651.3371 2.32911.6814 3.30781 1.6667 5.35818.3961.8244-.4167 1.6487-.8334 2.0609-.9004.5803-2.2133 1.1-2.76084 2.0227z" fill="#55565b"/></svg>