<svg xmlns="http://www.w3.org/2000/svg" viewBox="0 0 24 24">
  <g fill="none" stroke="currentColor" stroke-width="2.25" stroke-linecap="round" stroke-linejoin="round">
    <path d="M7 13C7.55228 13 8 12.5523 8 12C8 11.4477 7.55228 11 7 11C6.44772 11 6 11.4477 6 12C6 12.5523 6.44772 13 7 13Z" />
    <path d="M7 4C7.55228 4 8 3.55228 8 3C8 2.44772 7.55228 2 7 2C6.44772 2 6 2.44772 6 3C6 3.55228 6.44772 4 7 4Z" />
    <path d="M7 22C7.55228 22 8 21.5523 8 21C8 20.4477 7.55228 20 7 20C6.44772 20 6 20.4477 6 21C6 21.5523 6.44772 22 7 22Z" />
    <path d="M16 13C16.5523 13 17 12.5523 17 12C17 11.4477 16.5523 11 16 11C15.4477 11 15 11.4477 15 12C15 12.5523 15.4477 13 16 13Z" />
    <path d="M16 4C16.5523 4 17 3.55228 17 3C17 2.44772 16.5523 2 16 2C15.4477 2 15 2.44772 15 3C15 3.55228 15.4477 4 16 4Z" />
    <path d="M16 22C16.5523 22 17 21.5523 17 21C17 20.4477 16.5523 20 16 20C15.4477 20 15 20.4477 15 21C15 21.5523 15.4477 22 16 22Z" />
  </g>
</svg>
