<svg width="18" height="11" viewBox="0 0 18 11" fill="none" xmlns="http://www.w3.org/2000/svg">
<path d="M18 1.49699C18 1.35271 17.9279 1.19038 17.8196 1.08216L16.9178 0.18036C16.8096 0.0721439 16.6473 0 16.503 0C16.3587 0 16.1964 0.0721439 16.0882 0.18036L9 7.26854L1.91182 0.18036C1.80361 0.0721439 1.64128 0 1.49699 0C1.33467 0 1.19038 0.0721439 1.08216 0.18036L0.180361 1.08216C0.0721442 1.19038 0 1.35271 0 1.49699C0 1.64128 0.0721442 1.80361 0.180361 1.91182L8.58517 10.3166C8.69339 10.4248 8.85571 10.497 9 10.497C9.14429 10.497 9.30661 10.4248 9.41483 10.3166L17.8196 1.91182C17.9279 1.80361 18 1.64128 18 1.49699Z" fill="#5D7585"/>
</svg>
