<svg xmlns="http://www.w3.org/2000/svg" width="31px" height="31px" viewBox="0 0 31 31">
  <path d="M0,16.2C0.5,23.1,5.2,29,12,30.6c6.3,1.5,13.1-1.2,16.6-6.7c3.4-5.3,3.2-12.3-0.5-17.4C24.2,1,16.9-1.4,10.6,0.8C4.2,3-0.5,9.4,0,16.2z M3.9,14.5c0.4-4.1,3-7.8,6.7-9.5c1.9-0.9,3.9-1.2,5.9-1c1,0.1,2,0.3,3,0.7c0.4,0.1,2.2,0.7,2.3,1.2C22,6,19.5,8.1,19.3,8.3c-1.8,1.8-3.6,3.6-5.4,5.5c-1.8,1.8-3.6,3.6-5.5,5.4c-0.6,0.6-1.2,1.2-1.8,1.8c-0.1,0.1-0.6,0.8-0.8,0.8c-0.6,0-1.5-3.2-1.6-3.7C3.9,16.9,3.8,15.7,3.9,14.5z M25.3,9.1c0.7,0.7,1.2,2.2,1.4,3.1c0.3,1.2,0.5,2.4,0.4,3.7c-0.1,2.8-1.2,5.4-3.1,7.5c-3.8,4.1-10.2,4.9-14.9,1.8C10.7,23.6,25.1,9,25.3,9.1z"/>
</svg>
