<!-- cspell:ignore tmgmt, webform -->
<svg xmlns="http://www.w3.org/2000/svg" xmlns:xlink="http://www.w3.org/1999/xlink"><symbol id="checkmark" viewBox="0 0 24 24"><path d="M20 6 9 17l-5-5" fill="none" stroke="currentColor" stroke-width="3" stroke-linecap="round" stroke-linejoin="round"/></symbol><use xlink:href="#checkmark" width="24" height="24"/><view id="checkmark-view" viewBox="0 0 24 24"/><symbol id="hide" viewBox="0 0 24 24"><path d="M17.94 17.94A10.07 10.07 0 0 1 12 20c-7 0-11-8-11-8a18.45 18.45 0 0 1 5.06-5.94M9.9 4.24A9.12 9.12 0 0 1 12 4c7 0 11 8 11 8a18.5 18.5 0 0 1-2.16 3.19m-6.72-1.07a3 3 0 1 1-4.24-4.24M1 1l22 22" fill="none" stroke="currentColor" stroke-width="3" stroke-linecap="round" stroke-linejoin="round"/></symbol><use xlink:href="#hide" y="24" width="24" height="24"/><view id="hide-view" viewBox="0 24 24 24"/><symbol id="remove" viewBox="0 0 24 24"><path d="M20 4 4 20M4 4l16 16" fill="none" stroke="currentColor" stroke-width="3" stroke-linecap="round" stroke-linejoin="round"/></symbol><use xlink:href="#remove" y="48" width="24" height="24"/><view id="remove-view" viewBox="0 48 24 24"/><symbol id="show" viewBox="0 0 24 24"><g fill="none" stroke="currentColor" stroke-width="3" stroke-linecap="round" stroke-linejoin="round"><path d="M1 12s4-8 11-8 11 8 11 8-4 8-11 8-11-8-11-8z"/><circle cx="12" cy="12" r="3"/></g></symbol><use xlink:href="#show" y="72" width="24" height="24"/><view id="show-view" viewBox="0 72 24 24"/><symbol id="trash" viewBox="0 0 24 24"><path d="M3 6h18m-2 0v14a2 2 0 0 1-2 2H7a2 2 0 0 1-2-2V6m3 0V4a2 2 0 0 1 2-2h4a2 2 0 0 1 2 2v2m-6 5v6m4-6v6" fill="none" stroke="currentColor" stroke-width="3" stroke-linecap="round" stroke-linejoin="round"/></symbol><use xlink:href="#trash" y="96" width="24" height="24"/><view id="trash-view" viewBox="0 96 24 24"/><symbol id="asterisk" viewBox="0 0 24 24"><path fill="currentColor" d="M2.04 11.869a1.973 1.973 0 0 1-1.39-2.53l.388-1.2a1.976 1.976 0 0 1 2.564-1.254c2.867 1.067 5.02 2.008 6.454 2.826-.31-2.963-.521-5.3-.633-7.013C9.35 1.584 10.245.671 11.36.671h1.172c1.129 0 2.036.933 1.96 2.06-.135 1.991-.378 4.307-.734 6.944 1.993-1.004 4.214-1.947 6.668-2.83 1.044-.376 2.182.202 2.524 1.258l.437 1.35c.338 1.045-.23 2.173-1.287 2.477a43.855 43.855 0 0 1-7.143 1.447c1.215 1.057 2.841 2.795 4.88 5.213a1.978 1.978 0 0 1-.38 2.888l-1.005.713c-.89.63-2.124.432-2.736-.472-1.14-1.684-2.421-3.75-3.843-6.2-1.316 2.507-2.515 4.58-3.596 6.212-.6.906-1.828 1.09-2.71.454l-.98-.707a1.986 1.986 0 0 1-.376-2.877c2.115-2.555 3.676-4.296 4.683-5.224-2.375-.459-4.66-.963-6.854-1.508Z"/></symbol><use xlink:href="#asterisk" y="120" width="24" height="24"/><view id="asterisk-view" viewBox="0 120 24 24"/><symbol id="checked" viewBox="0 0 24 24"><path fill="currentColor" d="m5.692 10.644 3.58 3.758 9.036-9.489 2.226 2.34L9.272 19.088l-5.806-6.103 2.226-2.34Z"/></symbol><use xlink:href="#checked" y="144" width="24" height="24"/><view id="checked-view" viewBox="0 144 24 24"/><symbol id="toggle-unchecked" viewBox="0 0 24 24"><path d="M17.898 11.977c0 1.27-.24 2.349-.722 3.239-.477.89-1.129 1.57-1.954 2.04-.822.466-1.747.698-2.773.698-1.034 0-1.962-.234-2.784-.704-.822-.47-1.472-1.15-1.95-2.04C7.24 14.32 7 13.242 7 11.977c0-1.269.239-2.348.716-3.238.477-.89 1.127-1.569 1.949-2.034.822-.47 1.75-.705 2.784-.705 1.026 0 1.95.235 2.773.705.825.465 1.477 1.143 1.954 2.034.481.89.722 1.97.722 3.238Zm-2.495 0c0-.822-.123-1.515-.369-2.08-.242-.564-.585-.992-1.028-1.283-.444-.292-.962-.438-1.557-.438s-1.114.146-1.557.438c-.443.291-.788.72-1.034 1.284-.242.564-.364 1.257-.364 2.08 0 .821.122 1.514.364 2.079.246.564.59.992 1.034 1.284.443.292.962.437 1.557.437s1.114-.145 1.557-.437c.443-.292.786-.72 1.028-1.284.246-.565.37-1.258.37-2.08Z" fill="currentColor"/></symbol><use xlink:href="#toggle-unchecked" y="168" width="24" height="24"/><view id="toggle-unchecked-view" viewBox="0 168 24 24"/><symbol id="add" viewBox="0 0 24 24"><path d="M12 4v16m-8-8h16" fill="none" stroke="currentColor" stroke-width="2.25" stroke-linecap="round" stroke-linejoin="round"/></symbol><use xlink:href="#add" y="192" width="24" height="24"/><view id="add-view" viewBox="0 192 24 24"/><symbol id="calendar" viewBox="0 0 24 24"><g fill="none" stroke="currentColor" stroke-width="2.25" stroke-linecap="round" stroke-linejoin="round"><rect x="3" y="4" width="18" height="18" rx="2" ry="2"/><path d="M16 2v4M8 2v4m-5 4h18"/></g></symbol><use xlink:href="#calendar" y="216" width="24" height="24"/><view id="calendar-view" viewBox="0 216 24 24"/><symbol id="circle" viewBox="0 0 24 24"><circle cx="12" cy="12" r="10" fill="none" stroke="currentColor" stroke-width="2.25" stroke-linecap="round" stroke-linejoin="round"/></symbol><use xlink:href="#circle" y="240" width="24" height="24"/><view id="circle-view" viewBox="0 240 24 24"/><symbol id="close" viewBox="0 0 24 24"><path d="M20 4 4 20M4 4l16 16" fill="none" stroke="currentColor" stroke-width="2.25" stroke-linecap="round" stroke-linejoin="round"/></symbol><use xlink:href="#close" y="264" width="24" height="24"/><view id="close-view" viewBox="0 264 24 24"/><symbol id="drop" viewBox="0 0 24 24"><path d="m4 8 8 8 8-8" fill="none" stroke="currentColor" stroke-width="3" stroke-linecap="round" stroke-linejoin="round"/></symbol><use xlink:href="#drop" y="288" width="24" height="24"/><view id="drop-view" viewBox="0 288 24 24"/><symbol id="drupal" viewBox="0 0 24 24"><path d="M15.792 5.064C14.088 3.408 12.504 1.824 12.024 0c-.48 1.824-2.064 3.408-3.768 5.064-2.496 2.496-5.352 5.352-5.352 9.648-.144 5.016 3.888 9.192 8.904 9.288 5.016.096 9.216-3.888 9.288-8.904v-.384c.048-4.296-2.808-7.152-5.304-9.648ZM7.56 15.528a5.498 5.498 0 0 0-.696 1.128c-.048.048-.096.12-.168.12h-.048c-.216 0-.432-.384-.432-.384-.048-.096-.12-.216-.168-.312L6 15.984c-.552-1.2-.096-2.904-.096-2.904.216-.816.6-1.632 1.08-2.328.312-.432.648-.864.984-1.296l.432.432 2.04 2.064c.096.096.096.216 0 .312L8.328 14.64l-.768.888Zm4.56 5.952c-1.728 0-3.168-1.416-3.12-3.168 0-.768.312-1.512.768-2.064.648-.768 1.464-1.56 2.376-2.592 1.032 1.128 1.728 1.848 2.376 2.736.048.048.096.12.12.216.336.528.552 1.128.552 1.776.072 1.728-1.344 3.096-3.072 3.096Zm5.904-5.016a.497.497 0 0 1-.312.264h-.048a.913.913 0 0 1-.312-.216c-.552-.816-1.176-1.608-1.848-2.28l-.816-.864-2.76-2.856a35.757 35.757 0 0 1-1.632-1.68c0-.048-.048-.048-.048-.048a1.218 1.218 0 0 1-.216-.432v-.096c-.096-.48.096-.96.432-1.296.528-.528 1.08-1.08 1.608-1.632.552.6 1.176 1.2 1.776 1.824 1.2 1.128 2.28 2.376 3.288 3.72.816 1.176 1.248 2.496 1.248 3.936-.096.504-.168 1.104-.36 1.656Z"/></symbol><use xlink:href="#drupal" y="312" width="24" height="24"/><view id="drupal-view" viewBox="0 312 24 24"/><symbol id="gin" viewBox="0 0 24 24"><path d="M12 4.92c.6.696 1.272 1.344 1.92 1.992 2.4 2.4 4.56 4.56 4.56 7.776v.408c-.096 3.528-3 6.384-6.528 6.384h-.12c-1.728-.048-3.384-.744-4.56-1.992-1.176-1.296-1.824-2.952-1.776-4.728v-.048c0-3.216 2.256-5.4 4.56-7.776A49.835 49.835 0 0 0 12 4.92ZM12 0c-.48 1.824-2.088 3.432-3.792 5.04-2.472 2.52-5.328 5.4-5.328 9.648-.12 5.04 3.912 9.216 8.904 9.312H12c4.92 0 9-3.96 9.12-8.904v-.384c0-4.296-2.88-7.128-5.352-9.648C14.088 3.432 12.48 1.824 12 0Z"/></symbol><use xlink:href="#gin" y="336" width="24" height="24"/><view id="gin-view" viewBox="0 336 24 24"/><symbol id="handle" viewBox="0 0 24 24"><path d="m8 20 8-8-8-8" fill="none" stroke="currentColor" stroke-width="3" stroke-linecap="round" stroke-linejoin="round"/></symbol><use xlink:href="#handle" y="360" width="24" height="24"/><view id="handle-view" viewBox="0 360 24 24"/><symbol id="loader" viewBox="0 0 24 24"><path d="M12 4a1 1 0 1 0 0-2 1 1 0 0 0 0 2Z" fill="none" stroke="currentColor" stroke-width="2.25" stroke-linecap="round" stroke-linejoin="round"/></symbol><use xlink:href="#loader" y="384" width="24" height="24"/><view id="loader-view" viewBox="0 384 24 24"/><symbol id="more" viewBox="0 0 24 24"><path d="M12 13a1 1 0 1 0 0-2 1 1 0 0 0 0 2Zm0-9a1 1 0 1 0 0-2 1 1 0 0 0 0 2Zm0 18a1 1 0 1 0 0-2 1 1 0 0 0 0 2Z" fill="none" stroke="currentColor" stroke-width="2.25" stroke-linecap="round" stroke-linejoin="round"/></symbol><use xlink:href="#more" y="408" width="24" height="24"/><view id="more-view" viewBox="0 408 24 24"/><symbol id="sidebar" viewBox="0 0 24 24"><g fill="none" stroke="currentColor" stroke-width="2" stroke-linecap="round" stroke-linejoin="round"><rect x="2" y="2" width="20" height="18" rx="4" ry="4"/><path d="M14 2v18m3.25-13h1.25m-1.25 4.5h1.25"/></g></symbol><use xlink:href="#sidebar" y="432" width="24" height="24"/><view id="sidebar-view" viewBox="0 432 24 24"/><symbol id="tool" viewBox="0 0 24 24"><path d="M14.7 6.3a1 1 0 0 0 0 1.4l1.6 1.6a1 1 0 0 0 1.4 0l3.77-3.77a6 6 0 0 1-7.94 7.94l-6.91 6.91a2.12 2.12 0 0 1-3-3l6.91-6.91a6 6 0 0 1 7.94-7.94l-3.76 3.76z" fill="none" stroke="currentColor" stroke-width="2.25" stroke-linecap="round" stroke-linejoin="round"/></symbol><use xlink:href="#tool" y="456" width="24" height="24"/><view id="tool-view" viewBox="0 456 24 24"/><symbol id="grid" viewBox="0 0 24 24"><path d="M3 3h7v7H3zm11 0h7v7h-7zm0 11h7v7h-7zM3 14h7v7H3z" fill="none" stroke="currentColor" stroke-width="3" stroke-linecap="round" stroke-linejoin="round"/></symbol><use xlink:href="#grid" y="480" width="24" height="24"/><view id="grid-view" viewBox="0 480 24 24"/><symbol id="list" viewBox="0 0 24 24"><path d="M8 6h13M8 12h13M8 18h13M3 6h.01M3 12h.01M3 18h.01" fill="none" stroke="currentColor" stroke-width="3" stroke-linecap="round" stroke-linejoin="round"/></symbol><use xlink:href="#list" y="504" width="24" height="24"/><view id="list-view" viewBox="0 504 24 24"/><symbol id="media-edit" viewBox="0 0 24 24"><path d="M17 3a2.828 2.828 0 1 1 4 4L7.5 20.5 2 22l1.5-5.5L17 3z" fill="none" stroke="currentColor" stroke-width="3" stroke-linecap="round" stroke-linejoin="round"/></symbol><use xlink:href="#media-edit" y="528" width="24" height="24"/><view id="media-edit-view" viewBox="0 528 24 24"/><symbol id="media-remove" viewBox="0 0 24 24"><path d="M20 4 4 20M4 4l16 16" fill="none" stroke="currentColor" stroke-width="3" stroke-linecap="round" stroke-linejoin="round"/></symbol><use xlink:href="#media-remove" y="552" width="24" height="24"/><view id="media-remove-view" viewBox="0 552 24 24"/><symbol id="error" viewBox="0 0 24 24"><g fill="none" stroke="currentColor" stroke-width="2.25" stroke-linecap="round" stroke-linejoin="round"><circle cx="12" cy="12" r="10"/><path d="m4.93 4.93 14.14 14.14"/></g></symbol><use xlink:href="#error" y="576" width="24" height="24"/><view id="error-view" viewBox="0 576 24 24"/><symbol id="info" viewBox="0 0 24 24"><path d="M21 15a2 2 0 0 1-2 2H7l-4 4V5a2 2 0 0 1 2-2h14a2 2 0 0 1 2 2z" fill="none" stroke="currentColor" stroke-width="2.25" stroke-linecap="round" stroke-linejoin="round"/></symbol><use xlink:href="#info" y="600" width="24" height="24"/><view id="info-view" viewBox="0 600 24 24"/><symbol id="question" viewBox="0 0 24 24"><g fill="none" stroke="currentColor" stroke-width="2.25" stroke-linecap="round" stroke-linejoin="round"><circle cx="12" cy="12" r="10"/><path d="M9.09 9a3 3 0 0 1 5.83 1c0 2-3 3-3 3m.08 4h.01"/></g></symbol><use xlink:href="#question" y="624" width="24" height="24"/><view id="question-view" viewBox="0 624 24 24"/><symbol id="status" viewBox="0 0 24 24"><g fill="none" stroke="currentColor" stroke-width="2.25" stroke-linecap="round" stroke-linejoin="round"><path d="M22 11.08V12a10 10 0 1 1-5.93-9.14"/><path d="M22 4 12 14.01l-3-3"/></g></symbol><use xlink:href="#status" y="648" width="24" height="24"/><view id="status-view" viewBox="0 648 24 24"/><symbol id="warning" viewBox="0 0 24 24"><path d="M7.86 2h8.28L22 7.86v8.28L16.14 22H7.86L2 16.14V7.86L7.86 2zM12 8v4m0 4h.01" fill="none" stroke="currentColor" stroke-width="2.25" stroke-linecap="round" stroke-linejoin="round"/></symbol><use xlink:href="#warning" y="672" width="24" height="24"/><view id="warning-view" viewBox="0 672 24 24"/><symbol id="announcement" viewBox="0 0 24 24"><path d="M18 8A6 6 0 0 0 6 8c0 7-3 9-3 9h18s-3-2-3-9m-4.27 13a2 2 0 0 1-3.46 0" fill="none" stroke="currentColor" stroke-width="2.25" stroke-linecap="round" stroke-linejoin="round"/></symbol><use xlink:href="#announcement" y="696" width="24" height="24"/><view id="announcement-view" viewBox="0 696 24 24"/><symbol id="block" viewBox="0 0 24 24"><g stroke="currentColor" stroke-width="2.25" stroke-linecap="round" stroke-linejoin="round"><path d="M12.667 1.3h0l.005.003 8.55 4.798.003.001c.2.114.364.277.477.469.114.193.173.41.173.63V16.8c0 .22-.06.436-.173.63a1.298 1.298 0 0 1-.477.468h-.002l-8.551 4.8-.005.002a1.353 1.353 0 0 1-1.334 0l-.005-.003-8.55-4.798-.003-.001a1.298 1.298 0 0 1-.477-.469 1.243 1.243 0 0 1-.173-.629V7.2c0-.22.06-.437.173-.63a1.298 1.298 0 0 1 .48-.469l8.55-4.798h0l.005-.003a1.354 1.354 0 0 1 1.334 0Z"/><path d="m3 7 9 5 9-5m-9 16V12"/></g></symbol><use xlink:href="#block" y="720" width="24" height="24"/><view id="block-view" viewBox="0 720 24 24"/><symbol id="blocks" viewBox="0 0 24 24"><g fill="none" stroke="currentColor" stroke-width="2.25" stroke-linecap="round" stroke-linejoin="round"><path d="M12.643 1.544h0l.004.002 8.373 4.699h.002c.193.11.35.266.459.45.109.186.165.394.166.605v9.4c0 .21-.057.42-.166.604a1.248 1.248 0 0 1-.46.452l-8.374 4.698-.004.002a1.301 1.301 0 0 1-1.284 0l-.004-.002-8.373-4.698-.002-.002a1.248 1.248 0 0 1-.46-.45 1.193 1.193 0 0 1-.165-.604V7.3c0-.211.057-.42.166-.604.109-.185.266-.34.459-.45l.002-.001 8.373-4.699h0l.004-.002a1.303 1.303 0 0 1 1.284 0Z"/><path d="M3.188 7.104 12.001 12l8.812-4.896M12 22.77V12"/></g><path d="m12 12 9.5-5v10.5L12 23V12Z" fill="currentColor" fill-opacity=".15"/></symbol><use xlink:href="#blocks" y="744" width="24" height="24"/><view id="blocks-view" viewBox="0 744 24 24"/><symbol id="bookmarks" viewBox="0 0 24 24"><path d="M19.04 0H5.88A1.88 1.88 0 0 0 4 1.88v20.68a.94.94 0 0 0 1.438.797l7.022-4.389 7.023 4.389a.939.939 0 0 0 1.437-.797V1.88A1.88 1.88 0 0 0 19.04 0Zm0 1.88v13.345l-6.083-3.801a.94.94 0 0 0-.996 0l-6.081 3.8V1.88h13.16Zm-6.083 15.184a.94.94 0 0 0-.996 0l-6.081 3.8v-3.423l6.58-4.113 6.58 4.113v3.424l-6.083-3.801Z" fill="currentColor" stroke="currentColor" stroke-width=".5" stroke-linecap="round" stroke-linejoin="round"/></symbol><use xlink:href="#bookmarks" y="768" width="24" height="24"/><view id="bookmarks-view" viewBox="0 768 24 24"/><symbol id="chevron-down" viewBox="0 0 24 24"><path d="m2 7 10 10L22 7" fill="none" stroke="currentColor" stroke-width="3.25" stroke-linecap="round" stroke-linejoin="round"/></symbol><use xlink:href="#chevron-down" y="792" width="24" height="24"/><view id="chevron-down-view" viewBox="0 792 24 24"/><symbol id="create" viewBox="0 0 24 24"><path d="M12 .25A11.75 11.75 0 1 0 23.75 12 11.762 11.762 0 0 0 12 .25Zm0 21.692A9.943 9.943 0 1 1 21.942 12 9.954 9.954 0 0 1 12 21.942ZM17.423 12a.903.903 0 0 1-.904.904h-3.615v3.615a.904.904 0 1 1-1.808 0v-3.615H7.481a.904.904 0 1 1 0-1.808h3.615V7.481a.904.904 0 1 1 1.808 0v3.615h3.615a.903.903 0 0 1 .904.904Z" fill="currentColor" stroke="currentColor" stroke-width=".5" stroke-linecap="round" stroke-linejoin="round"/></symbol><use xlink:href="#create" y="816" width="24" height="24"/><view id="create-view" viewBox="0 816 24 24"/><symbol id="extend-new" viewBox="0 0 24 24"><path d="M22.715 16.35a.825.825 0 0 0-.793-.048 2.063 2.063 0 1 1 0-3.729.825.825 0 0 0 1.178-.746V7.425a1.65 1.65 0 0 0-1.65-1.65h-3.736a3.725 3.725 0 0 0-1.148-3.119 3.713 3.713 0 0 0-6.23 3.119H6.6a1.65 1.65 0 0 0-1.65 1.65v3.322a3.726 3.726 0 0 0-3.91 2.437 3.72 3.72 0 0 0 3.91 4.947v3.319A1.65 1.65 0 0 0 6.6 23.1h14.85a1.65 1.65 0 0 0 1.65-1.65v-4.402a.824.824 0 0 0-.385-.699Zm-1.265 5.1H6.6v-4.402a.825.825 0 0 0-1.18-.746 2.061 2.061 0 1 1 0-3.729.825.825 0 0 0 1.18-.746V7.425h4.815a.825.825 0 0 0 .746-1.18 2.063 2.063 0 1 1 3.729 0 .825.825 0 0 0 .745 1.18h4.815v3.324a3.713 3.713 0 1 0 0 7.379v3.322Z" fill="currentColor" stroke="currentColor" stroke-width=".55" stroke-linecap="round" stroke-linejoin="round"/></symbol><use xlink:href="#extend-new" y="840" width="24" height="24"/><view id="extend-new-view" viewBox="0 840 24 24"/><symbol id="files" viewBox="0 0 24 24"><path d="M22.005 4.841 17.397.233a.92.92 0 0 0-.651-.27H7.53a1.843 1.843 0 0 0-1.844 1.844V3.65H3.843A1.843 1.843 0 0 0 2 5.493v16.589a1.844 1.844 0 0 0 1.843 1.843h12.902a1.843 1.843 0 0 0 1.844-1.843v-1.843h1.843a1.843 1.843 0 0 0 1.843-1.844V5.493a.922.922 0 0 0-.27-.652Zm-5.26 17.24H3.844V5.494h8.835l4.067 4.068v12.521Zm3.687-3.686h-1.843V9.18a.92.92 0 0 0-.27-.652L13.711 3.92a.922.922 0 0 0-.652-.27H7.53V1.807h8.835l4.068 4.067v12.521ZM13.98 14.71a.921.921 0 0 1-.922.922H7.53a.921.921 0 1 1 0-1.844h5.53a.921.921 0 0 1 .922.922Zm0 3.686a.921.921 0 0 1-.922.922H7.53a.921.921 0 1 1 0-1.843h5.53a.921.921 0 0 1 .922.921Z" fill="currentColor" stroke="currentColor" stroke-width=".5" stroke-linecap="round" stroke-linejoin="round"/></symbol><use xlink:href="#files" y="864" width="24" height="24"/><view id="files-view" viewBox="0 864 24 24"/><symbol id="media" viewBox="0 0 24 24"><path d="M21.792.25H6.125a1.958 1.958 0 0 0-1.958 1.958v1.959H2.208A1.958 1.958 0 0 0 .25 6.125v15.667a1.959 1.959 0 0 0 1.958 1.958h15.667a1.959 1.959 0 0 0 1.958-1.958v-1.959h1.959a1.958 1.958 0 0 0 1.958-1.958V2.208A1.959 1.959 0 0 0 21.792.25ZM6.125 2.208h15.667V10.7l-2.044-2.044a1.959 1.959 0 0 0-2.769 0l-9.218 9.219H6.125V2.208Zm11.75 19.584H2.208V6.125h1.959v11.75a1.959 1.959 0 0 0 1.958 1.958h11.75v1.959Zm3.917-3.917h-11.26l7.833-7.833 3.427 3.427v4.406ZM11.02 10.042a2.938 2.938 0 1 0 0-5.876 2.938 2.938 0 0 0 0 5.876Zm0-3.917a.98.98 0 1 1 0 1.96.98.98 0 0 1 0-1.96Z" fill="currentColor" stroke="currentColor" stroke-width=".5" stroke-linecap="round" stroke-linejoin="round"/></symbol><use xlink:href="#media" y="888" width="24" height="24"/><view id="media-view" viewBox="0 888 24 24"/><symbol id="people-new" viewBox="0 0 24 24"><path d="M12.091 16.286a6.188 6.188 0 1 0-6.857 0 9.881 9.881 0 0 0-4.871 3.888.825.825 0 1 0 1.382.902 8.25 8.25 0 0 1 13.833 0 .825.825 0 0 0 1.382-.902 9.881 9.881 0 0 0-4.87-3.888Zm-7.966-5.148a4.538 4.538 0 1 1 9.075 0 4.538 4.538 0 0 1-9.075 0Zm21.67 10.178a.825.825 0 0 1-1.14-.24 8.232 8.232 0 0 0-6.917-3.751.825.825 0 0 1 0-1.65 4.538 4.538 0 1 0-1.686-8.753.825.825 0 1 1-.612-1.53 6.188 6.188 0 0 1 5.726 10.894 9.881 9.881 0 0 1 4.87 3.888.825.825 0 0 1-.24 1.142Z" fill="currentColor" stroke="currentColor" stroke-width=".55" stroke-linecap="round" stroke-linejoin="round"/></symbol><use xlink:href="#people-new" y="912" width="24" height="24"/><view id="people-new-view" viewBox="0 912 24 24"/><symbol id="first" viewBox="0 0 24 24"><path d="m11 17-5-5 5-5m7 10-5-5 5-5" fill="none" stroke="currentColor" stroke-width="2.25" stroke-linecap="round" stroke-linejoin="round"/></symbol><use xlink:href="#first" y="936" width="24" height="24"/><view id="first-view" viewBox="0 936 24 24"/><symbol id="last" viewBox="0 0 24 24"><path d="m13 17 5-5-5-5M6 17l5-5-5-5" fill="none" stroke="currentColor" stroke-width="2.25" stroke-linecap="round" stroke-linejoin="round"/></symbol><use xlink:href="#last" y="960" width="24" height="24"/><view id="last-view" viewBox="0 960 24 24"/><symbol id="next" viewBox="0 0 24 24"><path d="m9 18 6-6-6-6" fill="none" stroke="currentColor" stroke-width="2.25" stroke-linecap="round" stroke-linejoin="round"/></symbol><use xlink:href="#next" y="984" width="24" height="24"/><view id="next-view" viewBox="0 984 24 24"/><symbol id="prev" viewBox="0 0 24 24"><path d="m15 18-6-6 6-6" fill="none" stroke="currentColor" stroke-width="2.25" stroke-linecap="round" stroke-linejoin="round"/></symbol><use xlink:href="#prev" y="1008" width="24" height="24"/><view id="prev-view" viewBox="0 1008 24 24"/><symbol id="clock" viewBox="0 0 24 24"><g fill="none" stroke="currentColor" stroke-width="2.25" stroke-linecap="round" stroke-linejoin="round"><circle cx="12" cy="12" r="10"/><path d="M12 6v6l4 2"/></g></symbol><use xlink:href="#clock" y="1032" width="24" height="24"/><view id="clock-view" viewBox="0 1032 24 24"/><symbol id="database" viewBox="0 0 24 24"><g fill="none" stroke="currentColor" stroke-width="2.25" stroke-linecap="round" stroke-linejoin="round"><ellipse cx="12" cy="5" rx="9" ry="3"/><path d="M21 12c0 1.66-4 3-9 3s-9-1.34-9-3"/><path d="M3 5v14c0 1.66 4 3 9 3s9-1.34 9-3V5"/></g></symbol><use xlink:href="#database" y="1056" width="24" height="24"/><view id="database-view" viewBox="0 1056 24 24"/><symbol id="php" viewBox="0 0 24 24"><g fill="none" stroke="currentColor" stroke-width="2.25" stroke-linecap="round" stroke-linejoin="round"><path d="M13 2H6a2 2 0 0 0-2 2v16a2 2 0 0 0 2 2h12a2 2 0 0 0 2-2V9z"/><path d="M13 2v7h7"/></g></symbol><use xlink:href="#php" y="1080" width="24" height="24"/><view id="php-view" viewBox="0 1080 24 24"/><symbol id="server" viewBox="0 0 24 24"><g fill="none" stroke="currentColor" stroke-width="2.25" stroke-linecap="round" stroke-linejoin="round"><rect x="2" y="2" width="20" height="8" rx="2" ry="2"/><rect x="2" y="14" width="20" height="8" rx="2" ry="2"/><path d="M6 6h.01M6 18h.01"/></g></symbol><use xlink:href="#server" y="1104" width="24" height="24"/><view id="server-view" viewBox="0 1104 24 24"/><symbol id="drag-dots" viewBox="0 0 24 24"><path d="M7 13a1 1 0 1 0 0-2 1 1 0 0 0 0 2Zm0-9a1 1 0 1 0 0-2 1 1 0 0 0 0 2Zm0 18a1 1 0 1 0 0-2 1 1 0 0 0 0 2Zm9-9a1 1 0 1 0 0-2 1 1 0 0 0 0 2Zm0-9a1 1 0 1 0 0-2 1 1 0 0 0 0 2Zm0 18a1 1 0 1 0 0-2 1 1 0 0 0 0 2Z" fill="none" stroke="currentColor" stroke-width="2.25" stroke-linecap="round" stroke-linejoin="round"/></symbol><use xlink:href="#drag-dots" y="1128" width="24" height="24"/><view id="drag-dots-view" viewBox="0 1128 24 24"/><symbol id="drag-x" viewBox="0 0 24 24"><path d="m5 9-3 3 3 3m14-6 3 3-3 3M12 2v20" fill="none" stroke="currentColor" stroke-width="2.25" stroke-linecap="round" stroke-linejoin="round"/></symbol><use xlink:href="#drag-x" y="1152" width="24" height="24"/><view id="drag-x-view" viewBox="0 1152 24 24"/><symbol id="drag-y" viewBox="0 0 24 24"><path d="m9 5 3-3 3 3m0 14-3 3-3-3m-7-7h20" fill="none" stroke="currentColor" stroke-width="2.25" stroke-linecap="round" stroke-linejoin="round"/></symbol><use xlink:href="#drag-y" y="1176" width="24" height="24"/><view id="drag-y-view" viewBox="0 1176 24 24"/><symbol id="drag" viewBox="0 0 24 24"><path d="m5 9-3 3 3 3M9 5l3-3 3 3m0 14-3 3-3-3M19 9l3 3-3 3M2 12h20M12 2v20" fill="none" stroke="currentColor" stroke-width="2.25" stroke-linecap="round" stroke-linejoin="round"/></symbol><use xlink:href="#drag" y="1200" width="24" height="24"/><view id="drag-view" viewBox="0 1200 24 24"/><symbol id="sort-asc" viewBox="0 0 24 24"><path d="M12 21V3m-7 7 7-7 7 7" fill="none" stroke="currentColor" stroke-width="2.25" stroke-linecap="round" stroke-linejoin="round"/></symbol><use xlink:href="#sort-asc" y="1224" width="24" height="24"/><view id="sort-asc-view" viewBox="0 1224 24 24"/><symbol id="sort-desc" viewBox="0 0 24 24"><path d="M12 3v18m7-7-7 7-7-7" fill="none" stroke="currentColor" stroke-width="2.25" stroke-linecap="round" stroke-linejoin="round"/></symbol><use xlink:href="#sort-desc" y="1248" width="24" height="24"/><view id="sort-desc-view" viewBox="0 1248 24 24"/><symbol id="sort" viewBox="0 0 24 24"><path d="M3 12h14M3 6h18M3 18h10" fill="none" stroke="currentColor" stroke-width="2.25" stroke-linecap="round" stroke-linejoin="round"/></symbol><use xlink:href="#sort" y="1272" width="24" height="24"/><view id="sort-view" viewBox="0 1272 24 24"/><symbol id="back-to-site" viewBox="0 0 24 24"><g fill="none" stroke="currentColor" stroke-width="2.25" stroke-linecap="round" stroke-linejoin="round"><path d="M9 14 4 9l5-5"/><path d="M20 18v-5a4 4 0 0 0-4-4H4"/></g></symbol><use xlink:href="#back-to-site" y="1296" width="24" height="24"/><view id="back-to-site-view" viewBox="0 1296 24 24"/><symbol id="devel" viewBox="0 0 24 24"><path d="m16 18 6-6-6-6M8 6l-6 6 6 6" fill="none" stroke="currentColor" stroke-width="2.25" stroke-linecap="round" stroke-linejoin="round"/></symbol><use xlink:href="#devel" y="1320" width="24" height="24"/><view id="devel-view" viewBox="0 1320 24 24"/><symbol id="rebuild-cache" viewBox="0 0 24 24"><g fill="none" stroke="currentColor" stroke-width="2.25" stroke-linecap="round" stroke-linejoin="round"><path d="M23 4v6h-6"/><path d="M20.49 15a9 9 0 1 1-2.12-9.36L23 10"/></g></symbol><use xlink:href="#rebuild-cache" y="1344" width="24" height="24"/><view id="rebuild-cache-view" viewBox="0 1344 24 24"/><symbol id="responsive-preview" viewBox="0 0 24 24"><g fill="none" stroke="currentColor" stroke-width="2.25" stroke-linecap="round" stroke-linejoin="round"><rect x="5" y="2" width="14" height="20" rx="2" ry="2"/><path d="M12 18h.01"/></g></symbol><use xlink:href="#responsive-preview" y="1368" width="24" height="24"/><view id="responsive-preview-view" viewBox="0 1368 24 24"/><symbol id="search" viewBox="0 0 24 24"><path d="M10 17a7 7 0 1 0 0-14 7 7 0 0 0 0 14Zm11 4-4.35-4.35" fill="none" stroke="currentColor" stroke-width="2.25" stroke-linecap="round" stroke-linejoin="round"/></symbol><use xlink:href="#search" y="1392" width="24" height="24"/><view id="search-view" viewBox="0 1392 24 24"/><symbol id="shortcut-filled" viewBox="0 0 24 24"><path d="m12 2 3.09 6.26L22 9.27l-5 4.87 1.18 6.88L12 17.77l-6.18 3.25L7 14.14 2 9.27l6.91-1.01L12 2z" fill="currentColor" fill-opacity=".2" stroke="currentColor" stroke-width="2.25" stroke-linecap="round" stroke-linejoin="round"/></symbol><use xlink:href="#shortcut-filled" y="1416" width="24" height="24"/><view id="shortcut-filled-view" viewBox="0 1416 24 24"/><symbol id="shortcut" viewBox="0 0 24 24"><path d="m12 2 3.09 6.26L22 9.27l-5 4.87 1.18 6.88L12 17.77l-6.18 3.25L7 14.14 2 9.27l6.91-1.01L12 2z" fill="none" stroke="currentColor" stroke-width="2.25" stroke-linecap="round" stroke-linejoin="round"/></symbol><use xlink:href="#shortcut" y="1440" width="24" height="24"/><view id="shortcut-view" viewBox="0 1440 24 24"/><symbol id="user" viewBox="0 0 24 24"><g fill="none" stroke="currentColor" stroke-width="2.25" stroke-linecap="round" stroke-linejoin="round"><path d="M12 13a4 4 0 1 0 0-8 4 4 0 0 0 0 8Zm-6.75 7v-.667C5.25 17 9.314 16 12.25 16s7 1 7 3.333V20"/><path d="M23 12c0 6.075-4.925 11-11 11S1 18.075 1 12 5.925 1 12 1s11 4.925 11 11Z"/></g></symbol><use xlink:href="#user" y="1464" width="24" height="24"/><view id="user-view" viewBox="0 1464 24 24"/><symbol id="appearance" viewBox="0 0 24 24"><g fill="none" stroke="currentColor" stroke-width="2.25" stroke-linecap="round" stroke-linejoin="round"><path d="M9 7.75h10"/><path fill="currentColor" fill-opacity=".15" stroke="none" d="M7 2.25h11v4.5H7z"/><path d="M19 4.077v-2.02c0-.445-.448-.807-1-.807H6c-.552 0-1 .362-1 .808v8.077c.004 2.175 1.562 4.153 4 5.077v4.615c0 1.338 1.343 2.423 3 2.423s3-1.085 3-2.423v-4.615c2.438-.924 3.997-2.902 4-5.077V7.75"/></g></symbol><use xlink:href="#appearance" y="1488" width="24" height="24"/><view id="appearance-view" viewBox="0 1488 24 24"/><symbol id="bat" viewBox="0 0 24 24"><g fill="none" stroke="currentColor" stroke-width="2.25" stroke-linecap="round" stroke-linejoin="round"><rect x="3" y="4" width="18" height="18" rx="2" ry="2"/><path d="M16 2v4M8 2v4m-5 4h18"/></g></symbol><use xlink:href="#bat" y="1512" width="24" height="24"/><view id="bat-view" viewBox="0 1512 24 24"/><symbol id="commerce" viewBox="0 0 24 24"><g fill="none" stroke="currentColor" stroke-width="2.25" stroke-linecap="round" stroke-linejoin="round"><circle cx="9" cy="21" r="1"/><circle cx="20" cy="21" r="1"/><path d="M1 1h4l2.68 13.39a2 2 0 0 0 2 1.61h9.72a2 2 0 0 0 2-1.61L23 6H6"/></g></symbol><use xlink:href="#commerce" y="1536" width="24" height="24"/><view id="commerce-view" viewBox="0 1536 24 24"/><symbol id="config" viewBox="0 0 24 24"><g fill="none" stroke="currentColor" stroke-width="2.25" stroke-linecap="round" stroke-linejoin="round"><circle fill="currentColor" fill-opacity=".15" cx="12" cy="12" r="3"/><path d="M19.4 15a1.65 1.65 0 0 0 .33 1.82l.06.06a2 2 0 0 1 0 2.83 2 2 0 0 1-2.83 0l-.06-.06a1.65 1.65 0 0 0-1.82-.33 1.65 1.65 0 0 0-1 1.51V21a2 2 0 0 1-2 2 2 2 0 0 1-2-2v-.09A1.65 1.65 0 0 0 9 19.4a1.65 1.65 0 0 0-1.82.33l-.06.06a2 2 0 0 1-2.83 0 2 2 0 0 1 0-2.83l.06-.06a1.65 1.65 0 0 0 .33-1.82 1.65 1.65 0 0 0-1.51-1H3a2 2 0 0 1-2-2 2 2 0 0 1 2-2h.09A1.65 1.65 0 0 0 4.6 9a1.65 1.65 0 0 0-.33-1.82l-.06-.06a2 2 0 0 1 0-2.83 2 2 0 0 1 2.83 0l.06.06a1.65 1.65 0 0 0 1.82.33H9a1.65 1.65 0 0 0 1-1.51V3a2 2 0 0 1 2-2 2 2 0 0 1 2 2v.09a1.65 1.65 0 0 0 1 1.51 1.65 1.65 0 0 0 1.82-.33l.06-.06a2 2 0 0 1 2.83 0 2 2 0 0 1 0 2.83l-.06.06a1.65 1.65 0 0 0-.33 1.82V9a1.65 1.65 0 0 0 1.51 1H21a2 2 0 0 1 2 2 2 2 0 0 1-2 2h-.09a1.65 1.65 0 0 0-1.51 1z"/></g></symbol><use xlink:href="#config" y="1560" width="24" height="24"/><view id="config-view" viewBox="0 1560 24 24"/><symbol id="content" viewBox="0 0 24 24"><g fill="none" stroke="currentColor" stroke-width="2.25" stroke-linecap="round" stroke-linejoin="round"><path d="M13 2H6a2 2 0 0 0-2 2v16a2 2 0 0 0 2 2h12a2 2 0 0 0 2-2V9z"/><path fill="currentColor" fill-opacity=".15" d="M12 2v8h8"/></g></symbol><use xlink:href="#content" y="1584" width="24" height="24"/><view id="content-view" viewBox="0 1584 24 24"/><symbol id="edit" viewBox="0 0 24 24"><path d="M17 3a2.828 2.828 0 1 1 4 4L7.5 20.5 2 22l1.5-5.5L17 3z" fill="none" stroke="currentColor" stroke-width="2.25" stroke-linecap="round" stroke-linejoin="round"/></symbol><use xlink:href="#edit" y="1608" width="24" height="24"/><view id="edit-view" viewBox="0 1608 24 24"/><symbol id="extend" viewBox="0 0 24 24"><path d="M14.75 10h7.5c.5 0 .75-.23.75-.692V1.692C23 1.31 22.664 1 22.25 1h-7.5c-.414 0-.75.31-.75.692v7.616c0 .382.336.692.75.692ZM1 14h9V5.692C10 5.31 9.664 5 9.25 5h-7.5c-.414 0-.75.31-.75.692V14Zm.75 9H10v-9H1v8.308c0 .382.336.692.75.692ZM10 23h8.25c.5 0 .75-.23.75-.692v-7.616c0-.382-.336-.692-.75-.692H10v9Z" fill="none" stroke="currentColor" stroke-width="2" stroke-linecap="round" stroke-linejoin="round"/><path fill="currentColor" fill-opacity=".1" d="M1.75 23H10v-9H1v8.308c0 .382.336.692.75.692Z" stroke="currentColor" stroke-width="2" stroke-linecap="round" stroke-linejoin="round"/></symbol><use xlink:href="#extend" y="1632" width="24" height="24"/><view id="extend-view" viewBox="0 1632 24 24"/><symbol id="fallback" viewBox="0 0 24 24"><rect x="3" y="3" width="18" height="18" rx="2" ry="2" fill="none" stroke="currentColor" stroke-width="2.25" stroke-linecap="round" stroke-linejoin="round"/></symbol><use xlink:href="#fallback" y="1656" width="24" height="24"/><view id="fallback-view" viewBox="0 1656 24 24"/><symbol id="group" viewBox="0 0 24 24"><g fill="none" stroke="currentColor" stroke-width="2.25" stroke-linecap="round" stroke-linejoin="round"><path d="M4 19.5A2.5 2.5 0 0 1 6.5 17H20M4 14.5A2.5 2.5 0 0 1 6.5 12H20"/><path d="M6.5 2H20v20H6.5A2.5 2.5 0 0 1 4 19.5v-15A2.5 2.5 0 0 1 6.5 2v0Z"/></g></symbol><use xlink:href="#group" y="1680" width="24" height="24"/><view id="group-view" viewBox="0 1680 24 24"/><symbol id="hamburger" viewBox="0 0 24 24"><path d="M3 12h18M3 6h18M3 18h18" fill="none" stroke="currentColor" stroke-width="2.25" stroke-linecap="round" stroke-linejoin="round"/></symbol><use xlink:href="#hamburger" y="1704" width="24" height="24"/><view id="hamburger-view" viewBox="0 1704 24 24"/><symbol id="help" viewBox="0 0 24 24"><g fill="none" stroke="currentColor" stroke-width="2.25" stroke-linecap="round" stroke-linejoin="round"><path d="M23 12c0 6.075-4.925 11-11 11S1 18.075 1 12 5.925 1 12 1s11 4.925 11 11Z"/><path d="M9.09 8a3 3 0 0 1 5.83 1c0 2-3 3-3 3m.08 5h.01"/></g></symbol><use xlink:href="#help" y="1728" width="24" height="24"/><view id="help-view" viewBox="0 1728 24 24"/><symbol id="local-tasks" viewBox="0 0 24 24"><g fill="none" stroke="currentColor" stroke-width="2.25" stroke-linecap="round" stroke-linejoin="round"><path d="M22 11.08V12a10 10 0 1 1-5.93-9.14"/><path d="M22 4 12 14.01l-3-3"/></g></symbol><use xlink:href="#local-tasks" y="1752" width="24" height="24"/><view id="local-tasks-view" viewBox="0 1752 24 24"/><symbol id="nav-toggle-to-left" viewBox="0 0 24 24"><path d="M19 12H5m7 7-7-7 7-7" fill="none" stroke="currentColor" stroke-width="2.25" stroke-linecap="round" stroke-linejoin="round"/></symbol><use xlink:href="#nav-toggle-to-left" y="1776" width="24" height="24"/><view id="nav-toggle-to-left-view" viewBox="0 1776 24 24"/><symbol id="nav-toggle-to-top" viewBox="0 0 24 24"><path d="M12 19V5m-7 7 7-7 7 7" fill="none" stroke="currentColor" stroke-width="2.25" stroke-linecap="round" stroke-linejoin="round"/></symbol><use xlink:href="#nav-toggle-to-top" y="1800" width="24" height="24"/><view id="nav-toggle-to-top-view" viewBox="0 1800 24 24"/><symbol id="people" viewBox="0 0 24 24"><g fill="none" stroke="currentColor" stroke-width="2.25" stroke-linecap="round" stroke-linejoin="round"><ellipse fill="currentColor" fill-opacity=".15" cx="12.25" cy="19.5" rx="6.25" ry="2.5" stroke="none"/><path fill="currentColor" fill-opacity=".15" fill-rule="evenodd" clip-rule="evenodd" d="M12 13a4 4 0 1 0 0-8 4 4 0 0 0 0 8Z"/><path d="M5.25 20v-.667C5.25 17 9.314 16 12.25 16s7 1 7 3.333V20"/><path d="M22.875 12c0 6.006-4.869 10.875-10.875 10.875S1.125 18.006 1.125 12 5.994 1.125 12 1.125 22.875 5.994 22.875 12Z"/></g></symbol><use xlink:href="#people" y="1824" width="24" height="24"/><view id="people-view" viewBox="0 1824 24 24"/><symbol id="reports" viewBox="0 0 24 24"><g fill="none" stroke="currentColor" stroke-width="2.25" stroke-linecap="round" stroke-linejoin="round"><path d="M21.21 15.89A10 10 0 1 1 8 2.83"/><path fill="currentColor" fill-opacity=".15" d="M22 12A10 10 0 0 0 12 2v10z"/></g></symbol><use xlink:href="#reports" y="1848" width="24" height="24"/><view id="reports-view" viewBox="0 1848 24 24"/><symbol id="structure" viewBox="0 0 24 24"><g fill="none" stroke="currentColor" stroke-width="2.25" stroke-linecap="round" stroke-linejoin="round"><path fill="currentColor" fill-opacity=".15" d="M12.928 1.486a2 2 0 0 0-1.856 0L1.5 6.5l9.572 5.014a2 2 0 0 0 1.856 0L22.5 6.5l-9.572-5.014Z"/><path d="m1.5 12 9.572 5.014a2 2 0 0 0 1.856 0L22.5 12m-21 5.5 9.572 5.014a2 2 0 0 0 1.856 0L22.5 17.5"/></g></symbol><use xlink:href="#structure" y="1872" width="24" height="24"/><view id="structure-view" viewBox="0 1872 24 24"/><symbol id="tmgmt" viewBox="0 0 24 24"><g fill="none" stroke="currentColor" stroke-width="2.25" stroke-linecap="round" stroke-linejoin="round"><circle cx="12" cy="12" r="10"/><path d="M2 12h20M12 2a15.3 15.3 0 0 1 4 10 15.3 15.3 0 0 1-4 10 15.3 15.3 0 0 1-4-10 15.3 15.3 0 0 1 4-10z"/></g></symbol><use xlink:href="#tmgmt" y="1896" width="24" height="24"/><view id="tmgmt-view" viewBox="0 1896 24 24"/><symbol id="trash-module" viewBox="0 0 24 24"><path d="M3 6h18m-2 0v14a2 2 0 0 1-2 2H7a2 2 0 0 1-2-2V6m3 0V4a2 2 0 0 1 2-2h4a2 2 0 0 1 2 2v2m-6 5v6m4-6v6" fill="none" stroke="currentColor" stroke-width="2.25" stroke-linecap="round" stroke-linejoin="round"/></symbol><use xlink:href="#trash-module" y="1920" width="24" height="24"/><view id="trash-module-view" viewBox="0 1920 24 24"/><symbol id="webform" viewBox="0 0 24 24"><g fill="none" stroke="currentColor" stroke-width="2.25" stroke-linecap="round" stroke-linejoin="round"><path d="M12 16a4 4 0 1 0 0-8 4 4 0 0 0 0 8Z"/><path d="M16 8v5a3 3 0 0 0 6 0v-1a10 10 0 1 0-3.92 7.94"/></g></symbol><use xlink:href="#webform" y="1944" width="24" height="24"/><view id="webform-view" viewBox="0 1944 24 24"/></svg>
