<svg viewBox="0 0 24 24" xmlns="http://www.w3.org/2000/svg">
  <path d="M15.792 5.064C14.088 3.408 12.504 1.824 12.024 0C11.544 1.824 9.96 3.408 8.256 5.064C5.76 7.56 2.904 10.416 2.904 14.712C2.76 19.728 6.792 23.904 11.808 24C16.824 24.096 21.024 20.112 21.096 15.096C21.096 14.976 21.096 14.832 21.096 14.712C21.144 10.416 18.288 7.56 15.792 5.064ZM7.56 15.528C7.296 15.864 7.032 16.272 6.864 16.656C6.816 16.704 6.768 16.776 6.696 16.776H6.648C6.432 16.776 6.216 16.392 6.216 16.392C6.168 16.296 6.096 16.176 6.048 16.08L6 15.984C5.448 14.784 5.904 13.08 5.904 13.08C6.12 12.264 6.504 11.448 6.984 10.752C7.296 10.32 7.632 9.888 7.968 9.456L8.4 9.888L10.44 11.952C10.536 12.048 10.536 12.168 10.44 12.264L8.328 14.64L7.56 15.528ZM12.12 21.48C10.392 21.48 8.952 20.064 9 18.312C9 17.544 9.312 16.8 9.768 16.248C10.416 15.48 11.232 14.688 12.144 13.656C13.176 14.784 13.872 15.504 14.52 16.392C14.568 16.44 14.616 16.512 14.64 16.608C14.976 17.136 15.192 17.736 15.192 18.384C15.264 20.112 13.848 21.48 12.12 21.48ZM18.024 16.464C17.976 16.584 17.856 16.68 17.712 16.728H17.664C17.544 16.68 17.448 16.608 17.352 16.512C16.8 15.696 16.176 14.904 15.504 14.232L14.688 13.368L11.928 10.512C11.376 9.984 10.8 9.384 10.296 8.832C10.296 8.784 10.248 8.784 10.248 8.784C10.152 8.664 10.08 8.52 10.032 8.352C10.032 8.304 10.032 8.304 10.032 8.256C9.936 7.776 10.128 7.296 10.464 6.96C10.992 6.432 11.544 5.88 12.072 5.328C12.624 5.928 13.248 6.528 13.848 7.152C15.048 8.28 16.128 9.528 17.136 10.872C17.952 12.048 18.384 13.368 18.384 14.808C18.288 15.312 18.216 15.912 18.024 16.464Z" />
</svg>
