<svg xmlns="http://www.w3.org/2000/svg" width="17" height="17" viewBox="0 0 16 16"><path fill="currentColor" d="M14.103 5.476a.5.5 0 00-.701-.053.526.526 0 00-.082.713l1.1 1.346H8.512V1.62l1.32 1.113a.501.501 0 00.732-.054.528.528 0 00-.085-.744L8.328.119a.5.5 0 00-.647 0L5.529 1.935a.527.527 0 00-.085.744.504.504 0 00.732.054l1.32-1.113v5.862H1.588L2.68 6.136a.526.526 0 00-.1-.68.5.5 0 00-.675.02L.117 7.67a.525.525 0 000 .66l1.788 2.194a.5.5 0 00.702.053.526.526 0 00.081-.713l-1.1-1.346h5.908v5.862l-1.32-1.113a.501.501 0 00-.698.082.526.526 0 00.051.716l2.152 1.817v-.001a.5.5 0 00.647 0l2.151-1.816a.526.526 0 00.052-.716.501.501 0 00-.699-.082l-1.32 1.113V8.518h5.908l-1.091 1.346a.527.527 0 00.022.776.504.504 0 00.752-.116l1.78-2.194a.527.527 0 000-.66z"/></svg>