<svg height="17" viewBox="0 0 16 16" width="17" xmlns="http://www.w3.org/2000/svg"><path d="m14.102955 5.47562c-.1819-.20654-.4917-.23016-.7014-.05265-.2098.17684-.2462.4914-.0814.71278l1.0998 1.34591h-5.9075397v-5.86152l1.31954 1.11304c.1033.0945.2395997.14242.3771997.13162.1383-.01013.2667-.07762.3548-.18629.088-.10935.129-.24974.1131-.39014-.0159-.14039-.0873-.26796-.1979-.35369l-2.1513197-1.815715c-.1879501-.1586199-.4592601-.1586199-.6472101 0l-2.15136 1.815715c-.11052.08572-.1819799.2133-.19787.35369-.0159.1404.02514.2808.1131601.39014.08801.10867.2163899.17616.35471.18629.1376499.0108.2739799-.03712.3772199-.13162l1.31956-1.11304v5.86152h-5.90757l1.0912601-1.34591c.13963-.22004.09661-.51163-.10059-.6797-.19722-.16875-.4864-.15997-.67369.01957l-1.78881905 2.19431c-.155515.1917-.155515.46843 0 .66013l1.78881905 2.19434c.18199.2065.49169.2301.70147.0526.20978-.1768.24617-.4914.0814-.71276l-1.09986-1.34591h5.9075699v5.86147l-1.3195699-1.113c-.2170501-.1681-.52545-.1316-.6988201.0824-.1740399.2146-.15089.5298.05162.7161l2.15136 1.8164v-.0007c.18794.1587.4592601.1587.6472001 0l2.1513297-1.8157c.2025-.1863.2257-.5015.0517-.7161-.1734-.214-.4818-.2504-.6988997-.0824l-1.31954 1.1131v-5.86155h5.9075397l-1.0912 1.3459c-.1059.10193-.1641.24505-.1602.39285.004.1485.0702.2875.182.3827.1119.0952.2581.137.4017.1154.1436-.0223.2713-.106.3507-.2308l1.7809-2.19434c.1549-.19169.1549-.46842 0-.66012z"/></svg>